<mxfile host="65bd71144e">
    <diagram id="HIP3nbAZw_EuaXWnEj3U" name="Page-1">
        <mxGraphModel dx="1625" dy="431" grid="1" gridSize="10" guides="1" tooltips="1" connect="1" arrows="1" fold="1" page="1" pageScale="1" pageWidth="850" pageHeight="1100" math="0" shadow="0">
            <root>
                <mxCell id="0"/>
                <mxCell id="1" parent="0"/>
                <mxCell id="8" value="http://ics2o.mths.ca" style="swimlane;whiteSpace=wrap;html=1;startSize=20;fillColor=#CCE5FF;" vertex="1" parent="1">
                    <mxGeometry x="45" y="70" width="760" height="430" as="geometry"/>
                </mxCell>
                <mxCell id="9" value="" style="whiteSpace=wrap;html=1;fillColor=#FFFFFF;" vertex="1" parent="8">
                    <mxGeometry y="20" width="760" height="40" as="geometry"/>
                </mxCell>
                <mxCell id="10" value="&lt;h1&gt;&lt;font color=&quot;#cce5ff&quot;&gt;Cotton Candy Stand&lt;/font&gt;&lt;/h1&gt;" style="text;html=1;align=center;verticalAlign=middle;resizable=0;points=[];autosize=1;strokeColor=none;fillColor=none;" vertex="1" parent="8">
                    <mxGeometry x="250" y="5" width="260" height="70" as="geometry"/>
                </mxCell>
                <mxCell id="14" value="&lt;b&gt;Cotton Candy Size&lt;/b&gt;" style="text;strokeColor=none;align=center;fillColor=none;html=1;verticalAlign=middle;whiteSpace=wrap;rounded=0;labelBackgroundColor=none;fontFamily=Times New Roman;fontColor=#CCE5FF;" vertex="1" parent="8">
                    <mxGeometry x="5" y="110" width="60" height="30" as="geometry"/>
                </mxCell>
                <mxCell id="15" value="" style="shape=partialRectangle;whiteSpace=wrap;html=1;top=0;left=0;fillColor=none;labelBackgroundColor=none;fontFamily=Times New Roman;fontColor=#CCE5FF;" vertex="1" parent="8">
                    <mxGeometry x="75" y="120" width="100" height="20" as="geometry"/>
                </mxCell>
                <mxCell id="16" value="&lt;b&gt;&lt;font color=&quot;#9999ff&quot; face=&quot;Lucida Console&quot;&gt;Calculate&lt;/font&gt;&lt;br&gt;&lt;/b&gt;" style="labelPosition=center;verticalLabelPosition=middle;align=center;html=1;shape=mxgraph.basic.shaded_button;dx=10;fillColor=#E6E6E6;strokeColor=none;whiteSpace=wrap;labelBackgroundColor=none;fontFamily=Times New Roman;fontColor=#CCE5FF;" vertex="1" parent="8">
                    <mxGeometry x="55" y="236.86" width="80" height="50" as="geometry"/>
                </mxCell>
                <mxCell id="17" value="&lt;h3&gt;&lt;font color=&quot;#cce5ff&quot;&gt;Tax = $1&lt;/font&gt;&lt;/h3&gt;&lt;div&gt;&lt;font color=&quot;#cce5ff&quot;&gt;&lt;br&gt;&lt;/font&gt;&lt;/div&gt;" style="text;strokeColor=none;align=center;fillColor=none;html=1;verticalAlign=middle;whiteSpace=wrap;rounded=0;labelBackgroundColor=none;fontFamily=Times New Roman;fontColor=#0A58F5;" vertex="1" parent="8">
                    <mxGeometry x="-65" y="320" width="280" height="30" as="geometry"/>
                </mxCell>
                <mxCell id="19" value="&lt;b&gt;Cotton Candy Flavor&lt;/b&gt;" style="text;strokeColor=none;align=center;fillColor=none;html=1;verticalAlign=middle;whiteSpace=wrap;rounded=0;labelBackgroundColor=none;fontFamily=Times New Roman;fontColor=#CCE5FF;" vertex="1" parent="8">
                    <mxGeometry y="160" width="65" height="30" as="geometry"/>
                </mxCell>
                <mxCell id="20" value="" style="shape=partialRectangle;whiteSpace=wrap;html=1;top=0;left=0;fillColor=none;labelBackgroundColor=none;fontFamily=Times New Roman;fontColor=#CCE5FF;" vertex="1" parent="8">
                    <mxGeometry x="75" y="170" width="100" height="20" as="geometry"/>
                </mxCell>
                <mxCell id="22" value="&lt;h3&gt;&lt;font color=&quot;#cce5ff&quot;&gt;Subtotal = $6&lt;/font&gt;&lt;/h3&gt;" style="text;strokeColor=none;align=center;fillColor=none;html=1;verticalAlign=middle;whiteSpace=wrap;rounded=0;labelBackgroundColor=none;fontFamily=Times New Roman;fontColor=#0A58F5;" vertex="1" parent="8">
                    <mxGeometry x="-65" y="330" width="280" height="30" as="geometry"/>
                </mxCell>
                <mxCell id="23" value="&lt;h3&gt;&lt;font color=&quot;#cce5ff&quot;&gt;Full Total = $7&lt;/font&gt;&lt;/h3&gt;" style="text;strokeColor=none;align=center;fillColor=none;html=1;verticalAlign=middle;whiteSpace=wrap;rounded=0;labelBackgroundColor=none;fontFamily=Times New Roman;fontColor=#0A58F5;" vertex="1" parent="8">
                    <mxGeometry x="-65" y="350" width="280" height="30" as="geometry"/>
                </mxCell>
                <mxCell id="24" value="" style="shape=image;imageAspect=0;aspect=fixed;verticalLabelPosition=bottom;verticalAlign=top;fontFamily=Lucida Console;fontColor=#9999FF;image=data:image/png,iVBORw0KGgoAAAANSUhEUgAAAXEAAADSCAYAAAC8ePBQAAAACXBIWXMAAA7EAAAOxAGVKw4bAAAAMnRFWHRDb21tZW50AHhyOmQ6REFGaHViSXoyZWs6NSxqOjM3OTk5NDUxMzQsdDoyMzA1MDIwMTNE6JgAAATuaVRYdFhNTDpjb20uYWRvYmUueG1wAAAAAABodHRwOi8vbnMuYWRvYmUuY29tL3hhcC8xLjAvADx4OnhtcG1ldGEgeG1sbnM6eD0nYWRvYmU6bnM6bWV0YS8nPgogICAgICAgIDxyZGY6UkRGIHhtbG5zOnJkZj0naHR0cDovL3d3dy53My5vcmcvMTk5OS8wMi8yMi1yZGYtc3ludGF4LW5zIyc+CgogICAgICAgIDxyZGY6RGVzY3JpcHRpb24gcmRmOmFib3V0PScnCiAgICAgICAgeG1sbnM6ZGM9J2h0dHA6Ly9wdXJsLm9yZy9kYy9lbGVtZW50cy8xLjEvJz4KICAgICAgICA8ZGM6dGl0bGU+CiAgICAgICAgPHJkZjpBbHQ+CiAgICAgICAgPHJkZjpsaSB4bWw6bGFuZz0neC1kZWZhdWx0Jz40IC0gMTwvcmRmOmxpPgogICAgICAgIDwvcmRmOkFsdD4KICAgICAgICA8L2RjOnRpdGxlPgogICAgICAgIDwvcmRmOkRlc2NyaXB0aW9uPgoKICAgICAgICA8cmRmOkRlc2NyaXB0aW9uIHJkZjphYm91dD0nJwogICAgICAgIHhtbG5zOkF0dHJpYj0naHR0cDovL25zLmF0dHJpYnV0aW9uLmNvbS9hZHMvMS4wLyc+CiAgICAgICAgPEF0dHJpYjpBZHM+CiAgICAgICAgPHJkZjpTZXE+CiAgICAgICAgPHJkZjpsaSByZGY6cGFyc2VUeXBlPSdSZXNvdXJjZSc+CiAgICAgICAgPEF0dHJpYjpDcmVhdGVkPjIwMjMtMDUtMDI8L0F0dHJpYjpDcmVhdGVkPgogICAgICAgIDxBdHRyaWI6RXh0SWQ+OTE3ODI2MmQtZWUxOC00YTU2LTg1YTEtNDBmODBiODU1NjhiPC9BdHRyaWI6RXh0SWQ+CiAgICAgICAgPEF0dHJpYjpGYklkPjUyNTI2NTkxNDE3OTU4MDwvQXR0cmliOkZiSWQ+CiAgICAgICAgPEF0dHJpYjpUb3VjaFR5cGU+MjwvQXR0cmliOlRvdWNoVHlwZT4KICAgICAgICA8L3JkZjpsaT4KICAgICAgICA8L3JkZjpTZXE+CiAgICAgICAgPC9BdHRyaWI6QWRzPgogICAgICAgIDwvcmRmOkRlc2NyaXB0aW9uPgoKICAgICAgICA8cmRmOkRlc2NyaXB0aW9uIHJkZjphYm91dD0nJwogICAgICAgIHhtbG5zOnBkZj0naHR0cDovL25zLmFkb2JlLmNvbS9wZGYvMS4zLyc+CiAgICAgICAgPHBkZjpBdXRob3I+TWFyaSBLYXNpbTwvcGRmOkF1dGhvcj4KICAgICAgICA8L3JkZjpEZXNjcmlwdGlvbj4KCiAgICAgICAgPHJkZjpEZXNjcmlwdGlvbiByZGY6YWJvdXQ9JycKICAgICAgICB4bWxuczp4bXA9J2h0dHA6Ly9ucy5hZG9iZS5jb20veGFwLzEuMC8nPgogICAgICAgIDx4bXA6Q3JlYXRvclRvb2w+Q2FudmE8L3htcDpDcmVhdG9yVG9vbD4KICAgICAgICA8L3JkZjpEZXNjcmlwdGlvbj4KICAgICAgICA8L3JkZjpSREY+CiAgICAgICAgPC94OnhtcG1ldGE+9PMEkAAA9AhJREFUeJzsvWeTJEmSpveomrl7kCTFunvo7Sx2ITh8WwCCgwh+OX4A8AU4kSW4w9Ib1jvNiiQL5u5mqvigHlnZ1Umqe7oqq2ZSRaJIZniEG/HX1F59VU3+/VV17jB3x92p1YDXbxdRUlJE5NprzAwzu/JTuXz/W18jQk7p2vfvr6m14n71voR0xzWlVvC3a8tN16gqqt+n/Vze103XvNmWt2n/92nLTWP5/dvycY7lD21/NcP/yLH8QW1RJd1yX38qY/njYcwPGMv3NS9/5LHcW77xN2/YMIyszs6wWvetoOs6Do+PkJSuval+u2O9Wl12mKhyeHxMN+uu/Q53Z7NasdtsLztMU+L4yRNyzlzXDjNjdXbOMAyXHZabzPGTJ6Rr7mt/zdnLV9+rLeMwcn56enmNiDBfLlkcLG8clOvavzw6ZD6f33hf56enlHG8HEdNiaNHj2ja5trvqbV+r7bAd8dSVFksl8yXi+/Vlo9xLK9t/11jacb6/IJ+t7u8rx8ylne15dqxnM04PDr8sxjLH4Ixu82WzXr9ui0/YCzfpi0f4lju7a1BnGk1ujrx31wBv3OJOVbr5ft0Wm1uv8a+643ecY3VSi3l8v+qcvs1HvdVv0db3lf7oy319WdM333zbf0IbXHH/WEs72qLXWnLDxnLu9py3Vi+6f3f2ZaPfCy/97j4dF9XQPz7juXbt+XDG0sAvfMdD/ZgD/ZgD/bB2gOIP9iDPdiDfcT2AOIP9mAP9mAfsT2A+IM92IM92EdsDyD+YA/2YA/2EdsDiD/Ygz3Yg33E9gDiD/ZgD/ZgH7E9gPiDPdiDPdhHbA8g/mAP9mAP9hHbA4g/2IM92IN9xPYA4g/2YA/2YB+xPYD4gz3Ygz3YR2wPIP5gD/ZgD/YR2wOIP9iDPdiDfcT29qVoP3gT9sV+3aeXefwY2f/1YN/T3MEcKlCAfWHMhFCJ36k8dO0PtmmyujtYRawgVoHpgIY7SqQ+2F3mb/xtIB6vP5G+/ShBPOa94w61ONUE9zSNiVBKYruuaALVqP0b/xYQwf40xu6dmLtTHao7xZ3Rne1onI3GhSvmAdfJhXVfOZLCLAtZ4pWm14PdZA5lBKtgBcqIDzsYe2TYMjs9wcxwSZAash9Bp9C2uGaQBG+eKDPh0UOvE4c6iIGXCSMqV10QcyM3G1ob8SqYCyLgFIKYUD62nvyoQDyOY3KsOuNg9LvKOFSGvqFanhbbcAtPXw37fwIB4LlVmjaRE5jpVHDdrz3N48/KHIrDthq9w0lfeD4UXpbCWTGKWfS7Cz71qBjoxRZd7ciqHGflac582jU8aROtwN0H//2ZmDvihowFLk7w1Uvk7BtYPUc2p0gtuBvZnQOLORn9LEhSpF3A8ikcfMIw/5T26RO8m+GpuXRkSjFyox8Z/Pw4JjiIIeKkbKQ0UO0EbIv7yOv9I4DTtE5uPBY/BMgIA2aHiCwQaYGEyMcB6B88iDtg5tRiDENlt6n0u0othk3eOB4T/upF9sZWqdaY6LttDeLFO0QSqgUXw134c8McY/JRHF7uCl/t1nxTKn21S0/82+eKSOxCJ+ZKR8MBT8bFCF/JyL+stixy5mdd4nExOo9JlqbXn425I+5oHZA60G5OmV18TepfIeMW6t4bn05xmS77DmQUoN/A+gRe/I5Gl7A8wJ/9Bfb0P1A8szrZMDto4M9qBnu8pJJyITdbmrZH04gq06k915+KI8IbjlvFGan1FEiozBE9RuRwAvQP2z5oEA+aULg4G6hlZBwNq/6DqawAfJ+muuLeYJZJbpQxUUZHxKcDY3+8dnxo5sDocO7KV668QljtCiOFckvfikNrzjgdTTUfjW2rlwttGStmznZmnBalwTkg8xjjp2Ic82cAMxPVxzjQrF8xf/5rms1L0nCB1nHiu79fL3i422CGti2IIOsXyNk3dGPls/aQwT6j2jL4wz95c9wL7mua5iX56AKkIGJ/xHNr06tgPkBdITSIHuJ+jEjltQfzYdkHC+LuglnGrWEc7B3FIMKDr1XYbQV73rM4bFgsMylff/L3x2xOBCLX5vzWE7832BDe+N0n+YX30jUpNp9mLBeZnVXEodlVZl+t2T2bU7qEuTMCO4QTlOeu/LULB+ZkfB9q/hMzx80Yzy+wL3/D8ou/hd2a5APsz0q8pdlX5/ibU6+MSmoaRDMsjvCnv0D+8E+06+c0F59T1p+zefJXDMc/BT/48Zv2QVicOem+w+wFZieIjshbzd7v9z1QcApuPe6ntLMGszm1NPgHBuQfHIg7EaS0kgPE3/phn54AcURiUN3lCtVy2+cI7tD3lVKMYVc5OG5pO41g6J+AOVDNedEX/u6i58sKPW/vE05MOBXhJ13DyVg4bjKbwUkV2tE5+2zBOMvfQqDwb4QT4L8WYbfq+Y+qHDeJJH9CUD55y3L+nObX/0D56guUFUgDPlJrg0hB9bsxmCAGhOqJfkjB2UpFMPYkX24MZERsxHdr5PRrKGOoWcqOZt1z2K8Zdqf4/G9guQzZ0J9MDzvuI2ZnmH2D+5ZwP97q0isvmdQp3A0LABgiA203ktPAbrdk6Gc/vBnvwD4YEHffc9+JUjrM3jaoEHIhFUO1IKlHdEd4RS1WO8w63NJbfV6tzmY9Uopz/Lilm6ePnlpxh9GNr7aFvz3f8M0w3kqbwOv5nRxySrSidEmZiXCgiZ8eNAjQqrAqla8OjUH8uy7k/h6AtTv/vNnxqlT+5mjBZ7NMI/rR92908A5//nvk1/8ZXb2k0QTzp6AZdqeoKlJXQAmPeyJmHaF4w07mnHHASZkza52lbzmUFXPWZBmnmeswbmH1AtavwMDLGPw7ThrXzF79BleD5n+F409A041j8jGZ+0Ct32D2Ehh4K/djcuKkAL3BlggAKTAD5oI3/lZgLuJoHpkvL0h5pI7pg1kfPwwQnzTd201luwGrd4XAwptJCUQdZCDngqYV6DnVtgiCe4vaAiuH1LLEasPb9Lw7DH3h9JVz9KhltkgfLZfrDr0Zv98M/N35htOx3Oq/KJBFmKnSibAU4bhtOMiZmQp5eh03wYX3K+fLoWBJUL+blunN+bIf2J0a/9Phgl8uWlr9iIHcHYYt/OGfkd/9LbI5A0nIbIEvj+DRT2F9irz4A7buKFXInWK5gaZj0DkrX/LCj/iqX3DeJWaMLGXgqax4aic8lpe0DOGV+4j0F+x3j+MATfP6dqTskOe/wYct/tf/CXn6c0jNxwvk7rj3WH2B2QtgvOP9AAk8XtIrvja4KLAuUCokR2YCB4ocCj4nvJU7gRxEKm23xZuEyJP4rntG83sHcb8C4OcnA2W8DS59khEVmqaS0sRb60BuBlRGzJ1tGVEaoIJvIUHNUPpDak1vxWkFkFfOTnrMWnL2jy4q5+5sq/ObTc8/nG85K+XGJgjQIhwk5VmTmaUIkHWqHOTMIgmZAGnBaTWCvz+dNagI3/QDr4bChRn1jo6qDi+Hwn8+21CBX01A/tGZe1Abn/8X5PN/wLcXEYQUBxvxwyfwyS9gfoxcvML6FUN7yGr+hEJH2ym7vOSEQ058Tl1mlqbU7Ybt2POCGaYL1Bse2wuS9YhVxKdl2CHna+ZyHZDTP8A//5/4f/+/I09/AU37EQK5g/RYPcPljFsB3IEqSM14bScaS/Gt4DuPSZcdZATroa8E2E868cUU2JS7H3JVA1nj9jUuP0Fkxn0C+b2BuLtjbmDCZl25OOsp421+nKNaabs1TXtOzoYwQ0RIuZJSi+gSr06bG6DBnCkQIpj1WNswDh3jkCmFtwLzcTDOT3q62ZQB+pGYE7rvf7zY8U+rLatqtwL4XJRfNJmf5Mw8KXWSYXUqdOq04mQRREOL7JMMsRPhKCnSZFog9SPnZhTk1kC+A6el8A/nWxT4i2X7kUkQHfotvPw1/P7vYbfCzSljoukkvPGz5wH0mxW7mnmefslX/hiRBY07yTNjmrPVjiKZRZM5nGXq0OJlCFmtHXFqR6g/ZdG/ot2+JI0bxGxSUt0wqlaR8+fwL/8X/qv/GfnpX0PTvd8u+qPMSXmkna0whik/+Ma3IluHc8V7QA1pDFyhdyg6TeYEzKA5Aq+RCFQdthKeeLsD7UHegmuXSrWXOAXVn6G64L6A/B5B3FhvVtiYWZ8bpdqU4nATQeVoXtG0L2iaFaotwghipNSR0hKkxRhRl9hK7VPx3RAfsXxB1wyM3ZzdLjMOiVrlTjAvxbGNI5pRHW9+cD4Uc+ir8a+bkX+cAPw2U+BxUn7eJI6SoCKIRlysUSErJImf77cjAhhOVidnWLpyLA2PRfjibMvLRhiIGL9z/SbGgVfjyN+eO40KP20/FhiPrEv9+nPki79Hdiv2FF/TTinzwxpfK2wvsN2aV/ySf6vPOG8POG4bZk2ipgaajIvQ5sS8a5h1iV1WzGeIGW6V9bjAfUm/eMpi+YzZxZc021NS6cErN2Y4eEUunsOv/2+8aZHP/juQj2HH46RcmS8vyLm//Xlzguc+A39ZcBIySwHc5rgrogqacE2BLO0Ee9Vg20N1RFJ48E0PeRMeu9gduFwxOwNA5Bf35pHfG4iLKFnnnG9H3CHnxFgqfm2/OaIFTydoukB1JKlPwfcIsJlvEB/AR/ACVFQSSAp1lxjqPeiIpoGUWsYmMQwt49hSq94K5mYg3oacScsHvTOt7jwfCv+42rK+A8AFaEV5nJQ5wWs3CkkhaaTS79tqFoCsGtVo4tlyZio0WZgnWEiA0SNRzhOcmTG4s7Xw3N8cXANOxsLfnW+ZHc3JH/j6CCBmtKsXtF/+F2R7weXCdtm2oFPYnmJ0jAgvvOG3p8ry08SYO6TN5KZhMWvAQ4M8bxVzZ1cEJ9FkwdSoZM6tZedL5mnBLB0y1+cs+ld09YJUe6SOXLtUuiGbU/j9P8DhM1gcv6de+uGmaszma3IzhNLM5XVppDefOwfZAhcOgyMZpCqQIWVEZVq4PJ7dnJHcxEeJ4S3Bne4cqY43cyQp5C3kEW9sAvObJmbF7Bx4Tko/QeTt4m4/pt0LiEcSj7NdhcZ4vmhAwDfOYCNKuhwwAVIqNO2GZrahTeckHRE5QHQBKEgP3k+1EvpJNypT8+ZRb4IyTYhgdpu8JWuhaaDvj+iHA2rJ4ZlfeptXB0MmBU1D0reUNt2DucPGjH9a9bdSKBA9tBDlJznzaUosFRr1APAUwcZ9H5g7pTqVoBabq/Ecd5I5KkKTlfZ4xoELW4OXpfKyVk5KZV2moOo1QP5iGPmvF/DXbnzQOXLupH7F8vk/k3bnt3jBkT7fi/Kq+YxveML2+ICiHcs8YzbrcFV2FRaqjKUgLVxsRs42hpvw7MkMIbEtABnLjnQNY55xYTNmesDj4TkHdkYua2TcIdclVFhFTr/C//0f4Vd/8w475483ESO3PW23RaUio+EpxXbR9yg+qaAMpBdYKWwr0gtugjcZujZwtxjYgA894gaLBbKcA4qXPr6z1Nh2poxUITb4EQDlwPBZ6MaRmxyigtlLROaoPkHk/e4o7wfELWR8/c5IWehmof7ot2UCcGfwkUYaVIy2O2c2e0XbbFDfIkxqBinAiFNjgIhsOCFNHb7DfZxSZ/eDXwJDPCPqNFKAMyqG8AgndgQAKuk7QG6WEMvoBwrkI87ng/GFD3fKCDuEX+bML5vE4wxzBSV4lOij1x6Q+EStTD8Sf73URXRakH4kzTIzdZIoxzlzUBJ5OyICxSrbyyXyjft25/N+YCHOzwWaa95z/+Zo7Vmc/I5m8zJS5m9wuhxhkBlfdb/g9+ln/Lsfs00d2maqNoym1BLB8maeOD5sWLTKqhcaLRwcNmxH6ItRa3T66IBkZtnx7gA3R0TREZYCyQyZgOk7Nu7gi/8Pjj+DxbN31kN/rKVUmc3XiAYt5SkhprgSlIdHpUdXYFQ4UXgFbHSSDwr0hqSKlxq7HKuITd50KfhmF+BeKlLrFOvaP+kZtMG9RUZHNgWy4dlvAXGAEbNvptori3ffUVfsvYO4Owxj5ex8hxfBqrKVAuKMtVK9oqIoAlpJeUfbPadtB5JMkXkJnaj4CKIILUxFa8LrnjxvvwA/ncBoRkBDVDt09kGekZyMeWuUrMig1K2CyQ1ZhYJZi/sND8s9mhGp9L8z5a67axGeSuKXWfmkERoNKkWGApIjsq+vp/Y+ezVocY+H4EoilKhA10QguTrJC5oSHc7SnBZQ1ctaIdfZzuG3LjxS4Uj8gyt2L2a0mxNmZ79HykitQrp0uq4sTQIjLS/1E/6b/oIX7WN21jAOwvkInIw8PoBFoyRzxi5xMGs4mifaJrE9Mv7tRc+rTWjK2zTFJVTYslcMJnrv0LRgwzGdDkgZkDpODs2b5sjuAvnd38Ov/lME/T4wEzGadkDTFboyyVS1cUboowacDTJY8OAnAmMDtUd2PbIbcenxw1loL3OG1OKtIllBFV/3+NkFlBK8YZshJZwpbb9NYIqPBHdYJCDF6y1A7rhvMXv13uutvHcQt2rsLkZ8nOgJdbbbEQT6OhDwLWTJaO7JsxU5naF6QITKJimQr4mcw0VowqUJj5Ea6bIIIo8Q2WJ+jrCbrp0BA8ULiRah4Ayk5hh1x0wYVLEbF13BTTFr+ZDqKDgwuPA7V9bcrobMLhy58KnCI4Vm710jSHuFJ7FIjNgXvLr8InfoC95lxKecWiEmvCmmoV4pQ2E475mvRpaHIVPcugQ3fkMbVgi/88T/QGH24XQvAGncsnzxb6RhAzhuGWu6ePCtpw6QcsUkceFHfC4/5Q9yRG8NfRXKaGhOnLpjuwjCPZpn5p3SJCEnYdEp29F5epAxh/NdpZpjHi7IbgStQWkVbVDrmLfHjDaQykgat3AtiBMe6dkX6Ff/Co//MlaDD8YcTSPtbD3RntOPRSPuJYdBn9ZXMG6R04q/cFhFiF3GGoHKauHHbcFVoW2C4xYJJUqpuArMZ3CxQcaKm0HbTpr0Ek6h2yRZTPiYoKmhWpHhljZU3E5xfQy8PyXQewXxSE6o7LZyWSfiUrYnTvbM6COZqC6I7NC0mtKVE9R1eN6Swc5xL8QSWcHPwQOoBUP1GehfgTyF+g3m60gAkCZUMBIei+CoVJwNY11jdTah1m0ifsFqwlw/GO24AacoL1wot7xPgLnDocGhVXLVKHca/EkELnP8zKrh1XCLEsAAuKMqSJOQNCmJagQsXQSS0IjjKNWMTozyqGNeCjnWhFuTjQrwtQs/E6X90Wti/HATK3Srb8jbl5c67dwB8yV0Sxh3pNUrrDqDdZzJAb8tB3ytiaGGugeH4k7v4GOUhxiskFTosrIdjYu+8vmrgeNF4vFBZtklzreVoRhijuXEqhqNxM5Gs9OrM5Q5DVHX5ta1b+xpXv6GtPgEmz/6gLTjhkiIFoBwyEbCK74UnzriEpLAM0NejnC6gVkbVMlYkX6EoxYfR9jtYCxQK16dS8/s8TEcLpDHOd43lvDYc4Ja8L6CKuIpNBJFY4FQ4TJt/wZzetxOgE/eXVe9Ye8ZxJ2htyml/s1fCipKRwfimBZUdsAFuf05kmbgh4h2YH/A2QCHU8nJDVxCV8K8I8kSlQ6XBidh3lAcGkmIFJK2AcAmiCdgFYHOdEQvj7E7VMvuQi36oWA4xeFLF/o7IuMp1PV05jRueHGk8Un7HQEjT/764L5qSHXSHrB1eqWpLML+GKWkyMSla44MQSkFBObVOdbE0Vh58RYdNiB87cqx2Hv0Z243rSOzs39HSz/F1xSaBRw+wn/2H5GT5zAWysUFfe5Y2ZxTz6wT9DjLBG2X2VWjE2iVAGaEL1eFl9vKcZdYNIA5F72hg+M4Lk7bJkSdYTSMTNaEpiirfG6C2xMsr8m8vFGkCyA4aVgxu/ia0h3gH4Q37jgj7qdczfn1BmB8HdCsm6BA+gG2Fd+WCewr7hZUijtyMIe+R/oBxs3lLlFSwrsu5q4ZTgQzUUVyiCkmYRuS4vAN8AiamkWQs/uuwurbVjE7xTnifXl47xnEhXG4uZRs0CJOkZGUCjkrTV6g6RGaHuMkvP5bSP3kEUGlBJjECR7xwaop1Cr1S1wSZmtUIodT2QI9IkvcR1wz4oKYoLIip4GkcwqZ20bLHfqdU6uH5O4eHZpYxoSXrrd6uQ3CEmEONO64xf1fqvOLQZswM2QfFd0rtPYT8lJv6HsOJran5hEkEoFZRkRQVVKTmTGCK49GoyEqX9xmBpwhfP+ire/I3MnDmrw7RdwwF8waVJqYfzblsbpGEavasuozwwTIprE//HSZ2QxRC1+GqIufjjtOts4sCxd9ZdEIPzloWA8hydzHIswrozl9sfjMTllkBW0gwUk9QHjEUlryHaXNxEa68z+wefwLqt570nbEUewC9ys1Ua7INUUM91XspPsBOdshwxSk1AaftZAEX8yhyXC4iDk5lkmhUqbA5pQ5Ugq+rdP/44t8GGEckbHgbRy2QU5Ik8I/LCDqeHuVW7yhPQzRnnfRWdfYexvBSK/XiLTf/C6QShIjyQ7sFCvfgC/AD0Aa0E9wWUwBy/O4hg6Vvf41AwtcOoKjGqhepmSViuhykhke4bIl6vLtAswtk7Mwm/WMZXkLLx5WqzHsjJz1XsvWVoQT11vBsUF4ivBIhJlGOn0isPjyLNJmyvAxC1q1elAmUwo+MnnhV9u6PwdyoltEJegX973KDtXMLFWedYlnvdPXcivlY8DaYePKh1BUVdxIw3qqBU6UfpABxjO4ANmtsXFk2A6M2rDSBdumY2uJbXUs7XX3SrXC6WnPxcmOn//ykIM2KmWqBOWyaBUn6tPsqe2hGH11xhryz3lWVISxxglV5Ia2he3BU3blE+brDeI397C4k4YLmu05Nc+5/+M6DPdzbiLa3GvMr3GMdPkKbArsStAbzYg8eYaXAbouwHg34osOlgu8H+L6nGA+j11jLaCCV0eGIQC/VrxpItDpwFjDs28zpFl46bYGLXd649GeA97HWfTvcRkWzG/jmUPCo9qTmzM8fUXKX5N0QxlPwb8OhUn9CrxHGAlB3UQFSIvTRBRb5kCDT5WyW0247xCN3YCmv8KZIX4G9hL3Yfqc8CCbZktOheGOSopuTr8tzJf3WwRnBJ6jNwKjAocIz1R5osIBkN2gBhhgjmcN9cjVZmSmI6q4BHDfK1IuA50+SRDjb8cgKWaRwShR+wAphUVSftpkXrmztopdl7xxpU2vUJ7eY79emhXy6nmciQmX8QOswm6F7XaMo/HN6ojT9hGf6xP+xY84yR1VE2N1ZknoS+VkPbJzZ/7Zkk1S0mg0IiR3nh40zLIiGnO6CSl0sH4Wap2ZCrOsZBXMjM0YXHvbCtbMWC8+4Xj7B7TetkyC1EK7fkG/fMb9Cjr3JWZX3Fg+zT12hquKvBrhZY+/GPGLqXdSgs0W+fkn0VnnF8iihaywWcdZDk0LXYd0bQTrq4aXXsdJeVzwnGHWQG5i+zkW2A24dkjKYC3Sj3jaV+B/LcHlamILDmxRnb110b0/xt4znXL7ii8y0rQnWP49Z/WfOfZzQDHrGIYXGHNUZiiVJIoQR1KZ5KhBjpEpwBpkkiB6T7XthDkdmg5Chug78KkanGTcu0muGFrV3IyMdxSAjxrkdq+UihMHL5z7zaXxM8JjgSeqPE0wN8OSUJh039XBa3DhKTzt2FlMXrfIpUMh08GZbsHXBoDbBODENWNoct2ZqsYJnhNdzvykgRfufDk4Wwt1/nVzvCK8dPjLH7vDvq+5I2OPnH4R3tu3f4nbgHul9wUni6f8v7sn/FoOeK4dqPBJG7LBT7vEelt4smhYPOo4G4xi0WmGM+wKq0bZVZ82Q3FA9fQWqgWwlwK7wZg3iSbFxqhrwns3UYb2gJpaUt3dCh1ihXb9DWrh0NyXRW2jFbeGu23ipb8Z4esdPO/xlUdSTpOCQmkyMp8hx4f40RL78jmcrdhna+IG44CXOCGJWvF+hFrjQa4VaUNT7v2It23kS2iccxoDkWFswXaIOd7sPzuoyPj/1OuTXLKW/M4PkXi3IP6te1dCm3p9g0QM0RH0jLX9jkU6Y5kDlN23oRH1FYUA1iQzVBpcNM7KFJlkyz37YIh7T7UNfe3JOqfWs1A8+G5q+j7VvpvCfbHCikgsxjvuPFHIqlFGp2mucSvfbOoeGG/tswBQ90tIvP37EVaTUPKmd2cX5qosVJhjcYhxkokLj/1KCqSIZ2lPmQiQJLzxvThl/0exKaV5AqK99NAdqMEfCHiTwA0jDqteJuVoSHwxFkyuB/BoF6w89lt3covfWT3vfmiuvkNuuQ/c8O0KHbc33EnI/7bMeMWSL3TB1yUzImQX1qXyv/3ygKeLzO+f76ju/ObljqE44qBtomalijLsKlmNTmP8xxrArQLb4gzVEOBRl8hZwytvhC4bPhpVhNrMqe0BjCtulBqyD3BuSOOOOnsL0uqNeflWduWamPrXdbLjvuFmL3x67QzOR+S0x9cValB/Xkbk+QnsNvDkCI4OkJSQtoFFF8H67RCKIjN8O8B2jBLWZkGx7KmaMYVK5UCQpoHcIl0TA1AL0IJ3QIYmIdrEffsI/u1FKKqtjpfPx7u0dwbiQgS2cs6Yx2EPt1ITgMqIyI7HqZBVaFJG3RlsTZs6FDAvjDjmu5D4obisSLIk6Rw0oTJpPhkxEkmWrMuORjY0EtcKHciTiTvP066oBkcuNp3oczcYuEMZK+7fPjzisv1NcznxVeTOk4Jyyt/a3QbFcTOv5sBGFLvpUFhiW94CLUY2uww6NtOOcTRos5DFEZu2rtPMc9Vv1VqW/R97lQoTp27hxQvgQ416zaqgUE2oJlAKxRPiTr0r4EDkWPQaBaJuNBFyztFP062lfPtc24+LTpk60R837BLNYH16c5KSgyNsZcaJdbzQltJkmibzbN7ys8OGZ4vEr551LFrl//iXM/6wq9g40UlDhUZpm8SyCnMVdhKlH1SEWRJGcy7GKPCbVCKRa5qeWR2xwliMKlBywpp5zJlbQBxAvNKWLWNKsSDfYprSt+fyHVvPGIdMY69LP6R83QEVNp3ScxPS+VRp0GA1Bg+OBkgDbMfI6lwe4p9/PTkiFf7xvyHrTahPjg/hkyd4k5HVFsoQyWqzBleJHZYZUXhliuSn/Pq5sxKLRY0jv6VkpBFEH+Fe8HSKfyeDO0D87jDoH2/vzhOXkOl4ErI2l174ay3Ed82kIjLQSI8iqM9ImplREQrmTgJyirP2DIuSthhJ5jgtLp9A+glWX1Lq57grTsssdzQyAwrFtmRxYI07iHThkXsFBtx73N5uC+TulPGaM0AFNGfa2ey1Vy1CSjd3uYiQ2xbN+Vs/03TzDsYQeiLb7CZTQD2wWN2inGwjJBEcYzBhIOiY4GfrFeCcOO03Hz4RtGuwMQrty+S9u3scqFItOMf8+nPMnLHCttR4iBI3tmv6ZgZN3HZEn4jQzLpvlQnOTb51/VVVmq771rjkprk+OG0VWZ9yW5TbUAYyF5bYesJFyEnZuPPNtvBiVTieFc63hSYrnx11rIbKxWBsq9EiTGI2evP9JoZGArQTwqyBYSpANpqzLRb8uUdexFCd0eDI6rTg3A0dgtPagLQN6aZFbOqflBuazr/1sxjzGy+iaduoIDiZ6nXn1tqU/XybmsaRXUF6AxLMMq5NgPtFCeA9OY+sy22BoUfaGX6xe/25XYMsZvj5RXjcSCQCdc1U0S2yOYN/r6FWSRJ6/jwpr/oeWeZIwXdjEpHHd3z38ZicQcPs3QaO3zEnbvTjlqwtbvNLzWt4LwHmlxIfJpED8TtHMM8oM1QOMd+gKjgh7ULGKZSnQIuL4fQEHTIDWYIcIihJG4SKygm4o8ww8pSdNRBZBSBSY/vsSinpTiplb7XuaYRvj2QMpFz5/1ts80W+c82elr7OHGfrt0H4FBi7qkLx8LRFhaZVtMZicOlc1zR5Jq858ak8StyTBQBYtZj4LfH+KYjpMn0hFnUvpo4M1YmzcqhZ7+SqnEjFv2sY3qRD3uzDN959hfN/i/e7wbC+2asVQu0xZVXu6SavldQkkir/z1cbXmwqSYWTXeH5rlIscKPLmSRQRdh5bMJmwCwLj7vEYausi7Mxp0oIarNCqUY/OjsFF6G4UKqhvkNrfzcPOLVNxok7v2NuylRLnisL3217VUGunctv3MC3pMG3WjtJBxctbAvsKqz6APGnEh+RGvxiC2Mf72/bcCLGAl+fQJuQ7RABzKMOPnkCXQtnF/DiNAL8++B+GWEQSBXfV0Gs/bQrtSAh/TxiSXsl0DVsqug+NP3uePF3CuIiicX8kPV2hVqLSKZJiVqNYoV89etdcG8YraPRDmFL9R1iDS6ZwTtmqUWlY1+392q1wujoBpELvPwTgpIltnyRw7gFH8Iz9wxkRBten1czIl4xE8bxiHIH/XPV7ti1vlML7+3WzSi9OyuMrQuHhGdDDQ5VNE3ytqDvovay46MgKeSC5D3t4BMFWANJzC49VPHYleDTw5oUYeJ9CaepN3hRjbUZdo33ct29D5eFtu7J3GDY3DrIitHSc2AjLZVdcS5WA37gVHeapPzmIrbWh22DewTQ88QTV8K7NnOMCGwustImZVvhvBg7iy5vk9AJNFMAujgIylgLWgYOOSWPbxHMgXBoyvc5LvvHNufSk73tXSpxoMNRhz7+CfbiHP71q2jjz5fQKZ4USHDYgbVTrEsiq2pPyewGGCt0GT9YokdL5HCJbXeT8xHXCBJg7h7cd5RdjUz6PNUZp+I2JRuZ4emaJU08QPzd4TfwHtQpWRPL2SFliKOQcpuoRaCPh/5bHnntGMsRvR4jukZ8oNiKJJUmCSIJkQ5oQZYTmAPswNfgAyCIlKnKnkQmFxVhkhHKDNUOocHpcPEIevgFbjtK/YxhXE71xe9uX5SnvT+geZvHoBfnhQtPDI4nTbKYUUdhUCGpMkuCpgB1aQRrDfqK72un7L2qiQ/fFzjce3COR9bbfpuNTFlxQa3U0ThDOC17EH/Ltr37uNDdVscbQTG6wziULT/XNU/7BefbhKVEb0bdjiQEDlrmOSp0/myeOOgS7s5qqJwORlLI04EcUXXVOesrOwsapVE4bpVlVrokdEkiHufGRR9S17/yC47lFalsuLFE7pvmd4Pou7W7ZsI072YKHfjZKXKxjmDiDNwniiUnQOHJ0TRfNZJ89qn3SabUeo+CWqXir87gfIWsNkGrzjscDX35fi6j+PoC0RF5Gjv+8Fg0ari7xwJyw05G5DYy8MexdwrijlEtqhKmpLSHGU3KZj2iWRnGITy1y/q7Ga8H9PYMlXPEz0gMoEqmRplamQIaMk5MYnrNZbMjzmcKjtsAcyNJnAaucghyOH2Gc3mAxB7EHZwGJH+v5J379MQhJGq3/x7W4pw4PLGobZINshjVBbNwxSWlqJuSFaqG2qGGh6juAUYi+AQ0AJeRm6yvNeTIa9Dz8MbNI2ysKlOJs7eDjnsH8L0XdoupGHPd8lQu+A+y5Hx+yIlmKlDHOALs6WHHURMLqLkzlqiYZ+YMpbIxmCVlkeI97lBxzAK/ns4zj2cpCuxZlKjdVWcslYutMTdnMTMalykO9M4dwPdjAp4F6QDdwvMTeNnDeQl6RBLoDJ/PggucNbDpL8tC+GjIatqZdE0ktBmw3sJ6i1cLIM4dHB5MFROJbNBaI2tz2yOHincNtHoZRHe7wFO5M8D7ru2dgHicnxkulEooSHJSunl83W4TmVKJdNnK6hVFUV9QyhN6XqCs0VRBl1QJWaBM6fBRhGgH0oHMpmL4PuHHVNiKGl4njshUrlZagovr4TIqHim46CzeqyOiHSK3n/azt/s+8Sq9xVQZcU4RzoHFRL8khRmOS43Sv9OYXSKnCtkcSxKlCQCmMOObNYBeg7LELmifwUkEtHJWuhFmDq1ESdW3sTtEE+/eJsrp1rcAjYw81hX/QTd8UWasvKG4YCp0XaZToZXYwQwGtRjzLCyaxBOEZqqjIgKDX2byowIHWThohC5L6MeLcd5XttWoZlh1DhYN3szZ9gvoOw7SLmR0H7y9xQCL4O0E5Hlkf8CL76JQFbMWefqTKbuyhc0QQUlRWM5wq8huiPldDIaJw+496JbFDOZtJA3Vig8DcrCAYYyHpOvwWYeUBi8OeY4oWNpwezm3t2O1/lh7Z574MO7Y9VusOllbylAxK+g0ETUJxaNCnk4SuUqhkQHVgZGG7KFpDinPOY5O6cT7YMEeuBfEMW0HQNRaCNhqgEOYPH0nhZzJK0FCJKKSR4qFgEzSHpF1UC1vUX5JZIq6v5NevNsiIsCdnq0SypNmCpR6dQpKDgo8gjrVqH1BZk3wg+6IGakYtFd2J3vZ2BQEili1TLy4vY6kEkE3FyG50ElF6yRjvON+32zbfZqnSblyww1Hc4W+NmyGBqlgqeJtolXloMlxEMpUj8YBpsNklllYNEqT4/MNGKqTBBZNopl26ubO2a4yVKeY05uzLc4iCZ8+7vjZoZKKMNYFh13UAnqrfYzedw+/zXcHp+3rAfoaVEiNUrGoXtax1198xj6/wb85CUpEJbI0p2JWXmOxZDnDP5khsy6OqdoNsF5f7iqxin76CFBYzvE64NstzAre9OHK+M2HglzeueukgPvje+ome2cg3jUzxJVhGKYzLmGzHkmNTglShvoEAgiNZCz3SPuSJr1EWaFU8ITqI8TCE3fRyQu3KdFnL78TApSDI3PitKD95wc/vq8usl8AatAp0oHXiUsfosSndqi02AfuiQvQ6e0gLsAS5eeqPFVnDlQXRgMVj0SfaQ8vY4lJDEg1GOIgXuniXMIofLU/+WeKO0yA785l+v3e3IXBYrFu3FgaLFzYofQ3qtv39y1097hAxk0otItpkG+q7SFc2CG/7Z/xb37Ai9RSJHT4izZz1CUWbUgPR3MUoUvQapT7BaG5rNsupBx8d2WisBzWo1Et+nv0SP6pxWhV6VR4suxghLOzBQepoyOjNt7OjYtgueP+QPwtl2kDORvhmx1c1OmII0JS2CSkzcjBAjk6CAfjfAUH85irdfLW1XCf6uX7pEJpMvLkCJl32L9/PVErIF2LdC16uES6lvriBM578AFpKp4NnxEnDCW5+fYnautd2zsB8b3HphrsZ7WRWjVKtzoUMwZGUhAocQ2QtUAeyDrSeI+5UrzD/BC3L0k6oj4HybgPk1e+L0PbTh63XrIC+Ij4OS4JZGqqK1HsdJ9C3eAMiG8D8GVB0hVd9wrxg+kQ5dsnWbolsPGuTUVYaHDUNwGiAociHIkwSwEijpNKHCa930m4xNYUiP38+Q5/uUZ+9RRpUhx3tfdIr3DeTAmd4lcrVAbgVI98lmROI8JTBZOYFy8r7PxmRl+B+VX+/T5MFGYHt67UhnJuB3w5LniZZ6xzg0y1TpIINtEobRJUoa/OusKIsVA4bJVFq+yKs9oVeodNDVpykQPgS3VW28KYU2CYw1FOmDsv14XuZU8SQzmiW/yCboSuf4XUW8qiieKXC9R9WIgV7gZxh/OCrCrigqeMNFFKVsxhO0A/4ifnMBb8q5cwjEjT4Kp41ssDMNxBhhFZb4M6UWDWxan3ux2yHWE76csfHUZ5ifUOUhPO4HqAxmEC89trizPlm7xbbHgvtVNkCmw6UEok6LgbG+tZ6mJSPThGqFGW7QHqG0oZUD3G6ajueN2StEF1icgCfBtgTkh+wuUvRKftQT1AKSjzPsCaCtLhskRYTNcrjmFeEE7JqcGaZ4zj7QVsREJrfU8YjgJHSYM7vmE+Tb3BHAspIRJV9WYJ7dqQXVnQUCLhu4ko3ibkl4/wBHU31ZnYL1hy5Qv3HjjT6rn//RTEzCgURwZnGZFszi2ORry1bQIHes+8eEr4wdNbeXFH2IwNL/vMSZspqhEIlhTHOlbnYjAWTXRfVgkgHw1TYdnBZ4cNpzvjm3VhN1RSDmfEHHbVOR+d0xoU5FKFZ13i05lGxchaebkp9KUy7jIye8YTPaHl9NamuSg2Pwqv9N5MUZ1jdqUM7ZtmHprw9Ri0qYbLIsWipKxu8V9/AeebST0ioUjpx3A+ZKptv5fL5hyHTbjBxTo897MNshtDPTib4V2LrXf4+Sam9WYHm3UI+bWFQ25FT3fwmq8/O+FHtncO4vsUb8+CSJQnFYSGJoKe0wPqHlrZvq7iRJj2L0NZkg8j80lAiOw9Z4bbGmFAZUr4EZnkUiMR6ksTrz2BjfeI74jCwJmolzIPoPcpY8vHKflgmNQxr3C/vZykCDTN/YF4EjhOMgU3r38IfPojmyEmSLWgoVKUQbUU3rXOGkQFK5U6VryLswd1rxcXee14yP4P36+Q3/7SKxlKKcll7pDitAJajXKLBlyYRuje6ZQEy+NIw77JHHw0Nj0MB9ET6rEQCuFRD9UZp4B7lEWO2JBryGv352yUKb7QCmz7QtXMeXUuqjFvE6MZR43ypFPaFFSWiWNmFDM2kviqb7gw4bjecZh3arD50T1H5hVhAVxwY5DQw9v2zYjMEl4l6n6PEnw4Fin2mx66DG0zJasBeDgY45XPbhs8hXMnVsMLH0dYj1jvyKcaB0vMZ7DdgqSgTsYxTmg7r/BM8P3569eaUC3z7gWG780TnyZpEmyqgqfyugZ3ZHJCcaWvhe24Yt48pev+R6qvSZJo0iMkPQY5xspvcf+KSBYHkQb3/dLohF68EuWT4DIQKhD5cHt6pUfsDN/XICf4wdB2DqhecJeONWUlN/dXT1yBAw3ueFdvBsU6afJj0yGXx1WZOZ4z2iRSm2IshhqHRXgksrhMOv6rmZHX1RmY/toDl5XIMmQCKMnESUoV2v3Kcku7Hmcl39fquDcRZLbE2yWyu7hWbiDupHHAx4oXi6JfWWmBwyy4Qs5xBNu6GBejYTbt/dw52wq/OxV+vyp8vSsUdzqLZ0X7ygg0KvzFQeZsV5mnCH5uByOLs2wmB9Mi+3ZThJXNpujQ9RZe+DHezO6NCgzTECbccXCfeIFdH7RGakMu2Cm+WALgbRNFgIYR1rtJfiUhOeyamJTVoB+jlIImLgu2WZRPZp6RZzNYdmCOHi3xJlG/eRXxojZPNc1HpM/4wS01jVwoY/NWseU/1t5bKVoRyI1TruRNyMTNFi+RaJIaRhZsbMVhfcGy/V9o5GcIFcmf4naG1C9DV65PCG5bo5TsVDUqPMWRy+pi+16UBpfZFALV6WCJSAByMnFQRNASwWX57UGhqU1tp3cWD3rX1ojwJCkX1a59DJyIBdVLuoMo35l16jC/KihBcgSaQ7FSg3fUKx82US6XAnmX1zgg+9/He6I/nSyOZ6EOAVy3UIlAZDM+y/K69Mp9mUicln78U1i9vIFjdjof6foCm5HaZrRRmkY5SMqeFj3MwkFOLLMymNOq0GkMw/P1yNmusN2OeFakDc3+IiceKRw2yi8OM51EHZvtGKVsmzwdDe6wm3Ij1AxHb/cCNVMPf3L7DuM9WKTmzwkoGm9+owoMA0gPBwnmLd520M2gLxHLOUgxX4cSgJ00Ap9JoiQyRPS4EtTgfnvY5gDxxkOJ4iDbHb6KTF1pm+DNS7nElDulx66U8fZS1j+Wvb8RFMjNRKm88QDnCTCStjTNM3JzjOQloktyfgxeGcZ/p5SLiWE9JskSYbOHH8QHIu2lBT0kWGAH3xKlZxNx6ENGmBF+0GtP25nqjzMGrUKH2cGt0WVRoZvn+3VkCMD7NAt/GCO7+E3bFx4YqmDq04F29TI1Of3/5L3pk2XXdeX32+ecO74h56zMGlETUAWwME/ESIjgBLYoUmIrSLVa6o6Q5VC3w+HwJzv81f4TbEc7HLJlWTNbosgWREKgSIAAQWIiQABEoYCqAlCFGnMe3nDvPef4w7kvK2vCQBE10DsiK7MyX753875z991n7bXX0gpvXZCGdRbRCu8CfUq0Yi3DD8RVanaKdxIuFnzYkqua8gVgXcj73iNBNRwIVLm+8yx5x/tpjMUijBl12T1nALw22KENmBOvn1csDpCkSFU0qj5qtaDIDF4JS8oRW8+wUSTWE5eOyAiRETr1ubfes1Q6Kh8S9chIGkSSdRipT5RwzXCMdZ6RTFMPkXNkqaDynp4LTLd+jZ0r62hQ0PTLqPfZRXoTY4c2BEerj+/UfYgQREKfy7mgfXRWDChmmQmruNMJO8PMI9oESmtqGOg7SBQFSKV2HJGqCrxwEcgSSBO8McHNZ7UXkrlIcPTJghmEdIqAk/cLfKTxlYNeHynKWqpJIHk/3qAAGc5dGvrmJa3EtQ7byqI4k2kGs3vWO3pVQcev0LfHqWzEtGrQUE0EUConMpuBCu974DsEWkSPUGPausoWkCZegomy0AUp6i64IahnW7xfQXwfhwoCNr6P9xXO9wHB+5yyHIb3MbIwWoVK/DJncS0wZhS5UhT2fLbHoL3rJWDbYRhKkMohUuFcELISHWAWLz5UMVJ31soK+hXSSOrv10+sNKLC/9c7/gx44DLAyyWoJbrKU3pYtbDAxUW7FDCkVcDDL3clDiAKl7XwOuZCY0pVJdg+iBa0dchyQddDP4MKYSXWDBtFpTwNIEkUuQT8O1DHFdp5skgxnmkasaLfc1SEUfzxhmGiZcB7WonizZk+K4Wn8FBaR98HXZqqsoz5kgl6DNsFLua46kXh8hFcPnyZ8fBBKETawCLnJ3EfHOwrF3Yo3X7tyFMFOmxV4bMMiWN8DYv4OEZsaNZ7r9fcpbzR0G4gaRpc7rNuuEnENXlhoQPzyzXW5/Azi5DWjdSybuznAg2FD/JNFwlT20VeAiyFS+zsIwrSXFNV1XnKng5Pjw65KWhHKVE0xMnVdxh1jlh5lH8Pse8FGpWKgSZeslo/xTIYzAmNzgrcoMr2iASoJFTZBZ4CfIFD6gQeyhnrCXrXxDg7jPMX59CKgrShMfryNTXXjgXIlbA5Vqz2HMU5aydQDCHTocmMtbiqhklqHXCvNV7XioOVDXK1UPNgTe1wMsDFJVwghMbc2gmoy1I/wBoHfQgfGtqVD9aISxJohucK6Q8iEpg0iuhKSOAQbkJpC9veiPRXEXe2w4+1iqXVmE6SQJ4QlRbmulQNR6/hsc7QSQyzHnIFox6GY137a4bCw/kzvqSdwtF3HqWEpgl88+E8qGquFAWRUkRamCk81llSHezdcu8Ylx4bZBktF1dF81FKObETFyWXGQ8PIaJQqoVzOX7NN3dd9C0s9vFZFvRQlleDJkpaBAy8X0Ge1dooGmlmwdU+UpDW0F9ZBTeeflkPCtUVuA4u91IFCQ7JJOSDuvoOBie1UHBM+HkrGKVc+PQGeMirNsIH99R+GXFpk7gIcaJQOnTm1/0k8Mm9xRN0kn11gn5ZsqI0fTvDaDqBcQVGVsAKnmWMHiZWSVDXY1DVU4/UzwWIRVIgq/HBunlSa4w7HyiFOI0nxnqhcBrvMqjaOK9quOb8ha61ECdXSKVIwMW3RJojhaM8pxq3PmB4ZkDCQYUtYuUCnu3CWD2FDdtTAVQt0jHQjFYqLGYtYXpu0BDyfs3FJ9wzPVgXLhQZvF6g2RXW0xehWnNoPv/vEKChFNOR4nJv9NdCBG8Sqskd6MWjocG5LoxxOBR9ryCNiGMDy32kU+Csx9kYp4Jc7LL3lLX+vNYgNuxEdc2kWKksS4Vj1QaOeOUgTxTHF0oK63lnrmCuW9Gv3wNlPbkSEu/Iyz6Z7RLp3sUTuChcPoodnq6nNa+EECBCqVGsXYX1brFCoAMWFsTgh+tG7GIHOj2wjnC/8qFidg6KPgy1Iaoh1cFsgxKk0w1sFJEwrj8wt1ASmhMmCQm+16/nBnWY6JQKMRUSebwa0FIutD41So3i3MfvrTmIS5zEwUSavAErS8VaNe7x9HyfZd/Bl5a2XqKpKoajCO9OoexJekWPxOQUZRfnLZHqYJTFubjWZ9F1gzMIYnm/TKi8K8RXoVKXJGzrfYlzDutdPT0KFRXeR/SdwrsEY2PsRUxOQ0MzJPIrJc8ogYYStsaK/eurcQ9UnhVdt40Czy8sWFu3Hz0B2+6VwS9TCd7UeLj1dQIPzV5tFA6Pq0ICD2JBdV/Be3zlQoUvgASNbec8hQsYb1VDOuVFlB9jgW2xpnGlQCl1eKVxzTHs8Gbk9FtBwY56TWvHUNalfbqLKVrYPEYPpRSVo1JCKVAVFluLiFUIFMLywPxYC7kJQ03dyjNXWIrSYSrHSm7pVJa5bsRqUWFEsVxYlgpLaS2xc/S7JakrKLs9tHSJsh6x6q0VN2dFnGGnr8PHjSuiCj8TCmgSRiFXOUNIEHxqYDRDTizgVYQfaQVDh349EyIeKXrh68Em0CmIBsT8UHGLCPQLpBsEsnxZBSglrZNyVd88PDVzxUHRq81NashVpfjIBE3y806f1Cqp7Y/dCGJ9XPJbsdJC3ozo9SxFz+LxdHyXI+VJhvQwhXPMFx0kXiHXFs0KkarQ/hTGNyllMCzkqVwfJwWmpiuKGPAK5yrwVb2R6dVUwy5IA+eFyvUCjIJgHZQ2okIonKLyEcY1cGUT8Watul8f2kAUX1lJBkI1vjXSnCgcM/bMSLvXikIrVoA2NSllgIIMrnPn8P0q8JaVgFV4XUOmLky2SeRxdRUp9YDQWpoYQKtVLfJfD3ChQluz8p6+F0rv6TtHyflJXAHDSrE50kRX2smlhiEmd6GXTiCdBQYnT2nPyFCPHYvLHF1pMKMFiU1wC9Ky1m+wInitUEaxZD1LrkJEMJUQlwG+qpyjrBz9hS44T9cI3RVYqK8VZz0LRUWnCswhrMPYkqLoktk+Y+kK7WoRHVXnJxll8COb8WNbLzsr5ULhvcG5NqJ6iKyrxo2C6SYcXgiTllGtWqiDQmRYyLX8htZ4p2C1D6oIsKCutfG9DwJWNYdcpMJHBfSLtWaolDW8am2A+5yvxYUqaBpoaUjrtX3+Ca6x8Fol9RLFZXkno0hotiIWK0en6LFol9ioJ8hVSsclLNg+M8V75HqBloZEYpyr6BddCl/h8STKIzaMnZcotFKB00zQowhKigAWTUmY3vSEMXuHr0WcCmvoOE3pM3pVgvghcjuBuAy5ADNFKUhSCdfAFZZnlEBDC7tSw2q3ZLWuiI0SsljRV5qut+TOBtbHQPjeuQCveA++djSyNlQ1A2543YXzOrj8iA3JPDQ5BZRHNHX150FCkrZe6NZiTaves+gdi95TXGCR50rYnRkaF7JivALCi8I2xygndhMfewUpQ5NTgEZesHt0lvnZhJ8twMlGhk8jlNfEeBCL1YI1Gk9EJYGpo0XwRtc8fsLQTlHhI0FFhq539Dt9ljykscZZR6df4R1EpUXbinbVo1X22GpW2CynaagOWtw5y1PweRu23ghpI9xsL4XE3oeOkIidy9ESg6xz/NECYxlc04JDi9DtBEpw3WEXK2FSc/AXKxUan/Uu0ttaXtafcZ8K+ikaKnOm8laALcMuy1Z4bHCw1w5JFUzE+LbGD8SKzjl+kRxRozWJojr3AR9bXJYkLkrIGoZ+z9KvNBMyhiZsdxq0wW9jqYo5Ub6LJB2UAUFROkfPBaaDaBc0xiW4xHjnwXoqPJUNrj/KWzSeuBZmF+kjqgIvtS6LYtUaVm1GaYfwPqHhJ1CugSI6730KcFCA2q7EJAOhGt+URiygeKvTp/RBKyVWikYWc6rbp1lZGt6TmaDtIUqQSJ3hxksYUPEQXEtqqQRB1i32WgzfqJC4PWH6jfqaIEwT9qxn2QbvyEU8i96zUHOE1kemFNvzmOlEYa6o5HJ2eBNTTu5Ar5xGLxwNF7yA1o4N48vcIccZWSp4pTPEQWmz6FOcBNaKI9jSeWuxKohcRYNtvkiAqGyJtQ7nHKb0oRi0HmU01tnA6HQOVTqibsmo7TLlOgypHjuzWYaiFWJdnA+lJDls/gQMbyDwlT5gmvOyRHD3snYELRUiNSdfBJ9FcO0EJAY5tows22DWVYU+lwxcpnwEuqrnFATxUc0wc0hV1RPZNY9eS6DS9kH5EqlNp4NrjwXtkUwHRspIjB9OAp3xAibRIglKbSCY1lza5HDZ9lRaC+3hGO893U61NjeiUbT8EKlPafgxYruI12+j1TKx8mipKH2J9Y6urVDiKZxfU8SzIhQ22EXk4kkVODEhWfkS7yoqH1F4Q9/l9Komzo9jfJvMDxH7Boa4rsLPfjOMgTSTK4OV9T6RacXeVsxC5ZjpFIhyLJQVrzlPZcM0ZhPY7mBaQSwqmMHC2sSP1DdGbwOEEqrydeMjpqZWrglhhYvIS/DrLDz0HKy6IFG2jGfWe2Y5vwpPlLA9S7i+lZJUJe6DxsUvZ4jCpS36W28m8Ra9cAxxVeiTRJZNE4uMDnXY2Zvl1WoLL8g48xLjdJDjLStH0SmxZgBbOYrKhp2iBd/r42qOvjcKZQKgV1aO0oO3jkZhGSkLJqsuW+Iem9MuU8kio+kKuemh5BxGhInx49th4x6IkwAZXKERpFubYC1azyK1/y1K4UcyyCPYOgxLJfJeB5kp8KULsEpRQq8CF3be3mtwRf0cAmWJlEUQvVIR3nhEh/Mu/RIRG3aQ2kMiMBzBqIGxHD+UQCPGR+Y8MR+RGKWmUKod5CwucVy2JD4QjmoPJzgL/V4VtukIgiaWjIgEXAtxCiczeFnBSw+hj3UVlXeUXtN3YCnxylEg9CwoF+G1DwMPSlH5cP+tnFD4iMoN490Uqd+A8RnaxxiiUIEP/PnWhYmENA9iaFdqFT4IAUYiza2tjBeW+5wW6FuHrlkj1nsWlNBzQoQwpoLCoII1Sdo1lkkVKnNRvjaqriGWAbVQwtStSPh+BSw54ZQLidsTPJeWPMzjz8PCjQgbk5h9QxlDRtG37zO1d6WEUrjmOG777ei3fgRLp8AHpx5jHE3dJ0tK8goaBbxZDjHnIubRdIGkBArqoR5FoTWFr6j6Ht8vwFtUosPUZi2gZJ1HVY68rNhuO9wcL7JtbJGGKclNQWr6pLpAiTt7fSqDH5rCb78ZyZpccRjgBcJ7hbNtwKL1fMDHw1Y6ON0nBoZc8NM82oH5XjBP7hJ6N/0qwEUuMLGUWMRXSNnH9fuBVhgR+hWufm4fvDN9HJK33z4EE3nAygevac6vwAOrZgKlRmoq86U/v5e1uzFI5EMjMQtznn7fnmlKU8tUugzKjeByUCsgXTwdKl/RtRVdqygBURWKCq9BKY91JfNVSeEdibIIDo/GuQT8KInfTMNNYkhZ8/j0csFGZhQrmm0T7uhX/jUQBquUMJVF3DjV5rnlLgulpRrwtkWwAjPeccAJ2xCGBGL8mjCw8wQLNxW8N3X9gfdUrk4qa9hi2JwXXph38LbzHK8hk4EiRnEBCEUBE3HELUM5Q5EOolFXwwkeNNCGp/A77oA3njqr0Sk1vDKqltinjjBuusyWDWaqiFlrKBz4rgNn8BLRiwz9yGC9womiYy1Fr8LZ0IPAhxtw05dc61e4tTXDNUNzpElVs+NcnbzPGbRXOiTw3Z9E2hN1D+RynK+PGoL3GmeHEXFotQiDRuegRyMaP5KGxmUzCgqHnQLplUGadqkiiDg6vPKBMqvjMN5sK1AVA58BCIvdNwxM5/jto/jJPPDMYc385MIJfAylJhC5dJTCc+Oyt6iVEuJU0x6OWZjrUxbnkuMV2BxxMV5GUFJhpEKwKF8S+xJLiTKeNDakcYrzjqXeLCvlMr2qx2JZULqKUT1OQ8bJ/BgpTbSP3jdpiEAUa9rDCXEC/X4V+NFXQQhglGJTI8GJ8NOlDnNlddaoewkc9Y4lKwyLkMkA7g5LexIYV4okMphUo+LQ9JR+BX1LVVmcs/StZcloTns44T1zwlrFvZ4Asz40MBJH3NTOGIsD3HW1nNsQAiaGiW3Q7+DffgHpLq7BSwJosYyYRRqqw2ad0HcR/dTQLw1Fy7CqxlhVhjJJiNo5eSuj26t49+Qqs4tdOt0+qrNKq7/CeK7Z0VxhW3OOkbxDHNm1w1j36UwoE24yu+9BRqZDErvou3ElRsDHvRtHTIz3M5ylrRJOMH44hrzmkQ9mH8oKv+TpH0tR1mOSMAAkSYxfWcGfPIVf7uCKCosguRBNatgyBJMNfDMOzdT33XIblBpD6w2IvK+c4ccelz2JQ0jkaW4Y8sLSfI+iPHfaTMAblDf4ulo0eBIJWsriLVmakKdJ8PEUTyeaYnZ1gePFDO8tn8Sj2dG4jqZuomrq4Acl8DgJCTzNdRhNv8pCJLjHbG3EGCX8dLHDTBlU8gZR4pnHs+g5S5TKeKGHkFnQRmOyCJLazdMEquBqv8Nir8OCeI5lTZaVopCzx+kvlDIiEcbjiFuHcqZSg77sRpr/gogT2LwXHyVw6FlkZX5tEjXkGUeq+iSqCFWfB58Klogih2okRUZizNAwptHAWccn5iMW3uvTefc46u2XaTZ6tKY20Mwdsbah4n6fU+ZNAiObYNddyMiGMNRzpWOAFwtJ0HoyVObu1Dp3Ls4k8lRDUvOyffjHjWq66RRKUtJWgmrGmFjjyopidpH+qUWWFnp0rWd0us/wdIE0LwaZnB3eG2D4sjUyz40rIolDoApmucI5w8pSQVlyjot8TSdad8K8CzrKi2WXdgFUQlVZKqmYL5Y41DnFGwsnWOz22ZxMEPsc4z9426O0kCSa9khMnATnm6uqSFwXIhCJYlMWk2jFz5Y6HO+V9NyZqU7H+cPBFZ5ZLEtVSWIV2krduPR0fY9Zu8RssUSnrFiMcuYJzKD3C0Vouk4nMfvaGeNxSOBXaXqpQyBOkeld+CSDgy8gy6eg7J6pyiU0itdkCACNxZQnsCsFNDy6ElTRg6pPunqY4bnncCefx5dz6LEt6LyJmOj9k3ft1OMndiA7bkWaoxdkUlxNEdouMSLjADg3Uydyd86DzvotfKzoZ4qqiPE6fGitKDHM54YTQw3ma3ew1tQsvr2K6A+4yL3CY3C2jfejRNHlrcAHccUkcSRQD6NYyJqCKTxFL8BXF0ugIkKB48XOYZa6K+SrgiQVK76Ls46qEHoVGEloqhzN+YyTs55PQWQUjVZE2jC12cPlf5PWR11orKXLAZ1vsKSFYNrrzuSLGloRJhPDXSMNDq/0ObDaY7myFxX/9AIrYnmvWmB1ZY4MTVR4rFRY6ymsoxSHE0VpovdVJIQwiTlqNNe3cjZmMblRKLnaE3gdEqAVGd+Kz4fh1NvI0Vfxq7OIvTATRPDo7hy8+QOINWp4FGV0SP5Vgeqs4IplfGSQvI3SF+ImnwlvElw+Qjm9B9mwk6g1VEMovwohNQNkAyItnJvFuwU866SmzwkvniIqODRniawjLx3E9dRwoeh6Q6k9qTjSxCLq/RK44L3BuwbWtnEuRanoY/lLf5G4cpL4ICTQD1UaKH1F31MWQSD/QslciyJXKceLGZZ6ffAlpSqIMcQqpR3lbImmuC7ZRHQxrYj6NbOGodGMiQbCRJcxgdd1G0LQz3BSV8y+9n+tPzsr9H10Fp6sraJXhIljJUF0V9dWaZnS7MwT2t5xuFdxrLL0nbvgaIIDOkqT2i6UBaX2gUvrFUo0qY5ITcqizrlYhjFAXk9h7soM43lErK+8m+O/OERAG6Q5AmkD157EHX4RtfAeUnbXOPTrfiF4muJgZQHcKj4dGDQonIlx7Wnc8A5Uc0NgBK1PWIO7OYKPU6rR7VSTO/D5MFFyOX0zP66oJ7KlhZYUJ+26Kl8htM7PTg5KPFncxfoWReGoCocZ7EokFGtJIkwYTxpVF9msCKARybFVC2vzGkq5stbulZfEIVTlhMngzAiNZkyv6+h3Lc75s8SzItFck07S8x0W1CJelRBljEVNtpgppvwG8iJDufNH6Aej51EMWVPTaCZoLZc8wQwGxoLDuVB5hUVR1V/TCxh0oEmuu36ph2r82W+j1Jaj600tBswFLWBQaJVyTWYZs5Zj/YoZW1F6HwanfI1riwKTETuHocJIkN9NVEJqGmhJWBHPQeVYj4RrQuWfKsVGrdgSK9paSLVg5NKf30sadVXuR6Yo1N3I/DHMzCH08imk6gepAlFBi8VkuE234JbfgyTFNSdx6RAubmKTEaqRLdhkCFUWYO05q9ehbNDJdq0xfNZGohilapaVO0NnXiN01L95lSKDQA2nSoRSwyiVU1ULODsDUiDYtcaOiCdPCkYixwrBuyuSIIXdjIQsCsy4SBz6vCo8aDGFAZ5RYAjnbF0oXXlr98pM4nWEJCukmSHNhar09LsVvU5FWbng1ymajckok1ELyT1RQ5HnMbE2SKVxXej5krL0QUxepH5eH6YvE1nTQlHq0iYYX1fUlQ/N9Z6FVZtQuJDM1yCTGqu4+MUna3oyMlBsqx1gzrzY+kfXFQYaozwbUxhzjo6zdFzFqrV0XVA01CZn0jdopYY018SpRonCFtCzlhVTUIrFiKBr/H0sNmxKDGMKEu+IuABs+ascIoFLnjSwY9sohqZRnUXUwglcr0OZtinTIYq4QWESKhROCYgJo+CiQpWuIzwqiJKdF35QiAfYJBD1g3KqA1NCpDxGgrVbpANjTgtYJ1gfKvv1yf3qiUA/9j7FuWGqKkakg1IdRHURQvM30Z6tbUdpIWlC0hDiGMQJtlBBJE5sXYVramW42oh9CKUaQFybp3S5FLKyv0hc0Ul8EIF3q9DaE8cxjVZEWTqKvqXsO4qeEBeaRGmyKCKNI5QIhbMs0WHBrdCKmyRJRJQojFFUVR/qIZX1H5cqPFA4mOl5Vqsz8EjRr+h2ezjriJKINM/Ahwaux1P0CmwZJtDSPMU6R9ntUfR7VNajtQHvUFrRHGrTXVkFIEpTqqIABBOH51UqwBpGAiyVas0IEc5Tu8ZYdFkiJSgxGGWIJNjReWVxqqCvCyYiQyMyjEaGscTQMgoj4Mqqfs3/f8RgRxU0Y6CPpq8yyqhB0RqhyrfgvcOLDkm6Ttb+AxfeR8O2bV0UiB3Qm2v+uIRn0miMj4lwxGJJPsgr7xLHAEqEcLOp3NnX5lpx44P+f+kSIEJsK1CQI4uWAqV6JCmobpjcTrUn0oJT4EqhEgk+6eQoyRDVCvonYqCWAQkF0pWZvAdxVSTxQUh90pUWtAkMEuc83VXH4nxBp6rwlcOWFU455vvLHFg+ylLR4zNbb6MVp6Fg8T5o6PyS1u7gwj1znB/u9yoPK1VI5tZaFmfmeefAQQ69doj5kzNs2L6Re7/wEJ3lFTqrwcno58/9lM7CEkW/Yt+9t+O9580XXuLAi08zvWMfcZxSVZbVuZPc/5V/xVN//ygihj333Mmhl1+lMTTE5DXbuP7WvUxt3YRSis7yKqIVWX3D0ECkFalSoA3dNPx9lYWmEyI8q7bLbDlPlhjuGRki1oHrrevdE97TH5yMq5Xa8yHCc0ZTyfrgsNOzntVS6Nl4TTbdD4R3LvY89U6qLEqqsgpN/iiit9oN2/h6BxknMd3VVUwUtLBNZOh1unVBHrjgaZ7S6/SwVYXSiiRLMZEJ+uMqNJSDwIUmRxFxaW+0fgALrlsWrh4i63mN9YOdqOArhRqIg3HmXA/COrMmVKcAEUdUCbERFI4qcpSFRXuPcQFqLJ0wW8DpnjCetkirJnGco5RZS9xXU1xVSXx9DBK6CHjtOeFmeXP5JPQsKi1ZocNCfxVXCrvzLURGh4lDgr71R5l7GEyh+3ru0w+mO2t/Q0+oXK0Po+vN6MMvg1C9eVYWlnn0T/6aQ689x71f+i2OHjzEi//0Epu2beT5f3qKbqfH9n3X8coTj3Hfb3yFl3/4Aq//5EU+/dv/ivZQxhvPP8G1t9/Ijr3X8szjT/Hu/tfY//LrnH7vBNO79qC0cOrIfh55+A84eew03/zf/w9++7/7jyhteOwv/wut4WEe/PLD9Lo9lubmGJucIG8HazyJY7pK6FtY6Hi0WAprqcQzFsdkunY4Oufv+lWNQaVoPZQWOpWnZ4MBzWDEwfkBWHGR5/AeZx2ryyu42sS3XxQcfPUNFhdWUKLYunMLP/3Bs5SVQ0ca8Y59d9/Ik//5W0zt3sPohkmmtk3zzD/8M0pHjG7aQNXrcc/nH+SZ7z7F7LETjGyYYPsNO9i1bw9L84tkeUJreJiqrDBGk+Qf/6ThgEHlvdRQYThXha37PD7M6BROajetc9aPfT84MdyQ1l7Jq2ByUoGg8eLxuWdFBFMG9dpuBb1KKLUBPbh2NUKYaL3aWjZXbRJfH6GwcLzTO02/6iJVSaUKxAtt1WI8a6M/ZLd+0DQcVAqDC7KwQsdrSmeoUFgE21e4IvyCr38x0ZAa+VDWYmsUQBGyRsZ1t+9j//NPMntihtXZGRQJZVHQnJhg6cBBxqfH6XVWeOtn+1k6fZQHvvxZRjeMYwwoo/FAc6iNiWMaQyNcc912Dr7wHM2JEVYWlxGEDVumKauSF04dY/bkKY6+dZQ3n3+O9tgE9z7yAP3uKt/83/4To9Pb2XffXZjIsOeW68nyjAqPLS1lUSAqIkmmKLRmtVLkrNMp/4jv39UUDrBeUXhFv6/orWMKndnme8qioOgFPes0T1EqWN91VzqYKGiNn3rvON/9s29S9QryoSFMGnPg+Sf45Be/zM+e/An7f/w8+fBYqMR7luWTx7nx7k9w8r2DNDds4o5P30uaxSyeniUfHiVNNAdeeYXe/bdx9MCbVKVl297t/PNf/TnI13nlh89x+sgbfPZ3/x2HXz/E9PZN3HvfLdD85TJZBlWz9VAS1EILrylQ2NVgprh2vvyZm+K/fOWsS/Z+3fdUoOCW1oN1wZHQCJk2rEjQXlrtCY0IUh3W8cDQ6mpI6L8SSVyJYjhpEIuh8hqNJ9GGpk65NtvK7vbmi9MLqStsf4bKV7nQZOxXnr4L1ZX1gvfxWQvu7MUSQtya0fYHxvoFEiUxW3dtJ06aLJye547P/xpP/93f89if/hm3fPqznFSeVruJiWLiLCfJ2rz245fZvGsH3nmSrFWbkThcYWkMDTO2YZy0kZI3MpYXV9C6wfL8Em///G0arXF6yx3efnU/wxs2Y4seItBotUhbE3RWe/z0+88wuXUTO2/YTZIldFc7vPPGQY4ceo/h8VF2XHcN1fgofadIDQxFQsOckZz4VYmw/RcKNB2n6XpDVXPz/VmPC3DI0uw8bx94m3f2H0YU3PWZe5jasonuaofHv/EdJjZOcsOdN3Lo9bc4cuAVbnzgQXZcfx1VWfLzH30XUUJzbJyVuRkarZxjbx1CvMNZW+8EHWmW0Wg38baiKnqsLMzx3HcOcP09n8QkMb2VFaJmm7dffwuFYXhslJseuJO//0/Pc/ztwxx/6wB7b78ebQy/jIbdeoZV5YOY4LKN6LpgS+fXHvPBF8Zgl+KcQ2sNAkWvT9EvECDOUrz3FN0eJopIGxneeTorqzjrEKWIk5gkTUL/xofJ7uWFJTrLy4AizRKSRk7WyHFeUZawVAWbvFhBI4JMQ6IF5S+2C7gy4lckiQtDSYPbmjvo65JWO2IsbzOaDpGSkJqoxgHPhEew9Za3RFFVGus8PbeusjqrSoAPk5m9h8p54g+RyNY/m4iQ5jmjU9tZPHGCyYfvY3zzduZPvc3oxDCi+izMLdAeGiOJEr7w73+HAy8f4MhbRxibHuOmT3+B0YkJoiRm8+5tjG8cR0Up1955P82RIVYXl2gOj/LsPz2Nc467vvgIB145yJ67buOdNw5z4s0D2MqS5BlDk5Ps//ET7Lv3Ie75/AM02g2KXp+fPP4kT/3tNxib3sn0rh288sTT3PeVL7Drht1YH9Grgkb5aBwugAvd5K6mGODchYPFyrDsDJUPTkUXCltZDr/+Fv/4x39GWXqu2beXl//5u3SWlviNP/g6tiw5/PKrvPrkScY2jLB193Y279zLa089weGXXuH+r3yRqnT8/JmXaI2N88BvPsLM8Rlmjx7hpvtu54ff+jtOHj2OVhETGyco+32W5xawRZ/21BRVf5Vet6S32qHozpO0mxw79HM+9Vu/xfTWzbSH2xiV89xjj/Pwv/k6W3fvwEQGfkFMfC1xc6bwWa1Co75y4Lyud7QeW1l6ne5aozvJc5I0WWvYCxKa8CL0Ox2W5pbo9gpawzmNVptXf/wS7x18F+8cO2+6jrSR8/xjP2DL9Xu5/5FP0e/2+M7/+01WFpYZ2zjNlj3b2XfnjaRZgrOWI2+9zXf/9BuszJ2iNbKBquyxbd+NPPjlz5A388Bcq3NC6aBrA8aeaE9Dg/YKzUCl/MqKX4kkDhArw67mNKI0jWZMlsUYHRqfqpZNHQzKVE7oekPPCz2vqAjO1d4G1/GyX2JiE5zhf4EY0Lc+KM5dDCaOmd55Da889T2e+YfH8bbkga/+a6Z3XMOvfe1rbNq+lRvuuJkoTkgbOTtuuBYTGbQxTG7agNaaKIq45d5baz9MzcZrNiEieOcov/ggA5du6xxJs8X4hnF63S6Lxw6xvLiEaE1vucPI+Cbu/9LDjG+cQERYmpvnmW9+EyUJj/z+V2mODPPS0y/W59VjncOLsFIG7LylPVktb3u1tYoGFWXfwXLpWS6hsOoDbRS8d6wuL3P62Lu0RqfZsXcnrz8dk+U5SglOCUmacepIj+/9xbf48h/9Hg9/7cucOnIb3//Goxze/zZJOsbI9EY+/dXP0RhqsbzwY3qrc7z+/M8Ym95Be3iUsQ3bePf1g8wdn2Vq+yaaIyO0R4a58Z5bePXJpzn42huYRDG9bSuNZpuDLx/ghjtuBRHSxgj50BC7b/oEWSNfN+v7Ec9RnfAKGwQEV+q+gPNn1/XOOVYWlzny1mFe+8krzB8/QW91hX0P3MsNd97I/MwMUZKR5ylPfPMx4izhzWd/gneKoakplmbe5f7f/E2ef+wxpnbuYf70HM98+9t84fe+xrFDrzK9czsQdrVzJ06zurDA3Z9/gKTZCNc9sLK4zD/+yV9x9K3X+NJ/9Yds23MtJ48e5+3XD7E4O8/izAytkRGyZo4tbX1NBXZKVUHXCuJjEvFkVCRiuZIIPb8ySVwQkkhTlWG6s28Let5TOksrauJdSC4rpadTQWGjNdy7KIJxcpzEdJZXef2FV9h27Q7GpifCdu4jhKc2kf+AN3mAt62/TSRZyp0P38/uW/YwNDxCa7hF3mqia2aBMabmuYfFGcVn2A7rv06zdO3rOInXvUIzHKMPhg/NO5torZjcNMFt999OnOUszy1gtLB5z17ao8MopbCVZXFunl53mZse+gITWzaRN3Pue+RBEGF1cZnVpUUmN28iimMKJ8w7YUU0DQy5VOhzZVKvwBgk79LBUglLpQ+NOH/u48J2v9ftAWCMIU5jTBSx7dodbN17I0de389rz72M9Zat126m6BcU3R5lv8P0zl2cPnaYF578CavzK9iyJGtkbNyxFWdhfNMUQ2MjJFnCnZ++lxvvvglRGqUC02TPrZ9AaqqniWP23XUTOoqIk5jrb92HF2H3TTcQpxkI7P/pz5mfW0TjiGLHxNbNpHn2C81EhIauUKJZ7Amddc3JCy35frfPTx77IU/+7V+SZiM8+Fu/zuN//g1e/Ocf0u92eOn73+GuL36ZG+68BR0ltIZHEJWDOCa3bWb2vYNEUYzSGctziyzPnGLyms2YOMbZ8sz14KHf6zB/4givP/sSn/n6bxBFYZK5s7LM0TdfoTW8ke037KHRahHFMZObpjl97BiP/l//J9ff/RC3fuoeDv38TbZdt4O8kdAcHibN0gCP+uCR2pMY4z1NcRgnRKyT1v/IZ/OXE786SVzAasu7S3P0XJfV1Q49qWiZMXbmO/DE4YJ0wRzCWY91FmcdB145wPL8EjfefROnjh7jsT/9v5nadh1f+aPfZ2Ry7CMvdvshKXWDCcpBDCrnqa3TKK3WeNzn/s6A87v2kwu93nnwEWtNJCQYxyY6MAFMFJE1crz3pHnCb/2Hf4vSirwdkr5SiuZQi/b4BGmjQXelgxIhSiJOHDnO43/xLU69+3N+/3/6Hxmfnqa72iFt5LjIUElMH0OTkuxcx5krJELy9mdV3v33S96dLguzC7zwgx8TZSmbdmxhz017iZOY9sgwd3zufo6++TJiNCMT2/j+X3+TN156i2uu30VrZIh7v/R53j30DqMbJhkeHaY9OkRkFGmjwY1334I2miRLUEqRN3PyZn7WcaR5dtb/1/88qfHi9vBQ+IbA+IbxgH17z+/+D/891nmyPOUXidJrFnxM36mwc/2Axydpwp5bb+Dpb6Z0FmeRWp++PT7C5p1beP47lpn3TqKUYmLzNPOnZmmOTzB75DBJkiAq4/D+d9AmJc5zdtyyj7de+BGnj+3DuQBhFf0i3FCdZ3zzNdz60CfJmjnIAMoJohKtsQmc9fz4ez/i7Vd+zvSunSSporeywq5P7EaJ57UfPg2+4vnHHuW2zzzC7Q/dQ9Hp0et2GJ4YJ80zrCgqK6x2INeeZiTk5ox67aVO5r8ySRyBSlle7rxDUVZMtCeZyrbT0G1Wq1ClDq5JW1lOvXec2ZMzjIyPM3dylqNvHGLPzXvwgNZN3nz5OV57bh+3/9r9pFn6oRP5gHr2YXdbRoWhDE/AxbXRwW90DXvzKBGUUE/fhc9K1f6Y3lHVko9SnwilFcZEeJEa1/VrOH/poHSeyvka4auPW4InplKK9tjw2adWCSMTE9z7pa/w8g9+RGexw8j0JFt2bOLFH/yY5cVluqtdlNKcPnaC7/3Vt7jrkYfZtH0LaZ7iRFFJjKiSFPkAGbJLG4FJIXRLYbnw9J1cMHl776nKitmTs/z0iWcR4/np97/DzQ89TLauqjWRYcv2bTQa4yydmuPh3/lNjh85xvypBRpDbR75919jbGqCrdftQGkV3u+BzyYA5yfX9TfudZ/Wjn9wEx8wqSwgWqEI3PKscSbJj05Nnpns/QUiWO8FdtaHCaUVQ2OjbLruBt547gccPXyUkemtHHn9JTZs3UTcGOfUu+9hy4L2aIt39h+iMdLk9DsrTG4aJ82bnHz7KMoYyl5BtnEsSMo6h4kz5k7P8eZrb7I4O0e/36c1Moq1jvfePsqWnVuJ4ohGs8XY1DaWZ06zPD8PvuTt155leGqSuZNdTJwzMjnG/Nwy2dAoVWWZO3GKZ779KO2hJj/85j+yvHiSL/7BH3LD7TcRxVFgp9kAJy1XnlzDUBySubnEi/tXJol7BK1jtg1vI8mGaURNIhUjAyzcWrorqyR5Rq/T5Qff+Ade+dH32bDlOm5+8JOcfuctVhaXQBQjU5vori7z5N98g8mNG9h+w16iOPpwC9+fX8FdLIQzb3jpPGWdbDOBtvHEOCLlyZMgGrVeyG5wKM55elW1TrtE0MqQ1mbOa9SttSatp6o83V6fytcTcSgq0ZSotRvQudvjJEu59cFPcu2N17O4sMzCzBzP/tMPGR4f5+CLL5FmozjnefPVNzj06kuMb93C6WOn2H3jHkYnRkEr5l1MbKF1haijOqDwmlUf0fX6LKmDQYTkXTJz/BSdTp+y1+PYgQPc/Gv30R6e4uc/fJq9t9xIuQ6SS7KMTbuvJR8eYWJ6Azuu342tfzZYR9FZMFfgOoktEW8RBNEaEY1WQqzkjJjZWrU3mHlwlGW11oSdt8K7PReE4cxgGjcUAYNhLC3qX3T+PyocHGcJu26+noMvP4WJIj7ztV/n7/7X0xx65Q0mtmzh1KE3eOeNQ8ycXqA9MYwteygjvPC9p0jzhNs/9wDzp+c5cfBdeit9Hvzq1xmdmuDWz30Rj2JxfpGR8VGuv+cuim7Ba8++yvjmDWzctok4iWkOD/Hw73yVx//sb3j8r75N2e9jIkN7pMXcsVMk2SidlR5H3nqH8S2bmDk5z+477uW1p5/gu3/6DU6+c5Cpa3ayceumuhF8JmrfapYcdKynbWAkubSMlqs+iXug8kIXw6pK2DCUgwR9D+99cBAXmD81wz/95d9z0313cs3e3dzx8P3sf+4Z5k6c4PG/+DOqwrL/p6+xaec1DE9NsPfOG/jB3/wVT3zjWwyNjzG5eeOHSuIfpRIXCWprc4Xj3Y7laK9krrDszeCz44qmkaCzrg1aXzzxnZ16PEr82sW+7kHhpz4YPVtxGDyB8aUwMSijKJ3Qd9CtG1VraokipFlKkiYMT4wxsXESE0dkWcqhl18hzhsszCzw3KPfoyo0+5/9GUmi6Xe67L19H812i0YrZ7avyDTEl1kl1SKsOsOKjyguwDkYMCpECbMnT/MPf/znjG3Zxic/9wA7b72ZowePcuOD9/D8o49SFX3eePkNsmbGjj07aA61+PJ//W8QpckaKeqsSjvE+p6IEoh9RbZwmKi3QJym6KFJqriFimKSJBQj66vxcJBgradny0BvdHCk73j0RMmSDXS5RCkaRjEUacZixVikGY01TSMkSoh0bQz8MUYUR1xz7TYEz9uvvMbWnduI04Ttn7iOfZ+8lZefHObwq2+xcfd2brhjH0ka8dCXHkYpjSghazaxlaUqSkQJcRqgps3bt67tKrTRXHfT3mDu7Rw6MiRZDRfGEXtuu5ENWzZx4uhJVpZWaLa/yOYd22gNtXnm2+/x8o9eZP7ECW667y5e/P7T3PX5h1AoVGRYmDnCrttvozHUvmgO8IRd7nwBXetpKcHW5oQfd71y1SbxQbXYc7DgIlbqbfCgI+29p9fpcvLIcSY2TVH0u7z+kyc4/LMX+PU//AOmtm1lz90P0hoZZnF+ljef/RH7n32ZKEnpLy2yedcn+fJ//G/YsHGK0anJj7T9tB+isQnherTe888zHd5cKelaF6pDK9w/GtPyH6+uy2CbLlILJdUGKQ3Ax4E333WwWno6ZUgSjgAZNNtN9t5yA0Wvz00P3c+7bxzkxaefZ35mFq0jpnZu4/4vfgoR4YlvPkaSNbjnC/cTbZzAf0QtkF9meIIX6JKLWamZSVAnbWupygqtNcvzi5w4eowde6+lPTLCzptv5PnvfpebPnkLu2+8lkf/+C/Yc/MjvNoc4elvP87WT1zPbQ+F4SilFK2RofNeW6CuiMNQSWogVUKsQDvB5zESD6OaI0jewpcOJf6iZjN1vw2FH8wRUzrHsnUsVYM9mEMVoAhVuBHBKKFhNFOp4daWIW0J2kHmw+zjL3utiQhJljI0Nsby7DGef/xJ9t57D3c9fB9Do0NMbZ7GVpYoidd6Ac2h9gc+7/pmPgT8/WKvHycJk5umGd0wgbNuDcq66b472LR9CwvzKzRbd9BZXsbbVSY3b+CR3//XvP7Cy7z1fMr1t33ios+/PhyBnti3ChO1SFlF2xL9MdblV10SH3BTSwfLJSwU4YSd4aOWdJZXcc5z9NA7/Pi//AOf/d2vkzcbtEY3MXv8JI/+8f/DZ3/vd9h+w3UcfvUAn/qNz3P7A3dz8LWD7LphNzfdfTOtkTYQ7vDvRzUcHI+vp9AgXKSec4Vvz/895wGlGEkTVNdhraNynpkCjnQcI23NBy+bX16cNaEmQY889tA00NOOpU7FaqUpa7lelUSYyHD3Z+9j72038OJTL3LNDfuYP3UKk8Skecbbr+9n/0+eZGLr9Tzzj47P//bnod3mUqPigx1Sr4LZvrDq9FqNZK1lZWGZ+dNzHHnrbcamJnjlqZ/w7v5X+ep/+x/YvGs7u2/aw/Pf/Q7Pf//H3Hr/nTSG2jRHhnnwt7/C9JYpGsNt8kZ+3lpRDJQCgwhTK1E0jJw/FWgVNsnxNaTiqhLPR6O4eu9ZtWcXEGd2hiHNOwGtNMpEFGJ4ra847RTbC2Fr7hlJIFED1tSZNVy4UFwUvwBMICJMbt7EH/4v/zPeeZQ2JHm+NskaRc361QZH7Nf9v9biudByqf+u8w5IOOvqW+v7KEEig49kbZ2nWcrGHVvZUFmUVlRFydjUBCMT41SlZfb4LO2RCcanJ9HmwxUfnlB/O51ixZBWXWLb/dgY5ldVEg/85rBdme8ThgrWvYHOOU68e5zv/OnfkjYb7LrxWkY3b+fZ7/2Iuz5zH6MbNjE8uYmF0yf5zp/8BVuuv4k0SWi0m2zYMsWW3TtCJXCB7W84AE/fB/w68GE91kHPebrW07Ph+5syzbamft+Tax0c73uemvMsOc10npFozVy3T8c6nlt07G4oEn1pk936GCQYAWJx5JRUnVVU7LGxRpkWpdaQZ0ymCQ/++kOsLt3BC088x+ryCode3c/3//o/M7JhG5uv286ufdeSpPHHiodf8Fr3UHhYLDxLRWhGufoyd5Xl2OEjPPF33wEVcfKdd2gND3HTg3fy7v79PP6X3+LLf/RvyRpNbnn4s7zz+kHeeHk/t33mU0xs3MDk5qm16nv9MSgB4x2ZWGKxGByRgjzKgiXdOQfqRVAmwi28BzNdaI7D+K73Fc06NyywWJ7pyYTjqCvvyNCKI1KtQ3+l5vD3vfBeIZyqPC+ueBIFbSNkSlD40EgHrFMUNsILbM/CTuLDvo0igokixjZsOEvbXOpdia6b9gqPt2FqY/ChtSaODXIBH9bQr7DYat2dq4ZWjAmSvmsmKs7T7XsWepZKK7La28FLqFa8CSbgxug16DSKPff/+qfZe/snaA4Pn/f6HxRehEoZOnGD0sXEqlpbd7/MS+CqSOKDarfwsFB4FvuhMgjfPzMNFqcJWiuWZk7y+k9+zoEXWmjVwlarbN65mSiJufNzD7K8tMR7B9/lxntvY3xynMZQE601JjpzwQwuxMFiM3iKyvLaQsXBbsVi6VitXXEGGLgAWzPDTcNNIrl4xVI6ONH3/x97bxpk13md6z3ft6cz9jxgnkEAxECQAEGQECVxlCiSlizSki1Ztq9v2b65TnKH5Fd+pVKVSlXyI7cquYmv4+vk2iXLmiWSoiSK8whQBDESEzEQM9DzcKY9fSs/vnN6ABpAN9gkQIpvlcRu9Nn77LPP3u9e31rvehcv9RtO14RYIHA0ndkAT2t6KlXer6UMxQ5NN8kUKGvuljIY9ROnMW1ukY4gz2CqOVpKyTlWDpfNZ7n3sS9y8eQZXv7h02gny5e+/QRzllhteTYzzQLxzI5u7Ce55HcjtpNwIBy3/KWeixaBSqnMSz98ioO/fYPNDz/KojWrOL73PY4fOsYtWzaz5+Xn2f36DjL5Zlq7u7ht22ayueyYM+DEz6Kxq5fAsc1OThKixYzVLBoFxqk+vm3IqqF3fh9MFVn3VWhbNqOzYARGEkDZYmjgOjT5HkXfxa+7F+r6e03aDiupDIFSCkOxoNT4mVQw1quYUdDh2Wj9CnEOaX2oiDeBnN16yi7rO/ha4WrB1XXXy/o3Z1IhrMVj1q8K+wAK6rWhqd4rSoVYJTYir382T2t8d3L0bupJ66ODIV7WZV5ziqftwzxFg+eTiCJMFXF9pq5oRVtnG02tzZcoiGYApTA4RI5mWPsEqaIwy4X9TwSJG7GuZwM1YTSxbe1pmuJoBxGh59wFXvnxL7nt3juZu3QRn//647zxdMDSDWv4YP9hek4fZs/ru/A9n/JomTW3r+PWTesJssGkL8de4NQLQpDzbM7S06DEcHE04tBoyJFKaqfgTFjJaWB+xuUrc7IsKzq42jrcNdBY1kYJXKgJO4aEM6ElcKhHK0rRGljWrkYhh8vCnKzNUd8UUHayT01SHDRhanirr8YrfTW6Mh53NAfMzTjkinkWrVrOQ3/8JNufe5MP3j9Foa2FYnMR92OcbG/E5if7akItsWTVeHcr6YRMLsP6bXdy8sAedr3wHLfc9Xna5nSx75XnWbjyNlq7lnDg9Te47YEHWbnudorNxcuiwgZ5511o8hRZF7QIYSqY6drwKuwQCNdDlQcwfsHqSGcIpRUd2QDPdck6zoQHxwxqOnDFCCQCRg20Mf4gTMQqq2JjSXUgNozGKbfmYVFGCJR9BDhakfOz9bqVmqSpFlGkY/n9BuzD5EoPPrhclz22erxkG4Wd5qNE0JLiKjNmUqeUEPjWptdgV8mxsfW2Wgo1x61LcuWKlgvXgqCoGcVAhL0+fldI3OaNFaMRDCX1lEU1ZLh/gIHefjrmzKG5vYWoUuHAWy/x/q7tfOEb32Dp6lV0LVpEW1cXm/76bkaGhhjsG2XlupUUW4oEmcyEG1HqkQLkXUXOU2QvdTID0tReYLGMSwEnouhpHurOsabZ+rTExnb7hcaqZyIDfYnDsQhORYbR9HIpogIcrWkNPLKO4ngUc/dN1B+jlSbrB0RRgojHvqGEF3prXAwNF8OU05WYDc0Bt7cENLsu85cv4uE/amWwb5DmthYcbYdFTOf6VVP8dLXXXso5jaJ3f53A5ZLXNfbq+x63btpAVPs2T//d3zHcc4F7H3uYofPn8AKfu770BboXdNHa1Uk2n51E4AobaRY8aPIh66ixho+ZzxFQ4ASYrtXoXjDFTjvlZwYIHMXGFodSyWMktQcy249Mg70XO1JQIlQT4WKYcrYWc7aWMBinRMb6jSz0PLyMHiPLhkTyY3yOj0Ep8FxFS0bjOEzqVVBYJY9Tf2aKhkDqBX6x9/JoNSZMrU1HXF+VTOyzmC7MTDeYBm5aEm8QeFUchiN7IkujJQ68vYu3f/0b+s6dZtHqO3jyr/+UYmsLLZ0LqZSrvPLDHxE9/jhL1y7nwJvbWbBsIctuXQViW9AbN6Gql418DDmdknchl/HHtNiXPvmvFsg4SlH0fUrismcECo7NfyaJZjR2GUgUvaminCpCUWPR91RoEHmT79HhWgnizQKtFE1BHl9y9MYOT/WE9ER1RY0IvVHCWwOGC2HC3a1Z5mVdmtqaKTQVxuoM00vxqwlkOz0Sn0gMgvXyGJyQdpv42knbKkWukGPt5tv54OB97H3tJfbt6CTfXODzjz/AkjXL8X3rhocaPy4HIetAa6DJe5d3613Xt+ZnSG/5ImbRHZiWBaBmRuKugmUZIVawq6wYTGZ/oFgq0BMLI1HC6UpIXxhTScU2kE0IbjTWPfDGVXQuh6sVC5odlKS4V1nkTLr/66uDVKUEylBQkOAQ4RAql6iuiruRsdZNS+KpKMriMSouiUC1UmPXq9t58+mfsvWRxzlx+ASDZy/Qf+ECQS5P5+JllEfLVEeH2P6Lp1l0y3ruePA+uhfNs+Rdj0oa098DUnIqwSetF1YcnOuIEiyBezQHASdDOBuZ8YtArJNbCmN2nNOBi9DlGe4qCNnLhrjeSChc16WSCttHDOdq6aTVhADl1HB4NKIvTLmzNcuaokeT59CYbepcKx84JiWo5zgbhiaN0PaybhyDksmRby2CshiMUbjApe6nMuEHwcrq2lqKPPDYg/QcOUDW9Xngz7/FvKUL8XwfUdSVBfb/XYS8k9ASOGQ8hdKzE/GKcjDFLpSXQ5yZF0MUkNOwvii0ZTTbh4W+WKims9d4Yr9jrDxTe4gjpGlCOikNcnNCKShkHeIomfm2jf4LwCEhowx+1iWUhgFYY7CF1aVduadj9nHTkbgAoWhGJ3TRGTGMDg6x//W3uHDiFPve3EWuuZXS4Hn+8X/+X1m4diMLV69idGCI1bc/TK1aYeGyxTS1t451yDW0uU2+IqOENIxQMp7huh4ttqMUzYFPVzbAdzSJTFbL1Pc8w30KczzDPfmUOZ7BuRlaGyegIvB2TdheSqheIfyIRbgYJrzcV+aDis/dbVkWZB1cR9nPM8njV8akYmIEFRuc2KCMNWZXKAgZa+K4lClEBCdJcCasUzWajM3Y2tdMOIdSj6bl0nWtUnS2tbLw3/xrvEKBoLmIEiGNIhKlSbVCKSGr62oTEVwJUKLrjnbTzBNdDUphvCwod8ZR+IRdkNOwsqDoCOB4WbGnZBio+8HMBqw+3Spesq5DnBEqSUopjilFCbG53szxRwurF9cIDmk6cyIf2w92hexp8JQi50CTEXpqwumRlKyjyLoaX11O5noWLpNLcVORuM1jagaNQygNha09+W3dnTz6Z9+mVq5w8r132Pylx/j6X/9X/PIffsDx3W+zetN6RvuE7gVzKbQUx8hbYU3em307tMBzAIFq+OEiB5ta8JiTy5BxLjequq59Ap2ucE8+Zb539SXfxw0BQiPsKxleHokZSK59/qqJ4YNSSJqkPNiRY0nOwU2AtE7IsUGS1FaSkhRJDE6S4shkshYnHuP7qY5Mp5PHMyg1xfcx8de6i+PkvytQmmJbi/25VrN7bJB+Y0afY4uHuBodCBL4tkuqsYxr3LiXDl6dLpRCHPfDyReULcZ3BZoWT1iU0+wfhUNlQ2nCCLkPA7vatKoRR1l1VZPvEmcN1STBkwT/RiS/rwKlrJmb0opr+gpPd59YNc65asoz56rsG44oeg7rmwJWFDyKrsZT40Xcj0IxfNOQuBGr+x5IHMJLUg9WZ+oyb/liHv3zb/Oj//3/4P3fbmf17WvpXraMbCHPinWrWb91E9lCzipOsCes4EJrAJkJRaexyTvXeSVrpch5LnOys0fgjoJ2V9iUS5lbJ/Cb6RZIDZysCs/2JfROQeAO4AG+stKyAGjTMFcZFpqYBaOjdEfaOhk2voOGcmPCz8pM1e5qrkxqDXKdAMUUBk9yyc9TqEYasrrJ3TL1aL5xXCn2i4kUqpYiOrTBhga0RnkO4trKuGMSUII01Bio8RXI1b7cWbieGim9wFHMzShaPGFl3uFwSTheMZRSqyZJrqM4dykaviy+UgRa0+17LM8Ki90Q74Zmi6fALN9U1VTYMxjzk/MVTpRjaqnQF6dcCBP2j3rc0Zxhad6h6FqJ50fRq3xTkLgRqCTQU4NaeuWLynEdFq1eyYPf+RY//5u/4Zm/+wda587jS995ktaujjFzGjuRwxrRFOvjwmYrK6FQ5F2X7lyGjHud2tFLkNEwN1Dc3azowlDvQ7hpYAR6IuGZ3oTToZ1R6AE+lrQDBW1KsUjDUhcWe9DqCp4Y2+SCXXY6sRob0PGJxthDoBFt18kdg0TJ2OdzjMFBEFcjrgLPBRUjgQO67oM91v3y0ZyTRjCTdxWLHZgTwG0F4XQp5UyouJAoO0INNTbQodH3cOl9qBhPJTiMG2plHJjja5ZkYX7G3nO+EpJQYWYp4r0ZkRg4MpLw3dMlTlWTsfpQKlBKDMfLIT21mKV5ny2tWRZmHfQUjV4fFjecxI3Y6dO9NWu4dLWoQClFkAlYuXE9a7c9QFNHO5s+v4XO+d1jLbEOQs4ROnOajDO7OSiloOBq5vgBWdedsgFhJnAVFB1Yldfc3gztHsRV64p2s0DEDkd4rTfmVCWlIJDRwjwNa1zNUg/muPbffGwU7tcD03EmGNdszL7o7SZDg+BF7KoCQaUGiQCVIpUEcRyUp5HAQwWOJXenXjhtLCxm+TQp7PXmOOC6Qi6TsNSvd7KmDqPKYyTVjCRQSoWKsYqjxjNKIXhKyAAFR2hyoDPr0h4omjxFRmObeBrPaGNN026iS3nWkYjQGxoGIjOlc2kqMJwYDoyG9EUpX+zIMTfnX/7CD4kbRuKNa72awMWanbYznWWdUormtlZ+71/+IdpxxvwXFIKDIa9SmlVCRmdmvSjoa1hTcDmVamKBBFvInMlyVNf3E2iYF2hub4IFWUXOUSCGeFaP+DoxVngUklQ4NxQzOhJyvyMsD4S5niGr7ArCVxNu3LHNBWMMSZRgEmuTqrTCdR3ca1j6NvLQk35uNL2oKVZpIpMKl/Zl14j2G9tMTJsohdINxxDG0zsT/n7Zv13hAxhjiKOIOIzR2kpbtaNtuiax0yYkBqqxPQ6lUHX3MU0CjrIpGGWbU+wJnL1rWamGL72QFWhyU9zAQzmWdA1qUkpfRIiimDSJUTKePsnnXHxHT9mMc7MrVWYDBhhNDOk1Pm1shMEo5lipyhc7XWY7qXLjInGBWipcrDFtAm9AO3bSzNjvWO/too7JkE67oWSmyGq4t0UYShMGE825xOFCrKkaS+ZjXtww9oEajQQae+O0uYplOc3CHHT4ivylufobhbqUT0RsAjxMkDBBRylLqglzMgmuMfj19mkFKD1OLo1J79VqjWqtytDAEP0XBhgZHCGJE4JMQPucVjrndpEvFMjncnjZAKkTZyNoN46DUYpUa1KlMFoj2sHUW6SNmmwbe+kpaygn7EsuvQoEfY2TrLDdlo7YVg4tgmMEbVKcNEUbgzL1v6lxolWApIZKqUxfbz/HDx7j4tle8sUcq29byeIlC/EzmfEjmpiSAVvgrYErqVWpuBocjcoIolzw6nn+WU5HNXbpa3AdpnzAilhlSzyxdlHfxrmJiu8fN4zASGyued8GGtZl4LFWoc2f/czZjSNxZQuEqflwKhFHCVlSiirCV+PTbT4KKCDvQFYbuj1htedgHIfhROgLYSC23hNjaSGT4mNocoQWV2j3hPasRz6w3hYfhdxoRphAJEpSpGqgFiNhMu6nK0KmnkK59JsSqQ/bqNQYGR3hxOETvPPbvew6/h5D5SHiJMakZszz2XVdcpkct8xdwd2fv4elW28n392JCgISR5NcEoGPvdtUEfiEj3BlXE7i14K69Od6PqERnTf+7hqpywwNnjEQRgycPcObz7zIC++8Sv/QAMaA53l0b2/n3//FX7Jy1YqrD982grIVX5ykXsytpUg5Bt9FMj4q64JnfbZtU8PvQsx7c8LUU41XI3Ffa+ZmXe5sSuny1UcSYN4wEm/k6IoexNH0p+FMhKeh2YOcSdAfUyK5UShq+G97HrR4mgUZW9tq+KlYhzWxRvb17lBPKzKzXGidOWSMLFSSouMUHRpUUkNETUsa10iXlEolLp6/yI7Xd/H6vp30lQaJkoREbOuHOA4GRRLHxLUaaRKhGOBCbw87j+9j7mtreOg7f8SqTbcR+N7HcFKuvf/LPvqUET3EmjFdRxpFfHD8JE/9p7/n5KG9jJZH0K5P1/yVBNkCfQOnOTtUYYHSUFdONaJ3JVfpapwwuVmSyKZfhm3qRXKBNfdpJNE/gjz6Z7g6jAildOpIXAG+69CRDWgKfI6IoRALuVRR1LNbq7uhhU1H2eabUmK7ymYCX1EvqghJTWZL9jljqDqhX3oiRezyM5rsknnj0CCExKAqEd5oDRWm9aeOoJQGdQ3fdKUwItRqIWdOnuU3v3qNnSfeoxJHOJki89bfxbwVy+hc0E0mlyGOYyqjFS6cOsepfXvpOX2E0tAgYRwSDoWM7H2b0t+M8PW//tfccseGsc7aTwSUjc+TJOHkkeP88D/+LScO7CKOqmjHZd7SW3j4O3/Mm888D6oLvXYl5zs78JUik6b4qcFPE7w0xTHGkrkISsykiH8MjVWTESSx6S6GNXgKxwXjacTR3MB5G79zMNgisLnk0a+BjOvSlQto8j0crRkwiu0V6AM2twjdgcKbpczYDSVxpWy+qMlTROZyU6mpYESIjBB41nTKVYr0k3Ljf9yoR2hiDEQpUomhEkKUoCd6MDN1YWqsu1FZu84Q6B0cYc/bu3npxRcoxSkLttzL+ns2MWfRPPxMDsd1CGshpZFhKqUaazdtRGlNrfQoJw4d4dUfPc2JAzuploZI4pCzRw/y1N/8Ld/87/4dS9beguvecMHUtCFGGLzYxzP/+bt8cHAPcVQFpWhq72LTlx9hdGSU0mgPW7/yOM3z55K4LimKcGI0LjYtk0lTgiTFTyLcOMExdmSFvlKC0A6OhcSmdNAK4zuYrAuOB66M23J+ho8EtrdlciSulaLgWQly3nWtpBD7wB9N4b2yoS9W3NWsWJa3goYP2xN1w+8YraDJs1N6KlcJpwXbGTUQGnYNhxRceDLI0uZ/dpFehka0ZgSpJlAJkVrMmEO+TG6oqWfFxybe2wKjJnJcQtel6jiU05Rzp8/zylPPc/bofpZs2sLjD91Lc0c7mVwW13NJk5SLp8/x6lPPcXzPThat2cCCv/w2haYC+WKepvZW5i9dwos/eoZ3nn+K0f4ekiTi9LFDPPfdH/ONf/dXtM/p/ERE4yJCtVJh7/Z3OHHgHaKwDChyxVbWbL2fto52XvvZz1m4Yh2bv7iNbC439rnGmtLrv8eCJXZPUAQ4RghSQ5AmZJKEIEnRdXMY3YjY68cx5i1jbOeqDhNUzSAFAzkf3PpQ5E+DPv9mgjRGsZkxGaWjFAXfY169h2QqCXJk4GxNeCERLoaajc3Q6qsZznCajBtO4gCCkCIYmewxPP53K9M5W014ta/KyWpEwVUsyTl8rsNHT9ez+dOM+nJbGbE38ahVl5AYKzyXS15a1/CKUqTaIfZ9qp5Hoh1irYm1GtP5hlHMkb2HeO3nv6J17gIe+1d/xdwlC8kXC+i6PCFNUs4eP8VP/+//zKnD+7hl0zbu+/pXyBWtG7r1rfCZs3g+X/rjJ/DzGV770XcpDw8Q1Sq8v+ct9u/YwtaHv0Aml5n80USIo4iwGmFSO0bLzwRXTL8YY6iWq8S1Gn42OyZDFRGiWki1XCGNIztAIJMlV8zjODPLQ6RJyqlDR3n1Rz+gNNQPgB9kWb5hK0tWr2T7M7+hfd5SvvTtJ2jtap9yMs0YVJ3Y658l0RA5Qklca7hkBN8YXDFkkpQgifHqxK4nuHspG+mgajESGWS4igpcJOOhcj6qXoz57Hb58BDqAynqJ9Ovj1lsy/hkHH3VHhJr5ws7Rww9keLuVs284PpL1DeUxEVs2+rhkvDOiLDQg+7AVnAnviYW4WQ54fm+MudqCbGxo9CevlChO9AsC/hQT7JPOpQRVJyioxSnlqJSA+gpiVuA1PEIHYfQdam5HqGjSbWuy/fqr28QSpzwwZFjvPLjn7Ni0yY2ffFumttbJg3TEBFGh4Z5/p9/yvu7tpNvKnL/k48yZ/H8y8hRa017dwf3PvoQJ3bv5eiet0iTiPLwIDt/8yK33bOZTDZjc84ipEnCUN8Ax947zOF3DzDS10+htYWVd9zKyrWrxzp1x48FqqUKz//4WY6+s5O127bx+d97kEw2w1D/AO+9vYudz71M/7ljOK7Pkg138uA3f4+5SxZMm8hFhNHBYV768TNcPHUCk6YopWlq62LJrSvY8Ytn8DM5vvStr85ov5Peo74qMtRJXWxiZcQTtGQIjCGfxGSiCC+K0MbUpwjVv+x6ukWSFKoRMlpDFQLI+uPF0M9w3bDcZVewGdehK5uhJfBwlZrWSlKAioFjVWEkNWxtVix0ru9ruXHNPgKVVHhvRHhr2DCc2Ok9eRea6nmiRgR+vBzzQl+Fc7V4LG9ugHPVhJ+eq/CduS5d3o0xm79hqJs4qcjglmJUJbJkburabT0uVxAgrhN2xXOpuB6JHo/EL22WGX8LYWRgiNd+9hvmrlzN5vvuobWj7bKo0kbhJzm88zWiWoUFy26lY86VB8tqrWnt7ODOLz/E2WP7KA0NkMQRPWcOUx4dobmjFYUijiKO7z/ML//LP3HqyF5q5VI9EnfY/XKOBUtv5fG//HOWr189ZrkgYhi42MNvf/lT+s+dQ7s+Wx68h5HBYX75jz9k/+vPMTrQT5rEoBT9F88ThzW++W/+gqa28TmKImLlk+UqUbWKMbad3nE8vCDggyNHObZvB1GtAoDjeWSL7ex49hd4gccD3/5DuhfNn/Zw3Wuh8QBGKWttrBVV10EFAX6akotjclFINoomDTyo5yEhTZA4hZEaKtBoV5F6s687/12BAcJUyLkOxYxP0XNxtJ6x4iQRuBgKLw8Itwaw1CjyzCwovSEkLtgI/L0R4c0hw2C92WcwEY5VYXUOclqRiHCqmvB8b5nzYUKDnxT1HJJSXAgNh0spLS2azO/CtThBoSBlG2HpWljXF0+NVGv6czlKnmcbaKZpm5okCedPnycqj3LXg1+npaN1yrRArVJlzxs7KQ0NorQm19qBdq/emelnfG65bQ3ZQpHS0CAgRLUqvRd66F64AKUVJw8d5Sf/5//FyUP7SOIQ1w/QjiaqVQgrJU7UIn77whvMX754rPkrqkUc2XeIkf5eRFKyxSIjA8O8+tSv2PXiL6iMDKG1YzXvxlAZHeT0wd3EUW3s2Gw6psK5EyfZ8ZvXObHrHUojPSitaOteytrP3cORnfsYHeinsdxJk5ieU4cotHVw3xPfZt1dm/AzwbVP8nVC6mSOUiRKUXMcSp7HXDNCJrlCcakenes4wVOC4zskWRcJ1Gdy8xlCAXlXs7Ylx1CiiGYwL+BSNNIru1KHASfPBqdMs06mTc4fO4lbAucyAgdb4DkX2dFOC3zoj1Je7a/SFxscrcloje9ofO2QdTSdgcP6gmZ9LsZXn2KXhkvkZVKKkHIIsW3KuRqBgy1++anBeDbPPV3EYczF0xdZfucmWjrbrtioEochpw8eJA5DtONes7UebDSeKxRoap1P//lzmDQmTVIGLw6QJgmV0TK/+scfcurIfpIkpKmji+Ub7ibX0sT+159npO8imVyOzgVzcSYoWmrVKge3v0NYreIFAZ2L5rP/7XfZ88qvSOOYOYtvIVNs4/Shd4jDKkppvKBgJZZYAh/sHWDHcy/z5tM/ZuDCOaJqFUHwgiwjA8OcObqPsBZOIn4RIcgXuOuRr7Ll/s9TaCp+fAXaepTuCDhpyrVE46relatTgx8lmKyPcjxrb+DwWWQ+DTgKFuQ0TwYOh0aF98qGocR2tl4PmQtQEcWxJKAmijvcMp16esLpj5XEBdvNeKhyOYE3UDNwvCpUUuF4OSFSLvMLHoGjcZSttHtK0e7D1maHVQXw4uRT7ZYmRpA0tZF3qUHe9TM3jStGi5CLI3Tgk85ASBzVanyw/wAb79uK61150oxJE0b7z2LSBKU1SRTb9v1rHZfjUmjpQDsOJrXbRGFEHMWc/eAkJw/uJI5qNHfO4YE/+lPuvP9eolpEEoYcfOsVlm/cyvq77yCoR7zGGMrDw5w7uo8kCsnm8/iBw45fPIV2XLY++iSb79/GW8+9wtn3dwEQZHMsu+0O/Ex2LH303Pd+wm9//XOG+3oQMQTZAq1dc1m2YQuVkREO7niRuFYe+xxKKQqtHWz84iN84auP0NzegtIKYwy1So2oask+yGUIspmrd21eJ7QI+Tiy6pVpbqMESARdjmxDUTELhQDlOuPz5j7D1FC2aa8zUDR5sKKgea/u2T6SWGOx60GE5kzqI8BdukLu0rFUU+BjI3Gb34YTJeGtkakJvIGygZMhGO3Skmk4dVq9ZaBhQUZxd4tiYVYRKAiTT6Fb2pjaxECtitQSJKoPUJghFOAlCbkkZUTrK+bAL4VJEvpPn+D0kS5Wrls9NmjjskMVQxyXEbEt9kkYTqtCo7XGz+fHomClFdlCljiKObz7ANXSKEG2wKYHHmPrw/dRaC6yf8e7HN39FqNDvZw8sJPe81+mc153Pc0ScmjXe5SGB+uf2+fkgWO4vs+j3/pL1m+9k+roKKf27SSuVdGOQ9eCJdz9yH1k8zmiWsj+He+y8/lnGO69AECxtZONX3yEex65n+5F8+k9c47Th3cSVsuAtRMotnVx11ee4P4nH6N9Tqedmp4aBi72suOF1zm0YyegWLdtC5979AFyxfysR+muCLmwZpVaM9y3MoKKUmSoipRDVMa3RdCMe3VVzWdAKzuroOHZfkveYe+o8H7FMHqdM05jNGdTn+2xwz2JIisKnyuvrT4WEhes0u1UpNle4qoE3kAilrgbcaMCcg7cktNsbVV0+MpOvrmhrlEfEURQqeDUEpz6gMSZT0+fDC1CPokpee60m6OUdlDaY+dzzzJ3yVxWblhPvlgYU4NMJiI1duxxFCLTOGBjDFG1MvZax3Fo62wnjWOO/nYncRjRtWAx2x59kNaONqqVCscPHqU8NIhJE5I4wg/sg0WMMDI4zN5X3qBWLqO0Rimfc0ff44FvfYtNX9iG63nsen0HA73nMMbQ1NbJPb//deYsXoDWmuH+Qd74+TMM9/YgArmmVrZ8+Ws89M2v0dbdQZqm9FzoJQpDGldwttDC5oe/yoPf+D3a53RYAjeGvnM9PP3/fpd9bzxPZXgIUAz1HGPNHWvJ5pciKCt1TFL8TECQCa6bMJUImSTBS1KbKrneB4QRCFMkriHVGFXMQNH/3Xa5mgZskAk51ypM2nxYktG8ORjTF2uiaa6NFNbKodHe1Zs67KxoWvLQfRWrjo+FxI3AhdhhR8Wh/zqeTgrru72hqNnUomj1xrucPm0UroygayluJUZHqY2StHPdN6ZAfRo9pHGKyUzfZsPPZli26XZe/v7/x4/+w3/gljs/z7q7NzF/0TyyhRxaO7h+gBhBazvKQkRI42ha6RQxKZXhQaS+uvAzWdq6OzAmYajvFI7nsey2rbR1d6K0olaqcHznu0S1Glq7NLXNo6PbqmCq5Qp73tjByUPvksQRKKhVh1i4aisbtm4m31RguG+AvS+9Rq1UwvUDlt56Bxvv2UKQDRgZGmb/jp2cP3GQNIlw/QwrNtzF/U88Tse8LpRSjA6NcHzfIaKaTY+4XsDStZt54MnHxghcxD5MXn32Ofa+9hyjg30ggusFBNkcjudijNB3/iKvPf08gxd6WLl5PXfcu5WmlqbrInIRIQwTygIZ9FjUdt0xtBGIEmSoYhvFihnLFJ/JEq+Khq9S0VWsyKXo8ij7JOBUGlCRye6bE7cJdN3WGcE1MRkMGSXktNDu+WD0lNs28JGTuBHoTzRvlx16Yk06w0tLAc0u3Nmk2dCsKLofvk31pkRd6+2UY3QptB4n17krS9yKCEWIYgCX07icSz26Y0Wnnt6sv0w2w8Ztd3DojZc5c+wwO5/7GftffRbX9/G8DEGmyILV67nv97+M62RsZC5CEtauecPbxpsaowNnSU2M43q0dCwmyGQYHRokjmr4GZ81W24jk81YpcypM/ScfZ80ifCzeRasWk+Qy2NSw7kPTvP6T35EabCuGBFFrqnAtq89QnNHGyLCUH8/F04eIk1i2rrnc983f5+mthYGLvaz4zcv8/rPf0RpaAClNK1dc3joW0/QOd8SeLVUYf+O37LvteeIqlZWmC0WuOvRh2irp1BEhFq5yu7Xt7PjmR/XjwUyuSaWrLmNR//8T+iYN4eRwWF+/d2f8O6LvyCsjHJs/1tox+WuB7ZZjfxMvmuBslG8kfhklMMSEpYQ04whQHDr5mvXdS2lBqkZa9PgaZysJvWchkTsM1wBtm4ndKiYTW5Mq0o5kGYYNs5lZOwruKOoua1JodOQ8tAoUrdccLSimFEUA/+qksOPlMRFoGQUu8ouZ2NNMo0k/UQooMmBe5o165qt9/anrtYigqSC1BIYqqArYb1ZZ4a7qf8vRhHiMITPUTw+wGEEu6QTAYmFVl9Ni8S1o1mwfCnf+Pf/lhd/9BTH9u6gPDxEpTSISWwRM5WY0gPbcP1xhcd0IrY4ijlz/CTV8giI4GeyrNxkC4xJ3Adi8DyXeUvm4XoeI4PDbP/VS1RGRgDwfJ9Fa5bj+R7DA0Ns//XL9J47jalXuL0gy7INW1mxbg2e71Gr1nh/3/tUy6M4rs/8FevpnD+P8yfP8MIPnuLskYNI7KCUxg18brnz8yxYsRTHcalVqhzcuZsXv//PDPacR8SglKbQ1MaKtbfg+3ZaS5qknDpylBe/910GL5wDhEJLO+vueYAv//EfMHfxAtI05cA7u9j3+nOMDvaACJXhYUYHhzHX4cSZAn0JDBhNrBTnlMu7BHSQskQSFqmUZhIyEwh9Rmh0gSYxbgg655FkXdCfOW1dCxooqJRVToWsMrwb5xmSS6JqZQ30mr26NlwbTD29qJTG13LNGvNHRuICVI3iUNXlWKQJr4PAC1q4NWNYU9SfPgIfkwymyKjVexOnqBl48jYi7hBNjKKkHE7hc1y59OJSQxEz7tWhxfqdGxGmMyhNKYXneyy5dSXf+G//kr4Lj3Pw3fc4sXs/A2c/AA1rt91Ha3cX2WIzSjuISa+Z+hERyiMldr/yNtVKBaU0zR2dbLz3TrKFLLl8Fsf1MMbguh5RGHH68Psc3/02fiZXlwYqHK3ov9jLgXfeZfeLzxJWSo0Dp6m9nc/93sMUW5tRSpGEMWeOnCCOYoJchmUb1/L+nv1sf/pZ4qTKPV99nD2v/Zah/lNkcjk23nsXfiZgsLef9/fu57WfPk3nwpX0nPqAahzh+gHzVqwnWyhaJUpq6Dt3kRd++Aw9p08iCC1dc9n8pa9x/xOP0jG3C4Czx0/y0vf+maHeCzbN4gbMXbyC9VtuG1PZzOT7j42dfxoLpFjteA3FKIozyiWD0EnKSmUj9KykuGg865YzIyWLSgyqFKESQ1rwIRB7UX2qbszZhQICZVjs1HAdh91Jjv7E1vxgQufnh8hUfSQk3ri4jlU1+6oQGlug1GqysdqVNJUKKGrh9lzKrbmUvON+6q4TiY2VC5ZD63Fipt8KLdgp5TUUA8rlfe1yEYd+NDVl0yhTpa0MMJoKlVQRTNPTvDHMobm9hWJLE/OWLCH+ygO24xHwc3niWkiQz6O0RsTg+MFVdx5HMScOHOLIzleJa1WyxWY23v8VuhctwHVdsoUCrV2L6T17nPf3HaDn7Hl+/Q//TCbXxB0Pf4nXf/ZDKsNDvPS9H/H2L1+g79xRTJKitUOaGjw/w+Jb72Th8qXjnZwIJkkAIazWePuXz5EmVdq75vPYn/5L5i9fxkDvEMf3vI7jOGQyLsf2HuC1p5/j4qljLLn1drY8tI0Te96gWhrGz2RYcfsG/EyGJE7oOX2eX3/vpxzc8RJxWKXY3snDf/Ln3Hn/F2yTlFIM9Pbzys9/zfmTRzFpguN4LFixmq/+1V8wd8nCGUsPG13P/cnlVsyXEvpZccjj0ymGeSQsUhHNEo9F6NMmcyPoaoxKBFIHac7Y0XKfyhzn7MASubAiSJmT0bw1rPigaoikYWdr/3u9a5uPJhIXKKdW751VQtE3+EoRKKHg20adFHh72FCdYgWZ18JtuZRbswkF51OWfpN60Wi4Zkk8md4SupEuiVCU0ZwVjyN4nFUOVaVIYFr1hkigLxGaZlhbUErhuA65Qg4KuUl/G04S/GyurljRBNlx2eClsMqNi7z4zz9hsOcCjuuxaMV6tj3yAPlCAaUU2UKBjfc/wPP/dIpn/vY/4bgeQS7Lw3/yZyxZtZKLJ85ybO92hvrPUBq9SFvnHDY9/DDv/OqX9F44Q1NbG3fcv41cU2FMQRNkM6y/dzMnD73NSH8/aVph1ebP1T1erDplw9aN7H2pi96zp/nu//K/kaQxbhCw7nMP8MATj6O1wc/YtJHjOrR2txFWa5x5/xi//C8/4P3d26mMDqIdl+4Fq9i4bSstHa2kScpw/yA7X32TPa/+ilplFKU17fMX8OV/8acs33DrFeWbV0Mq0JMI4TUuoRRFBUUVGFSa4zhk8JlHymqJWEBIDoXH9Nq9lYCKEhipIlGCtORQWdfOKP1U3ayzB4UdZ7cwCxkXXuhXnKxa++1yas3/rhcfDYkraHLh/lZDFMU0TO61VmQyDp6rGE3gQBmq0eRNs0pYk7EEntefounoja7LSowpxRDG05JHTkyZDOJyFJf3cRlWmhqKZIbnJxHoiWBhILizdHYVCl03xNKOQ66pmZHBIbKFHEE2M27Bmhr6L/Ty0k+f5YODuzAmZe6SlTzyL75N1/w5Y46IQTbDpi/eQ8/pc5zct4tccyt3P/5lbtu2hWwuxzf+7V9yaNc9XDxzgabWZlZvXENbdye3bFzP0QNH6ZrbxaqN6/CD8cnifuCz/q47aGr9H+g730PH3C7mLl5AsaUJx3EQERauXMYXvvEtXv/JDwjLZdq7F3L3Vx9n/dbNNLe3MDIwRNfClfSePU0cRby/+z1OHTrGvpefp//iefLFVlITk4QhYgylwUEUhvMnz/LWL1/k8M7XGOnvAaDY1snnvvYN1my+Y9I5mi4EawzXM4OpWI0VXIKipqCE5rRy6SRgVb0gWiTFn24xNDVINYI4heYcNAWoz5qErgiFzX93B5ovtgkv9BtO14SKEetjdJ37/UhIfFxqY+0aG3KzxhAIV0OkIVAKjYxJDn0FSwPhtlxCUcun51qoW8Q61QRdNeMz3K62CTaCqqEZwOMwPkdwKaOJmOBJPUMYYCQVyqkiM0tj4kQMYbWCMQbP98g0F/jF3/8T6+7dyto7bydfLJCmCQMXennpJ79g5/PPENWqdC1czBf+4JssW78G1x/vCNVa0z6ng6//q+8Q1/4A7ThkC3n8TIBSio65XWxp/RxJkqAdTRD4KK1ZsuYW5i9biuM6Y5GtiPWhj0RIggydq1fRvHw52nExvkPJgCMGTyky+RzbvvIQG+/eTBzHZHI5ck1NVsOtFNlCni1feZDzpw7Sf+4sb/7se2jHRWuHxavXc983nuTgzr3sffXXXDh1mL//H/8nXM+nUh5hdHCAKKyACJl8M+vueYi7HrqPTC5LebSMVopMPjvtlIoRGE0ak2WuD4myqZYKigs4vKs8VkrKSmLaSMhirk3mAsQpMlS2Qyqa6umVz3BFOBrmZhT3tmp+028IjRAbmJkuaRw3bsZmndAbF4ijYF4AW5oMzXr6ObqbHiLoxOCWY3QtAVHXHIOWoKiguah8DuJzSrlUGgqTWTikWKAvFlquQ64pRoiiCNd10Y6uN9oYwort2PQCn+XrV1MdrfDm009xbM8hFq1ewXD/AO+99ip9506iHFi2bhMPfvubrL7jNnL5yzsYHceh2NIENF12DEopgmxAwORCoOu6uK5rJ6kIJEYop4bz1ZQTlYTzYcJwnBIZO1DLUYqso+kIHBZkPJbmXFqCDG3z5tUN1ph0XH7gs27LHZRH/owdz/yC0YEL5JraWfeF+9n6wL10zOtm+fo1rLpjHfvf2s1IXx/a84lPvE+aXBzTiy+65TY+9/jDIIYPDh7h4O4jNLe1sOX+rWTz2Wl9D6lAT2wLmh8WY+kWUQzhcACPZSSsJ6KNhMx0yDyx/uVEKbTmEN+ZVq/A7yIUNpBdmLUTfnaOQPQhBsbfMBLXQKAVSglKoMWFe1o1na6C+EYd1SzDgI4Mzmg0oXFn6lvBYOWBFRxOK58Dyuc8DlVllSeziVSgN4bFmZmnVMJayHs799M1v5u5i+biaIdqpcJI3znEGHKFVlasu4VCczNBxmPnb37DyffeJokjxMDiNbez8b7PsfbOjbR2d+D5lw92UI2VG3V/j6sU3hSMFYS12N+NwIgRPqil/HYk5Gw1ppoKidjJ5I192aanlIu1hCOjIXnHYWXeZ3NLQJuvySnQ9gDG/NibigXufeQBNt27lTRN0I5DkMuTrUfRXuBz27YtrNywltLwKEd27eWDfW/WC8GKXL6ZxevXs//t/fScOEYalVm55W7Wbl43bXVKI5XSG4+rHGYDgiIEQhQlPI7jsoSEtUS0ExMAXp3Qp0QqSCWyaZbmLEp9RuJXQiNHvjynGIpptDZcF27gtHtFVtvcm69hQ0GzMANOCnG9aeQTi7q21qkmMBKhonSMmC6FwRYrR5XDMTyOaoce3Hqx8qNZjzRSKsOJValMRzPeQFitsffVHTR1tnHvV+5Hadj9+tsM95/H8wOWrt1EU0sLxZZm7n7kfjbcs4nBvn6SOKGlrZVsPk8mnyOTCdB1PxxV10crEbSAJwbXGDwxOEZwRNDG2IIa2GtDWSsB3RguXE9R1QwcTzTPVeFQYhhJjbVwwF7sOaCAwRUooSgpRSxCnEI1TRhNUk5WIzZmHO7PKrpcK7xItCZVmkQpYtclaWsl0fVxdiKEUUylFhFHIVGtRt+FHo7tP8zbzz7NyECvXXnmCnjZgAvHjrH0ttu569GHmbd4Dk1trWTzuWmnUkSglEDlQ0Rv10KEYgDFKB7HcOlSKYuJWSEhLSR1ieIUMILUYiRO0YFCZV07wPlTs7SePSgFRU9xZ6vlO3WdwesNTadktHUCmxso1jUpMo6tkXyi0WjeGQ1hsIyOkikfSA2lyYhyOCoe74nHIJpQTS0PnG3EYvXF7d70Gn8acFyXfLHA7heeY/D8BSojI5w48DZxrcaC5av4wte/Qq5YsGZWuSzZbIb2jg6bSnC0HTcm4CUpvjF4JsUzKa6x1qjajE97V9hVGnWyn8xY478okbFJKXtrmh/XEs6kEGK5IyNCM9DtaFZrw2IxJEY4YzSH0JxEUcY2ztSMcL6WMBoljFY1TxSEhQ6TajeNqFy0ppqknB8e4fCxU+zee5jTRw4x0n+aWrVMVAuplUuIWM347Q8+zm3bNjN34XwyhQJ+4ON67oylhanAYCqzGoVfCTGK4frD7qxyOITH7SZkiUQUAI8p+FlAJSk6EbxEiIueJfLPcBm0goJrJyhGyfXt44amUzIamh3FlmZFi6fGlq6fWEjd73u4hoxU7RPpEgK3BUsYweF9fPbVybuGuu5i5fUgFehNYJkI3gxSKtlClq1f/hxnDr/HkXdfJ4lCHK1ZtWkbX/7jb7Js9QoCR6OMwRHBS1P81OCbFL+W4JlGVC2TUiVjw3+vtgJr/Eld/s+hwJ5Q8/2acCZlTDedE2FTnLJRGTpcTYcSctqQepolwC0i7E8V+4ziohGq1FcqBt6JDGlJ8e2cMM+xnXON4xMRqtUa+9/dxz/97Od8cPEMSZziaUWSxJQqJVKTopSivb2L+578I+555CGK7a1oz/1QXjixCH3x9FUps4FG3ryGYkg5dCufDSphMRF5jLUhv2Qb6wMU4wFxwfusy/MKUNQHLF3n9jcwnWKNYlYXYEF28lzNTyREkDhFhmq2+/KS1vmGVLCKwwV8duFzGofKx0zeE4+nmgrDsSI3g5SK1pp5Sxfxh//9f8Ox/YdIqiFzFnazcNFCOlqaKSAElSpemuAmCcqYSSTdsBS+rgOGKa90I3A2Ufz4EgL3RFiYGO6OQpb6Qla5eFrZ1JYYazAEzEdYrVx2G8V+rbkIJEBFYE8ktKJ4Mi+0NjrV6r7nO3fs4v/5/nc5c+ECzcUiG5asYePq1Zzr7eHZ7S9QrlZoL7bytbsf4pG7t1DIBkRpQlUpwvog6sYczemSutS7boeT61elfBiYelRexaMHl/l43E7EPGJyU+TLx4hcBNP8IaYBf4Yr4sZF4go6fFjqKXL1lvpPbBq8QeCDVdvAMwWBxyj6lMceshzFY/Q6NN6zjQTojYXOaXipSF3n7iB4WrNk/hyWtzYTJAk5BVkFTq0yTtYiNs1xyZd6XT7aVyFwAcoCb9U051IzRuBahO7U8GBYY0VUpaA1OjT2Oktt+kVrq2tvq0fnzaIoxg4vex79E/a9IxJWuZqtGYOvbBQ+ODTM9596ijMXzrN68S1864mvMW/uXA6+d4gdr/yKalijtdDCl+66j8e++hCdLUWIQkhijNKkjiZyXaquS8VxiR1NiL0PrvagS+rKotlQpXwYpPVO0KN1eeJqXO5QIa2SXBaVWyJPbA0kk0KgPuvwnEXcMBJ3FczNqk/4ABFbTJPUICPhlAQONnq5iM8BAvrRuErIi20Fb3RiGmzXZcL1a8BnirTevRmJ4E9IqQjWXyU2kIjtKotS67K4kphiGuMl9mbVMDYezuavr/KGH+aLvsKmqcDpRPNmbKjUiU0JFFJhQzlkdVqjEEU4MajEg4wHdWmkSlJUNUZ8F9cRWlKHpQaO+h4jAlH9XAwJvBbBrQF0AMYIQ/2DnBu4QCbj88gDX2TO3G72vLuXHzz3NOf6LtBaaOahzV/giT94jM45HWhdL16J4EiKa1L8JCEPpEoz4ri8LR6O71H0NK62E6w8Dbp+3sYafGZZlTId2MKwbdGf6PFvpYfCBRz2SMDtQOsU4YkSgVqC9JehPY8K3M/cEGcJN7Sw6X3Sv0ABiRMYql2RwMEWxeYQ0SoxohyMKFKlqYqVD6bAsNL0iMN50QyjiRT1v310J8mmVKAvhqzGpglEiIwwFAlnqglnw5jh2DASG9ox/Nf5lIy2y2atZ6lb6Fq4wlsIUDLwQhX60vGA3RGho5awfKBCwQlRpOMrgmoMWqGyvu1/9q3vh5ukNGthqXK4NYw54blE9c8WAydS4YNY06wNrtYUmop0tLRz9OQJvv+zp8k8+xvOD52nVC3T1d7JY1sf5JHHH6wT+OVFvcZqBQCTMhwKvy7HDImiyXNo9jSLsh7Lci5Nnq7LcRWD9Qafj4PDHQQf8BDyYuiSlG5S2khxsQ+ZrDa4Yq8HFyFzNR8WI7bDs1egLYfK+Z/kCO6mwYxIfOI0l8snu0y5xbiygOktpceWkhPeZ7rHNv6u03gfLo0Cpndsk5AaKEdWGyty+RJR6mPHEDzqlfy6mFlIEWXGbsYUG4WHwBAuZ5XLCVz6lUNNFNG1mzyvC4nAhVDIa2EgTDhRTjhVjRiMDaExJAYMNhqPFRwOFV05RUbVl8QTz8mlkXhjmdGAmsaya6oPeYVtRGDAwIFUCBsvFaEpTllUjugaraFzpv6EsjtXWoPn2KVgauwqKowQrXA8h2ZH2KA1O3Eo1R+wAKMGfhvCqkBRdBQdXR380Ve/zj/89Idc7O3FlAyu57Bm+Wq++ZXHuH3zRppbipf3BUyRRkgFziUwGBuGBIbjlHNKcbQU8rbjsDTvs6rg8f+z995Rcl7nmefv3i9U7pyQ0Y1MBAIMoJhJMINUoEgFWrKlkWbWZz322Tk7Z3b+2vGu58ye9czOeHdmfda2LHkUaVKUZIpikCiRYiZBgCAAIjaAbqADGuhYXfkL9+4fX3V1V1d1QCAJEv2cQ4Dorltfuvf53vuG520Om5wpBOJyHyZsICw0rcKnHZ8leCSUi4UqWuKBHIaUxR1NWUKCKP+7rMNT0W53fUjmwTaC6s6pa7fiWZ//+p/PZ8Wsx5zHmHnyxfnxZfnngh3Y3GPmTeLSMAhHo+gJzeOiut1si1JKiWVZk85uIYpWyTzGTGCuixdB2luZtTPHGCFE0Ph3ir9WzJXmNX2MBsNVICUyVlmkUSoRqeoTFhUBIKs4Jqo1NcAiYDM+oxqOewadjmDMv/AGrDPBBwYcxZm8z5lcgaTjUfA1btGfPfVwWQ3vKsm18TARS0x54TKNrCcuu3ovkxkfjS79Uf5l1SACF8+JUY+0dktDI75iS6rAZ4ZTNLsFVFbj+CZmSCJVkNcqEAgvyC1Xjo/vKLANDMtAKk2tqVmF5jSQKx7OAY5oyMXD1FiCSG2Ym3bexuKrVvL+roMkk2lWdizmqi3raG1pDgp3qp565fUXPM3+tEu+GKpUBO4szwdH+2TTBXoLPi1hG9syP5RYiiCQvYhLaLc062xFq1TFAh8DUaUSJXj+M7xggWo9BYWQwQgpwFFgGCXVrQtZlxV8UfzZbDAMY5r9NjdfGKaJMXUtzzFGSkk4Gi1pxJeubbYx0zhWCIFZpRhuOuZJ4gLDMLBDobJAlVH0LVYfIop+QIMJKhClwM0sx5HBIisbM8fZSWmUNf+dzxvPkJPnFXzH7A9eTB2jQfoq6OMYrj5OQFWrskR61cYUP28W/wsDCQ1taK7yNHszggN5QeESE7mHQAuDukiEWEiR8xRZzyXn+ji+wtc6IBWg24chaVAXMbFm8WlOeHErKXm6qT4Xpr8hJuG4mi6lcHTwGYEm4mlWpQssyuUJmyB8jZ/18DOBhroZ8RAhE2kGriCtNdrTSCGDd65tBEFRyheHAtIaxqRBc8TElBCJhlhbdxUr1q3CVwrbMrHDdvBdotrVV1pwSsNYzuew6+DoCbnmQCs9ZJrEreC/kJQgxXk3VpkvIgK2RDQbI5oGC8JCYGAEa3XSbpl2Lcw5lyt+PnWMAO0qhC0RMuCG81uX1flCytks2KmG5Pw5xjDMsr6xc3GMEAKrgi+NWcZVcqwojpkL8yLxCeKtKI+e7e3FhB02XYnw0o6h6ufnh8ox8ziOFghfIdQ8XhbV+GfuQ5T90xDBAmuTsFlruhyB48+P/s4HQghsIbCEJGxo6myz2DfXJ+15ZF2fvOdTAA5mFctjYJ1PlVDZVV2az3tCM+Ap/KmLXmsijochgi400vOQSPCLN01rlKdQgAyZCEtiuD5CaLQK3Eae65MNgZ62fjyCLjodgFm0xEwpS5rlF3I9jgo6o2eBsGkQMU1ilknMNDClxBCi6LX6cMgbAkO4yYStMU2LNTVnWZSf8kXM5RnHKIV2QViTxDrfdSkEReNt2hgxVwOZgPb5EDlGcJ58eQEcO4GPLbD5iUWxI0/FHPiQ4SjoKgiyMzTSuFQQAgwmt0u2FNRaJjISuIa09vElqIu+9ouzwiF4DDk1tZJSkJeCHiVZ4WqiCkIRC9OSCDsMUgRNmVWxs5Ep0EqDIRCh4rbe8Uh5Bl1hgVPleJlLnJ/tAxktWJWIBJ2RCILZig+XuKdCAaM+nHEEDabG/gjndSAzqQLdkAsyChawQOLzRkBiwlcVW0WtNK7r4rkeWuui/ytQ1FNKk8sGjYOjiSjGBZQfKx1kkBzMC/IfQVqCIJgYtoSIFCwxYaklqDc1UQPiBkQvkzzfMkIVkDclxxM27YOScNJFJgxkyEBaEiwTXC9oaADB+0EKiAVZEtrzEb7ClwZFTaIyaK3JOw65jIcSGiFkoJxYtMTzuTye5xGLx4LnPI9bFJGCHQ0m1/mQ9iVnXTjtBNk2BRXII3wUenAZBXuygkWWpvWjThoJJCcJFD5ndtEtoDoWSHw+0IGPT3q6xBpaa3zPJ53KMJ5M0tfdR3/3GZyCQzgapmVxM82Lm/Bcxbsv70YhePDL99HU1njeWhmuhlMFQfpDcKNMQBCkfNoCohKWWLDC1rTZkDCC3xlCT8Y1PqTzOB9IAZFphTGWhlZPE9KBvDWaQCY15wbPMAhuBIRhCjCmWOe+xjAltZ5DS9YlFLVxi9a7zmXIp8c5dmKEfHIIXShg2TatS5tpW96GEIK9b+xjcGCYBx+9j6UdywK/+zyuIW4KYkaQBbQ8rLlaBZ2xzjiCbgd6XUFeBUHtC5TXmBMKGPbgSE5QZ2kiH/UDDoTfoej7vywm2CcECyQ+H2gd5OIVi1q01uQyObqOd/Gbp19i1963SabGcB0XrYMgmWkZGGYg9JrNZIlFY8QSYR78yk5i09qbzXXolA9HCpc+oAlBVowtg6yE5ZamPQQtNkRksK02xSRpf8T1JXPCQNBkSUwEHoEWS9hVrBjL0mwGucvK8VHKBD/oDantYnaECkxc7QGuChIiLAOhNPGCzzaV51jYJON6OANnyL39GqP73uS5XBLT84sd74Mdl2UFrcly6RyGNHEcl2/+2depbaiZl0kb+E8Db44hgoLGuIRGS7M2CmlP0+cIuh1Bvwu5D4nQ8xoOFwQbPE3I+uiLKoUGoRR6jgy2BZRjgcTnQlGVcKKQRyvN+Ng4r7/0Ov/4xBP09vaRzWURQCQSIRwOI6TAcz1S42kc10GjyeayvPjbl7j1vluIxiLz9ne6GrrzglGfS+aLNQks7oiEpZam3YYlIU3MoIy4L3fYElaGJW9JyE/sUnyFGCtgWT6WGVh1ftYLgpSWQCgZhDOkRBsi0MD2NcIKMiSQQXZDo1sgnALnxGGSz/0MdaYLchl8rQmHwkSiEaQhS8/Z9ZySK+3NPa/x4Ll7SdQlkBfg550gdVsEOduxIqGvj2rSPvQXBCcKgj4vIPSg0/3FQwPjPpzIC+pMTfhjmANCETwTg4/Yp/PJxQKJzwZN0WJTxaCeJpPO8Mpvfs8PfvQjevv6UMpHCklLUyv33H4PW2/YjBWyGOg5y9tvvMsHxw4wPDKE53v0n+vh1PFumpobsULWvA6fU3AkH+hkXwwkgUskKmGRqVkVgiW2Jl4kbkt+8uQsLAGrowYRKUj5QWWRq2E0r8i7ikiDgYhYCEtgTKhkCoEKooZoN/DDyrARZEe4CqUEGKAyBfLHj5D59T+izpwC30MKSWNjMzdeezM33n49ido4Z/sGefXlNzl8/ADDoyP4vsfY2BgH9xxhyfKl8+7UMxvkFEKPSmgwNWsimlEfTuUDQh/xA0va1Rf3si/oYNe3IaIJiY+JR5VecKmcBxZIfDYUpWUnihY8z+P44U4ef+IJevt6UUohEDTUN/ClLz7K/V+4l7rGOoQE1/W4aceN7N21lx/+8EecOt1DPpfn0HtH2bRtU1US11rjuR75XAHX8fCUotcR9GQM8oaNEQoFuelVVpZWCjeTQbmVYTAJJCSssmFVWNOoNSEPrJxARkKY0TACgVNwyaSzKDW11HLyWNPznkUxtzWWiAZt0aqeVxD0LeQdXMedMk5ih6wgr3raNemiSmA6lQ2yRwgsXDtkE0tMNk8whKAlLFkZNhjJOzjpNGosRzqfpmc8i+uYNOoaIrVhDNsM3CWyWDcYsooWOcVycBftKpQWOFmX3lM9nP7tT3HOnALlIYSgubGZrz32Ne584A7qG+uKlrjP9tu2s3/3Ph7/yZN0nTpJPl/g/d37ue3+W2Ykca01ruOSTmXQWhMOh4jEIjN2fvJ9RSqZwnMnnShRw2BbIs6mqMmwJ+jKw0kXUr6g4CuymSye65T5waRpYsXjwU5Ea5Tn4TsOynXRfmDP90s4ltWsDGlMKTBNg3A4hBWyK+I5yldkUhk8r3IvoDUIKYjGIli2Fbgh01lct9IRZIes4PqFDBIHfIUWC26V+WCBxGfCBIFPuFG0JjmS5JmnXqC/r79UiRUKhbnxulu453N307RoUifDsm0i0Qi33n0rzW3NPPH9n9PZdZSRkVE83592qGBBj40m6Tl5mgO7D3Gqu5dUJseghrF4DeGV7TRv2kispQ07UYOYUjiglSI7NMTJZ54m03sarSa/XxAE+1q04IyEXWIykytkW1x97SZ2PHgn0XiEfbv28etnXiadyszrFgkhaGio4/4v3s2GLRvKustrpcllc4yOjNJ1tIsj+45x+lQvBcfFMAyaGhtZvWEl67eupW1xG/FEvNTt3nM9Du89wlOP/5LxZAoA27K46qp17PzS/bQsaSoSP9SYgnvqDI4d6aPr2adJj4zy5mie/Y5Hwg5z1+pr2Lp+DdRGCNWFkKGAGJRTLNS3JEqDn9f4nsZxFL29ozzz6gsMDZxCq4BwouEod952D3c9uGNKcFpg2RCOhrn17ltZtnIZz/z0Od7Z8za+nl3fxHVc9u8+wDM/fZ5CvsB112/l/kfvJVYToxpxpZIpvv/ffkJ39+mSTnlDYz0Pf/VB1m5ay4qQzWJbsM0PApTHR7I8/esX6Dn8Ab4bJEsKaRBbvpK1X3wUads4yTGSfT2MHTtOpucUbnIMpXwMDQeBRgkh02BRawubrtnA+q3raW5pLrWiA8ikMvziv/+KU6dO4fuVRB5PxHng4btZs3kt+VyBZ370LF0nusrWgG3bXL1tI3d+/g4isSBeNOFWQU4YFAtkPhMWSLwaJtwo3mRStue4nDx2gj373yVfyJc+Wltby4MP30NTa2XWiRCCSCzK5ms209LawqH3DrFybXtZYFMpRXo8zcH3D/H0k7/i0PGDZNIZ0AJlmDhofN9DvCM482wNNRuvZ9m9D1C3ag1WJPCte7kcfa+/wrnfP4POpAO/PJAvFHDdQItvhKAS0DZt7JCN8hWO6/DB8X2YlmTTNZv4wT/8hENHDmKZFqZlBi+HXA6/lOYBQkiikShCCBzHRaPo7jvJv/13/4blHcuRUuL7PkMDQ7z1+7f41bPP0z/QSyHvIJCYhoFSCt/3MF4xaGps4q7b7+auB+9kyYrFwXG1xvMd+gdPcfz4CTzfQyA4fGI/nu/y5X/2CLWNtUFVnBCsjRlsjUDfYA+ZU8c55boYwqQtsYiU45LOgZAK7TpFt0qgRIgGbIlvGDh5Hxc458M7nV0cHejE8Qul51RbV8u9n7uThpb6qs85HA2zduMavtn8h1z33jYamhqIzxDA1jqIqzz5o5/x7nvv4HoupwdOcPVNm2mPd2BMbZ5Q5C+tNZlsmhM9RxkZG0YphWVa9J09zb/8V/8jGzavJ2JbhCXUmZr6qM+xzCgD3QcZHTqLBkJ1TYTravHyOc69+y69zz5FYbAHVcgXLXEF0sCMxcibFiNa4efzvPeBy2/f+A2tzW08tHMnd9x/B40tjRimRGvI5DLsPbSH4dGh4i4ugGEYdKzo4Nb0jYGh4rocPdHJu3veIZMLOh4ZhsGSRYvZePW6ivskfB20gVroJTErjP/53/75/zafD2qtS9bnBKQUFVvh8jFU6knL2TUHqo2Rc46ZZvOIeYxR086rWIEXDNFoVwc9k4pIp9L800+eZd/B93G9wLIxpcnq5Wv5/Fc+R01dYobjBS6HeG2Cpe3LaGprxLQC14NWmuRwkt88/SLf/d73OHTkEOlMitraWlav3kztlhsQK9aAMPFSIxRGBsn1dZE8chARqyXa2oZpmuTPnuHEj7+HGBli85qruH/H3WxedxVuxmVoeADPKwQWlmGwcfVmdtxxJ4tblpIr5Dh77hwDfWeJhMK8/uZrRCNRbr/pDm6+8SZWd6zm7MAgo6kRXN/FVz6xaIyd9+xk2+ZthO0oo+PDjIyO0FLXSsfaDqQhOd3Vwz/89Q94+tmnOd1zinyhQGNDE9dt2c51265ncetSCk6BseQo54YG6Tx+jBOHu1iydDGNzQ1YlkV9Uz3Lly9l1zu7SI4n8ZVPLp9jaHiQ9o522ha1YpjBbsQ2JDU1CY7Fmhk6dBA/O45d08IN27/MupZ2hGfguRqvoMmnFelxn8y4j1fQOAXI5TzSjqYXiw/SeV7e/3uGRrrQOrAWTcOkY+laPvvIThI18eDZUV7xK4q6QNFYlCXLF9O6pBXTtior8BAopeg91cMTTz7B8OgQvvLwfZ+lLcvoWNuOZVuleRx8d+BuWLthNVErzIFDB8jlsriey+joKOd6hli3YQ219bVIKTEkRGyLNWuW0xCLs3/fPrQ0uP7Rr7P6oc9j2DanX3yB5NF9uKNDKCeP9j0QgsiSDpY89CVW3rOTG7ZspdUMM5IcYmR0mOGRYTqPnyA/5rCiYzmxRBQ7ZLO8YymGMjh2/BipTArPd/F8j2gswle/+hW237adaCxKKGyzomM5XQdP0TtwGtf3WLp4Cd/81h9x8903E6uJVa4hDcIoruUqy+tCOWa6ptEl5xit8Sv4Us7Bl9U4Vs55bguW+HRMWOFTZGW11mSzOfYdfL/MCrdtm9UdqwlHwnNmmwSCOOFSoEhrTSaV4aXnX+YnTzzOmYEzIGDFkpX88Z/8c5Zv3szv3SjdDuTTafrfeYPTP/s+zsg50qc66X7ye9i2xYbrrkP2dBHNZ9iw7Xr++Z9+k7Yliyjk8oTCITp7juCkAosyGo1wzwN3ctu9t2GYBj2nevm7//e7dHed5OUXX6e2ppbH/uAr3HDLZ4jGoyRHkgz0DzIw3E+ukAu28PWNfPaxh2hpbSEznuHtV97iqZ/9jP3vH+Suz+4gnU7zg7/5Ea+++QqpzDiGYbBu1Vq+9cf/jPWbNhAOh1G+z/DgML988jme/82vGEuNsWf/bpz/5vCv/pc/Y/WGVUSiEZauWE40FCxsrTVKK/oG+vn+d35IQ3096zavw7RMDCHoqI/w0KZV9Da1MTI6iNPSxvEbNxDN2iwfzhHNudS6UItGonAxMXwBDgybku6aCAfbYpxNeQykuvH9yXpNKQwSsZogZXQuzQwpCEXCxalU3aFSyBX4YPch0ul06We5bI43X3ub2++/jUi0MnvJMAyaWhtZfdUqbHvSbVVw8uw7uJcnv/8LvvWnf0TzoiYMQyINSUNLAxu2XoUdtjF8xWc3rWR5Rz0nHZPYV77E/rpaTj7zE9xM4LIyY3GWPPQIy265nXgsSoet2HbHNm7Zey1//7ffo+t0N+eGzvLci89iWxZf/vYj1DXW0bK4mfsevo/+/rP8+qXnyeYCd5zyFZlktqQZIqWkpi5Rui91tbX8wWNf5cY7biRRmyg+52k3SxXTe+0Fl8pMWCDx6SgKIk2dTcpXjA2NMDo+jJrib7Ysi2UrFmOdl3ZGAM/16DzcyVM/f4ozZ8+gtKImVsO9d97D1u3XUkjUkh0zMMMQSyRYesvtZE53c+73z+LnM+TP9DD0T4/zmfWLsJbXs+Sue7n9/ltYuWZlsVrUIBINB2JMRUgpiMaixGti2OEQsUSM/+nf/AmvPv8m4ZBN27IWrrv1OmrqaxBC4rou4XAQbIJiQFIaxBIxErVxEok4dz24g5bWZsZH0gghOPjeQXbv20UqMw5AS3ML3/wX3+Daz1wb+FKL31VTl+BLf/hFRkdGePmN35Ev5Dl87BA/+9E/8cf/+ts0NDcgDVlUvZsUOPI8l2MnjvLD7/4j//Jf/zFLVixGGpKYIbm+PsTzVohxIfClYLQ2zJ5FtXQuSZBwPLYUFNdFDWqbQmR8wcDpNP0plyNxk+7mKOO2IDeawnWzTI0GGoZBc1Mj5jzEiOaC1ppsJsvbb7xLLjdpEDiew8ne45ztH6ChqR7DrDKnBMUAcvmPM9k0r7/zCh2rl/PAI/eXdoWCQGlUELiQErbB0hAsigquWtfKsuRWvvviz0kWSVwaBuHGRqxoFG3ZnDUhXm+x/eYbSI+l+Zu/+zuGR4cZHhvihZdfYOO169l+y3bssE1zWyOf/+qDHDr6AZ0nO1HKp1AocODAYR7M5YklYihfMThwjlMDJ9Fas3xJO9fefB2Jmpl2sUX4KtB5WMhYqYqFFtTToKdZ4QC+5zE0MITrlWd+GKaksbUewzy/xa21JpVM8fwvfktf/xmUUkghaW1p4/adtxGtq6HflaW0QiEEiYYGNtz3APGGpsBi8T1Sfd10vr6b1R3L+PK3H6F9bfu8z2WiUKV9TQdf+vYjfP6PPsvN99xMTV1NaUHNJfgjpCBRV8P1t17P7Q/ehuf5/PaFVxgdG0OjCYXCXLP5ejZevbGYeTD5fdIwaF7UxF0P3E48Hgcgm8uw6/23OXnsZFkWxvRzyRVyvLfvXZ5/6gWGz40EWUICQlIEaXFaYzp5ogY4EZNztSFON8U4tqyGXEcdoqMBs70Od1U9vavr6FxWw1jcwpPg5/MVEqqmadDS2ohZvLcXU/SklGJkaJiTvZ34nlfm/06lU+x+/b1ApmEeZDVxTzSa4dEhfvb0zznw3gGcglNKifUcZ9IVoDUSiBjQbAvW11jYZXnsImihRpCmmPJhxJNEauJcf+t2Vq1Yi2UGWSaDQ4M8908vMp4cL/m2V7Qv54H77qeuphYA13Pp7jvB0LmhUhbLm799m2QySTwR5557dlDfWD9jRk4JE4bVZVdudnlggcSnopRSWD5ZfF8xNjSGPy2NSkhZlvI2XyilGDx7jvc+eJd8IVCsjoQj3LD1Bppbm/GEpKsQ5PwaBOmB66IGn1+9iOvXXU3ICrbruVyO9/fuw1eKRG2i5COeLwKdZINEbZx4TTxw95xnsrgQAjscwg7ZnOnt42DnPpxi5kcsHuWOe2+mpram6nlZtsXKte3UJuoQQqLRjIyO8rtnXyGTzk45hiQajhOLTPpMx1JjPPObZ/jNL19kfHS8qH2ucT0XoRUtCB5qCLEuZlJjSzAFAwJ6s4rT4z6jriZaa6ESNsqWRAxJgylotWWFDpOQglBobl3n+SCfzbP3rX1kMhmaaptZ2rwC0wh84NlsltfeeJ3kaDIwJmbhLMMwaW5sKY1VStHX28sPv/djuo+fwvcVECg2QrHo2PUC/R8Co9aaZthKoF4KYjKYdwUN3QXwtKC+sY6777mDWCwGQMEpcPj4B5w7cxblB9Wr0XiUW++5hfWrNmKZNlprRkaHeelXvyc5kuR012leeu1l8oUCi1uWsf3W64hEw/O7cUVphAUer8QCiU9AE1TuVWmxFiyASuGSoLLu/Be28n1Gh0bJ5DIlKykUttlw9VrscIisgrOewJaw3NbcndDcV6fZWB9i2+a1hMKBT9TzXHoHT1Mo5CoDLx8xnLzDsf2dpNPpkusjHAqzYu3KyUDdNEgpicXiLG1djlV0HxQKeQ4cOUAulyu9TC3DZO3y9Txw504a6hpLPvJzg+f42dM/49033iWXCT7vKQ80JKTmjkaLP1sW4eutEW6osVkUMWhJmLTXG6xttVlcbxOJGKyJmtzfEOJPl0T5g9YwiWpVlhPpnBdxj7TWZDJZ3nxjF2jYcdud3H/fPcSKaXW+8jkz2M/xQ504znQNxXLU1tbwta99lVXtHZhGcO9c3+VI5xEe/4enONs/iFJTvPJFTfjZzj8qNTviirvjsNwKfK09btBVyg6FWLt5TWnugSaTzXC6s7eU/y+lpGVRMw89fB91tYE1ns1meeWtVzjywRF+/YsXOTNwBsuy2LRhM3UNlZk+s9y8oHJ6gcUrsOATn8CEPkoVCEGQwzw9cK41ruOdN4EqpcnnCpNdkgi6EzW1NSJMg5QnqDU020KwNqypNQOrybUN2pa1Bh2VCLbR+UKW8dEx2hYvOm+3zuw4v2tyXZfu4z2TC1pIYuEEodDs1r1pmrQ0t2IaJo7roLQilR0jm8kQncgZFoLauloe/NJOPK35ze+D4JnSiv4z/fzwBz+mqaWZ1iWtJf+57xcIG9ASNmiyJZ+pN3F8jZfxwddkCppsQfNIW4hIKOhhaXgu71uy0rLRwYv3YjtbaqVJjo1yeuAkoXCI2+6/hWg8ynO/e57x8XE0Acm/9eputtywlVCosmPUBCzLZNO2TbQuauVv/+Y7nOo5hVKKXD7L27tfZ+XTy3joSw+U5qYmiO3MBgnUGrAhplguFfszgn4PsgoSlqSusQ7bmrScfc/n3JmhskKfUDjEpms20bF8NWPJMVzP5ezZAZ78wc85evIwuUKWRa2LuPOBW85LQwgIUn4NuZByOA0LlngRWpWnFE6FNCQ1jTWlYpQJKF+RGk3NuTimQ/mKdDJdlk4khAj0OKQkYcC9tZprYppGM9AIESJw30Ti5VV9Simy2QKqSiusjxK+r0iOjxe38UUXSCg+r1ZZDfW1ZR1MfN8nn82W35+ilfeFr+6kfWU7RtH69H2fru5unvzhzxk6O4xlmAQ9nwPykgLChqDOkjQUC3tODjl0j7g4CpoiBo22JGEKzIky82nvHN9XjI9l8P2LI3HP8zjXdw7P81jWtoKlHctpWdTGuo6rsO2AsAuFPPsO7SU5MlqRblYGIQhHI1x747V89ctfpaWptZj6qBkZG+GXzz3N7jd3k88GOxStFNl0bvbvZFKzpdmCm2o0d9dASAg0AmmYhK3JYLmvFOPJdNn8F0JQ11DH/TvvpiZRA0Aun2P3B7sYGR/GNm22rN/KilUrzrOZBkVrvNLdeaVjgcShqBM+88QwTIOmtsaKLBTPVwydG63wlc8Hylflc7GoemSIQOyoyYTQvJvJV557sHu4BNH8ebYD02j8Krm0F37cymsyTIOOdR1845tfZ+nixSUyyTs59n6wm1d+/Sq5dK5iXPHmIqWgJmLQEJIsqzFZ3WwRMidDplIKQuFQKRtnAr7vcW5oCN+/ON1Ap+DQ+cEJTGly4403kIjHicWj3HTL9SXfsNKK0eQIR/YdxcnP7lIRQpCoSXDr3bdw3533UxuvA4IXWP9APz/44Y85drQTzwvOW/nz7ygiBUQNaLODnqNBYojANGxKD3YG70Y4HObqG7axbPFKTMNEo3HcAlprampruefBO6mpnSMjZQbo87iGKwULJA5MtO2aaUoZhkFjcxM18bqylD3XcThxontO/+V0SCmJ1cTKrNSJMnWtdNBarAr/aqXJZ/Nl7hshJKFQqNgZe/pxPrp8LEMa1CQSpd2K1opcPjOn5ad8n2QyVbLgIeiZaodCZYt8wkIOR8Jcc8M1fOnhR2ltbil9ZnRslH969hd095/Am6gw1TB5FzVCQCQkaYoKakICU4oyQjAMk8bWJuLReNmxfaUYHRsrO8fzxYR42p739mGaFuuvXkc6nWFsLEnj4qayZr+ZTJY3Xn2HdDozp6tOSEFDcwOf/cpOrt16PbFwkOnj+z5dp7p4/CdPMj6euqBzFgQSDYagWLziU3BzpV6ThiGpa0xUNDoRUtDYVM+99+4gVsw8ArAMi5WLV7Fm45p5CcBVPaepnbUWACz4xAPyVoEW9UwsLoQgFo9z/dbt9PX3lYoZHNfhWNcRxkbHqGusm9N1oLUOIvlSBFktUyZ/sNUexNvizbjN9FyPM6fOlNLvhBBEwlFqG2uR1XKYL4UE3Uwdb6fBsi061qzAfsMilw8synR+nEI+h1Zqxq7lrufRd6YPz5v0pddE64hPzWgRAtuyig0pBIm6BHc9dBfjY2meevopRpKjKK0YT4+X0u485RV92FNeeMW/x/OKdMGhtcYkFJ3yopCCmppatqzfxsDAALli5pDvewyNnSOfy5XkZmeDLqb3BV3uiufjevR09TAw1MfKRR10He7mH//7zxgeHSGXzzI2OlYa7zgFDnUe4GzfGeobapFy9mUqDcni5Yv5xh9/jXw+z7vvv43jOniey7nhcxfty4fAih8fHSNXyJS+zw7ZrFi9FMuuPL9wNMw1N20j/kSUZDK4tlAoxKarriIaq1KZOV9o0J5CGFX8XlcoFixxKDV7mA3RWITb772Jhvr60gRUWjEyNsTet94nl5k5Q0RrjVtwGDo7xIkjx8mkstQ11hGyJ4NETt7h6AfHZ95Ca8jnCxw+eJxCfrLsf1HjEsLh6EfWj3EmhMI267esIRKZVO3LF/KcPt6D61R3Q2ityWWz9J07jesHJB6yQ2xYfRXhcKT0EpooMpq4RCmDasQHHn2A7dfcSCQ0ecxJwqp+P4SAqC1JWJAIiYoFEEtE2XH/rdTV1ZVeCEorRpKDfPDeB+SnFOhUux7P8xgdGuXUiW4yqUxJ3iGXzfPuK++hlM9Nt20nEo8wkjrHaGYQR+Wob6gvxQU0mmQyyZ7X9wY54/OAYRq0r2nnS1/7Ai3NrZPiaJfIZC0UHI7sO1YqUJJCUl9bz/LVKzCrZB9JIYnEo0jDZOJZCCGwbbvqrvG8oNS81uyVggUS1/MzNk3LZHlHO9dt2U54CvmmUml+9avnOHXydIVvXOtgW5scSbL3nb38X3/xV/zFn/8HXnn+VaLROGtXrse2goBWvpDn/QN7GRsZQ6nAXz71tJRSDA8OcbDzAAU3yMO2QyHWrFpDaEoZ9scFwzRoW7qI9iWrsMxgUeeyOXa99h6ZGdwCruPS29VDKjNe+n0ikeDmO7cTrSrhOqVYSEralrbw2LceZe3qtaU0u+BjAlMaVWncEFAXM6gLS0JVlE4t22LNxrVs23gt4dDkc04mk/ziqV9y+mRPKd96KpQKilmOHjjC3/znv+cv/tf/wNsvv00hH/iC06k0u9/fjZSSzds3c8fO2/mL//i/81/+63/iv/7t/82f//t/R0tLa+mEsrksb72za14uleCSA6neDZs3cu/t91ITr51zzHwRzL0Rfvvi78lkgl1oLBrn5htupX6mNEER/PGh2Mu6mIiwEOAErnQSryKEMxOEENTUJbjncztoaZ30xfrK48SpE/zku0/SdfwUmfEMTsHByTukx9Oc6jzFE3//U/7TX/5n3nz3DQbPDeI6LonaBA8+fB/NTc0IIfCVT9/ZXt55bReZdJa80mT9IOtxQvXulRdeY2hkCK0VUkoWtbVx584gTa0aJuRaPwoIIaipreGe+3dMyUrI89Z7b3Li6MlS67oJaBVI+779ym6ymcBtYVsh1q3ZxPqtV2GF5n4xGYZBx9oOvv6Nx1jUtmhKpWnxz2oXL4IA52DSw/cr4yBCCOoaa/niH3yOFctXlCoqPd/j6PEj/OBvfkzn4U5SyTSFfAEnXyCdTNPb3cezP32O/+Pf/yW/ful5BgYGSjsQ13Hp7uxieHSQhpoWampriCdiLFm2hJWr2lmydDHt7e2sXroWu/gC9HyP3rOn6O/urahene0Z1NbXsPPR+7l647aynd50aE3lM6E8DVEDntKcG07yu9+8TufJI7iei2ladKzs4J7P7SCWiM3r3C45fD1jYPVKwxXuE9fzdfkCgTW+9qq1fPb+z/LUPz3FucFzKK3I5XO89vYrnBsc5PZbb2Ll2mUoBSePdvPGG29x8vRx0tk0YTvCqo61XHPzVhJ1cTZv28Rdt97Fr379DKPjo4ynUjz7q+doX9dOfcdquomw1NbUuhmO7N3H8799jnQmhRCC1uZWHv7cF2hfM3Opve/5Ze+oiaq9+ea1K6VwvcmFrtForYKc6Sq+4VAkxNXbr2bNr9eTPrCHgpNnYKCf73/nR/yL8LfoWN2ObdvB7mR0nDdeep2XXv8d2XwW0zBpb2/nsT96hMbmhuD8fYXWqpj37QVB0imxCyGCbJKt129l5707efypxxlPBZotM727JrJ2LGPmTkamabHmqrV8/Q+/xne/+11O9/bg+z7ZfJbX33mVvoEebr3pVtZc1YGUgs5DJ3nzrbc53d/NeGoc2wzRvryDjddchWVbDA+O8Npv3yaTyRJeHEZKA4rl7cE91EQiYTZtvIr3D+3BKapkplJpfv+bN1iyfCkti5tBBxIQEyp8wf/rsneVNCSLVyzi69/+CudGBug8fqwoJVwMdItJ8bWjBztxCpNyu77nMdA3QHJknFgiSsFT9I2M88Lv3+Hln/2U5PgYpmHR0d7BN779hyzvWFaRdjuBQJHPL1XSBvOnck5eMJRC64WmEXDFkzjn5VsTQpCoTbDzkQcwLZNfPvs0Q0PDZLJZsvksB468z4nTR0sVim7BxXFcQmGbtrZFXLv5eh79+hdY3rEMwzCoa6zj4a99nmwuzxvvvsrIyCjHu4/zX/7yr9h2/W2MruxA+T7usWOceO81zp0dwA5FaG1u5qH7HmLHgzuIJir94b4fFGHsf/8QhfzkInUchxNHu9j2mVHaloZmXYBOvkB/Xz8nT50oSe9qrcnkM5zuOk08FidRmyjbSgcujja+/Sff4O//WtF58hip1Dj7PtjLX/2f/w9379jB4uWLGB0cY/eu99l3+D3GkqMk4gmWLl3Gt779TTZu3YhhGuQyWXpPnSabDyRXewf66e/rJxqLFNUgJ/2sidoEt917C2+/+w6HjhzE9xWGtGZc3qaExbUmlc3oJ74TIrEIN91xE0LCj3/0OP39/aTSaXKFLEePH6Gn7zR2yAIRdERyHRfbtmhubmHDqo185RuP0rKoheFzI7zx0uu8sesVsvksuXyWkZFR6pvqij5wje/5DJ0dZmDgXFmzhFw+y0uvvkhNPMY9X7gbaUo6D5/EcRwMw+DEkRM0NDbS0NxYliFiWiZrN67lsce+zHe+8136zvQjpCRalIhwHZfOg8d47oUXyGQnUzLHU2l+8vgT9J48w9L2ZXQPjbFn/34GTh2lkE5Rk6hh2dLlfOt/+Cbbtm8rpmNW3mWlFKmxFL1dp8tUPz3X5VRPD+fODhKK2lhWpVTveUFxpfsSgCtdT1yDnJIfPp/5NNEAoH11O1dv2UJrfRv5rANSlwJTE4JM4UiEjhWreeThL/Klrz7Cjp3FxgdFSVMhBbGaOBs2r2XVyg78HGTyacbHk3R3Hadn/x5O73uX/q7jZJ0CsfomNm6/g2988zFuv/tmGhprq/ojU8k0T3z3Kd7Z8zaecgnZIUKhEKZhMjQyTGHcY93mNYTCoSnXNTne93w6D3bynf/ve3T3dGHIII0xFAqhlebEsZNEZZTlHcsrSuqllDQ2N7Ll6k0saVlCOpnF8XOMJZMcPnKYd3a9y959e+kf6EULxZJFS3j4oYd57BtfZuPWjYSjYTzXY/+7B/iHv/8+Q0NDgWZ6IcvJzpO0tbTRsqilbPcR5EvHWdTWxonOk/ieYnX7Wm676+ZS1Wf59BCYZiD2hJhq3Iuy77RDNouXLWbr1qtZ1LSI1HgGJKV0QFV0x0SjUdqXreKzD+zk0cceYefD97Ny1QryuQJPff8XPP/r5xlPJbFMk7yTZ+TMGFdft4VINPD7J0fH+Ye//iG739+FpzxCth3cbzsUaI/393J0/3F2vb6bXXt2USjkEVpw8kQ3qcEs67esJVz2LAWWZdHc0ozpW/T09hCNRrn7nh20Lm5BGgZaQWYkRy6bRRoSw7JRhkk6n+dkTxf7Dh7gWOdRkmNDRGyTdSvW8MXPf4FHHnuYDVuuIhwJz5jCmk3nePEXv+PJJ59ibGwMy7KC+WeajCVH6e3qZ83aVdTU18yr7H7GdSkEyEqP6JWmJy56R+ZXhqaUwp22FTcMOWNvxWCMrqhmlIacOX9ZF8dMuxDDkDOWbgfBw2lVXKI4Zpab5XsK4amyIp+5SLzcNaFRvk8+VyCdSjE4cI6+rn7GxwKN6LqGGhYtX0TzohbiNXFCoRCGaVS99omekuPJFP2n+jj43mG6T/YyMJ7mjJAYiVrqOzpYtnE9Tc0tdDTEWFtj0mhBWFIRPCrkCux/Zx9dx09V+FMty2TVug42Xr9pRhJXSjFydoQ3f/cWqfF08ZZOXrwdDrHlus20r++orouidVFaIM/YWJLTJ7o5sr+T0919ZDM5QrZFS0szq9avZM2m1bS0tRKNR0vSBr7nc+Z0P+++uptcNl86t0g0yvbbrqNt2YTEwBR/rtbkMjn2vbufo/uPs/GaDWyZdo1lpzjt39NJfOr3KqXIZ/OMj48zODDI2d6zJIeTKE9R21jLslVLaGhpJh6PEQqHSk0/ctkc772+l57unlLQ2zAli5YsYvud20sFPvlsgT1v7KG3qxffq/R/S8OgvqEOpTTJsWQpXz1QoVzBlu1XE4pUPkulFKODo7z+4pt4rsddn72T2sYg4Ol5PtlUlmRqnJ7ec3zQfY69fSMkR0fxMmmEIQnVN9C8uJUd61ewrb2F2kSccCSELOqDz7ReXMflxKETfPDeIZx8eXaNEJKG5gY+s+OGouRx+ZdUc7XMyJNSgGWgphPyLByjixyjP2yOUQqngi8NzFlE6qpxrGmasx4HrnQSdxVCXRiJT/180HDWx3W90vVKQ2JaZmnCz+cYQaNkPwiYOS5JV/NaSpJGIi271KjWEIKwhBZL0x6GJlMTkpMFQoGmixOIdlWhK8syK7rOTD2vCeIq5AoVgS900dILWfPYDgeiS57jUSgUgvmjAl+6aZhBo+SQXWY5BX53je/7OPlARlWU3ByCUNiuuKelNDod9Cp1Ci52yMIqXWMVcp52X2Yi8enX4vs+vusH/SR1sDAt2ypqn5ePV0rhFJxSxWRwhEA5MlS87uJp4xQKeK5fNV5R0u7RTFsbAtMysGx7xmeplKKQLaDRgfVsyMA3rcBVMOZpOtOKU1mfjOsFa0mpIC4sDWpCJjuaDNoiRoU08cxGaNDw2ym4FdcjCK4lFAlVtcLPh8QRoC0TxQKJX5kk7iqE65cFNi+UxC/lmKmfz2vNkaxgyAvcf9NhEFji9WZA6AmDQP9jnue2gLmhlCot+ODlAZ/kYJomSOzI+DDowJAnyOnq2m8CqDNgU0wTmVbdCue/Xj6MMcqUgUU+BVcaiV+xgc3q9tnlBdP02VRzfmMWsq4uMSRMzBRV9VX6yYMA4gbEbWif7xhlXp7zSmvQ4vJfzB8iruzY7mU5KxewgAXMGwtr+Aom8YVqrwUs4BOP86nz+LTiCibxj/sEFrCABSzg4jEvn7jWEwEBNU0GdZa8SiYzDab/RlfEuSd/U1KAq/i2mY5V/Pz5WNbF8LxWqvxNPlvmSOmPKT+bwxV3vmMqPr/QwWQBlwmq6Xif11y+iDEzDdCAlrIojTslW0lrtJ6Jnz4ajpnOlwLQQjDToq7GsYIgQMoMRXkTmGdgU+O5LtlUajKqWyyGsMwEopoMalF21XGd0oMRQoC0MIWYMeTs+x7ulNxmIQTSsGfmMx3IuKoplW5Sitkjulqj0jlEbkKudEKvp7IF25Qh6Gndc0rpa9XnSlnJcWnMhKZHlTEVx2g9z/ZVC1jAhwQ9WinEJc5zvcw6Rlc3+mZbl5ogO8WNW2UZKpZlImfo6wqBvEBZ2uccHBOkTDqoKenIc3GM0opcOl3ipYmG4hM1BNWuZjrHCimJRKNzNkCfd3bKhMzm1JMyqpF32ZjA2i29WYQAPbsYvNI6aDU2dcycJ6dQaqqC4BxeIq3B8aDglI6jhZyVxIvqQEyaCiJ4s84yKYOZrMrGIGRx3EzHUAQJhVdwuH0Blx103qucy9KYufGTJvh8GZFLkLL6mKrrZR7r0peoiGRCyixoUTc7lFbFNOb5c4xSalrq89y9AzzPKxVvCSEwLHNWa346x0op52yqAp/aFMN5bHsm9i+lj+ogSjLTrKzYThW3X2K2w1UZM9F9otqYsmMsOO0XcJlh+lzWs7sgytfXeYyZ/rPZ1uUF64pf7PqaJ8dcxCH1PAd9Skl8bmgpAl/TxI0WEiGN2bd6/rRJJuWMHWugaIiIKRNZTBxnhjFaT35+wRBfwGUEbRR3nVMns2HMWoijfSoscTFdcXOy7BmtRdEQn77GjOruV63RV25qRglXJIlrIXDjNkSMEmEa0sCwp6my6Ym/gi7bXn5Kf0shAv+WYc00v1C+i+e6Ze4ky7IRhlk+pliho7XCLxRKvsRPe1wz5Wp6c4qUF7yz6m3BiqjA+gh7gy5gflBNMTzfY9IFIQlFwkHpfLX5rzRevlB0DQRjpJSEIpHJysjp6puejzNtjQUSBdXVErXWaNeDYleoKxVXJIkjAstCC6P0b2maEJ4h6FDMZvHxSgQrhEDbFmIW/RDtCHxDl5G4GbIRllnd4NcaZaiS/vPHSeJ5X2NJETTJvcQYcTSvDnp0Zyqbh0UMuLXJYGPtp/0V9smCDpkod1LPXQgBtjHz7lWpwF8tpzzh0pgZNFMEaE+WBzdNibBmCOxN+NCVmNXX/GnHlUniUFl3PzExq0wWIZjSSHmKFSFEUXVqhgkmKf+dEIFrT1B9jNLF3398lmhPVvHbsz5jrsaWcF29wQ2Nl45QO1OKFwa8qlodADkffnPW50BSkfU1LSHJ7c0GCWvBOv9YUZqXuvLnMw2YPo8XHuGHgiuXxC9zXGq7Yrig6cspIoagIy4wqrwo0p7ml/0eTtGN6Sh4c9inNSxYGbt452NPVvHcGW9eCiRn8sEdSLqKtKf56vLZs5oW8BHgCrZ2p0JpcJRk5uZ3Hy0WSPwygNZBUqGvwVECTwk8DeFLxFt7Rn1eG/RLL4bmkODLy0zsab7n/WOqROBTcTavWXmRrRRdpfn1wPwIfDoG8hqlZ26ntoAPHylPgxIINIYIGk4XQzlXlIGtNCR9QZ9nsDUqiFwGgdVPBIlPTBb45E4YzcQbPHAXTqTFKgJd56yvGXdgKGeQ9gwyCj4X9uf41rkx4mhen0LgAIMFTVdGsy5RfjePpKpTbGPo4u/6B8kggDkdyyKCLXUGe0Z9BvLVLb2EuUDgHzdeHzMIAxGpqTU0NSbUW2BrjRSCiW6XgiDp69P4uLSGlBLsyVhoKdn8cZ9QEZ8IEgfwVKB5PNH84JMGrSHtC0ZdQVZrcgpyxY72jpqwxDWekvgXnPtaiT0j/vzcFzlF0q08bkhCe+zib/i+ZOVZhCR8bkmwI0i6moF89ZfWqvhlYO5c4RhxBVpLhNAYgCEEVhYihiZqBHrjYQlxE1rCUPsp9H7lteBw1qTLkSyr3jDqY8EngsQ1kPGgOxtYj+EZAuKXM4SAqKFx0ZzNw5CjyarAOp9KnRP/vhS0lfU0h6tY19WI+egMVviahKzqPz8fnM1rRp3KF8S6hCy5dM7kZn5xrU0skPjHDQ34AFrgFX8gCZpLSAFhqWmwgl1bzBLMXTf5yYKnod+RHMxLskpgC33ZcNAngsQBcr7mQFpRb0uWRj6c1LcPE4Kgy3qrDfURweksdGY0KQ+qGMCXBO+PKar1bdpSJ8v84UrPTOLrLwGBHk1Vt7DX10x+tz9D0KzGhEWXg+NxARUQBL7xiAErI4I1CUiYAnPWKuZPHjQw6kv2ZCVJX2AKTVhePhKwnwgS1zoguhFXs2dMU2tBrTlzo9bLFROTPmHB2oSgJQwn09CT1+T8S0vmrtLsG6skT0PA1rrylMHTWUW2Cs/GTVh6kQSqdXVfe40pWDzlu7fUGXRnK53m6xLGZWPxLGAShoCYAYtCglVxaAqJMlfnpyWRZcINui9rMuCCj8BCExb6suGfTwaJA57WOBpO5BSLU5ItNRD5pJnjRQjANqBZCmosWOFAVwb68pD1oIrn4bxxaFyRr2Jcr0tI4ub8XCnrE/KiJ2pPTpGpEtBcXyPLyHlshjfY2prLxd65tMh6mvfGFIMFRb0luL7BIGZe/vPZJGjK3WTBuhpBSyRwb0406f40QQN5pTmS1nTmBIXJQlLCcsGdct7wisKGGR92JRURKdlQI/ikxk8maifCBrSGBfU2rHKgJ6XoygdFLxcKreG90erEfG19uRXuKc3x9AwkXnPxRT4zviCmkfOR8crP1duClkuQGXO5oeBrHj/tMl58uXWjOZJSfG25dVFFTUrDuYLCU9AWFpiXMAPAEhAVsNhWLLEVdRbURkysGWRNPg3wFPTkNLuSiqkeQQmEFkj8/BBY4pP/P+rBnpSmOaxpsT/Z7rcJF0vYAMvWhCI+LYbmjHvhFuiJjKpq2a6MCpqmkeLJjK6aG95oC5ovkEBHHc25vCKnggrN6QjLoPBnIAfLYxJXwblC9cDndGQ9TX9ek/U0loQ6S9ASlhgiSKfcM+Iz6mqaQoLr6ysrPXuyinFXsygiabCrX5+vNb1ZTdrT1Nvlbp/p0MBIQTPkaAq+xpbBC7klNPMuZveoXyLwCeT8oLDqvrYLW5In0orfnfXIFMmmxoTPLjZpCV+ancyqiGKx6ZIwFJYAsyjJ8GklcFV0374zphl1yzlGAzklGHM1IVUs3CboFSAn/n+6gOOHiE8GiRfzqyduiq/hTEHz9ojm1gaIfgoccIJgS2oLTZ2piBuKC1VP2TNS3Yy/tqHy+2bKDZ9uKc8Xbw37vDPszzqB8wpePhecoy191swQPJ1K4mlP8+qgT2eqsud82IANCcnB8clipb6c5nRG80crLaQIdhy/7Pc4lS3q2OCzc5HB2kT5PTmVUbx41ivLaV8Tlzy0uHypeErz/phi35hivIqGQNSAa+oNrq03KlJiT2Wq352RC/Sjnc0rftVfXkg17sFzZzy+0W5fEotxc0KDpyvUKj6N0BrGPc2uUU1PXldIROSU4JVxyVtpRUgGBT8RKYgYmpgBzZag/SMs57xsSHxqQU81BpiuAltQcCynCI/BtgjEPkU+uYDML2zsmZyiv0rRTHNIsDxaTpZ5X9OduXRZKUlX8/bw+fmBHFXdldIcEiVLedjRPNXjVg2+AuR92DtW+R2jrmbEUTSFJPuTqkTgEEyxXSOqjMRPpCvJEKAzrejKKNqL0gMjjuaZfm9W0s368PqQz4m04uElJqEp8ZtstZSh4s+PjCtWxc9PyfHlc9VrAUZdSDqaugudTFMQkuB+yrJOqkHr4DnsT2qOZKrHlTSQVYKsAlFsRyGFRgJxAz5TIz/S7LnLgsS1DgpfMp7GdYMGOqLYh1MKgfSDRTF9/mR9+CCtEb7k6qgiLi+fiPHHhT0z+MKvq6+0wjvT1VMQF4cFNRfgm3UvsEip2jlMvEQ8pXmmf2YCnwsTwe9qvvnsFBMr6WpemEUWYLigaY8Fn/vpLC+U6TiT1zw/4PGFJZPRm0ZbBGXs0zDuwvMDHraEzbWS6xuMOYP3J9KqpDMzHRMB9AXMD1pDQWmOpjXvjSvS83jGE8an0mAKaA1J1iQEtoTsh33CRVwWJO4DZ/Pw8ohizJVoHcISYAiNBViGJqMC63s6MkpwIGcggY1Rj4TUl03+5keNpFs9SJkwqxfMVLOAATZcoCulKSTZVCs5lKx0eVRDjQmGFFULgSbO93BKMepc0OnQZAtipsDXmsEqPvepFurrg17V2MAEwkUyfGHAO+8XSldGczqrSjuhaxuqp1NOwFHBy/hgUnF/m0n7DBWrWsMbQzOfzOZaSfQTmsH1UUMTEHhXVv//7Z3Zj1zHdcZ/VXVv357unn3jcIY7JZGSLIM0KUaMRNiyBNiJAxtQ8pa3IH9RkDwJyJuB5CWAET9EDiRro6RIsihRMs19H5KzLz293Xur8lDdMz3ddZucRWT3iB9AcIAZ3O67fXXqO+d8h7MLmvloY5sOCQyl4EQv9PrCDsR4TGgLElfAUAD7Asl0RbMS16QRG42L0A5mcL1jBkvk54qKFS04nokYlDt8z5eAr+bdWvQxhy67HBruOrokJSRq1I+CN0c9fj4C/3E7bPJC8QT880GflLQJIGPg7evNDD1WtxP41tGuD1an3pcVfD4Xs5gwE+C56mL0oGSc0f54NWG5UDFcyrd+ZsbSkhsrmknHNRvvErw2pBgOJHeKVpJpzCtfXl4j8UctjS1p+N1kxK/HPaeL5IXlmNkESeeFHsnPRtri9e4IlDVcWTGcXTTMVjZG4AIYTMFP+yV7uwRKQvQYSbwtglYhIKsEx3oFh7sEQZ1DmsZG6q0iuxqR/6Uk+WzFYyGWm3LL62SUYuMkvJSEF3ubb/OlvHY+qPuzcsv198uRcZpZHcpJ0kqsLih3ipq8q4a8uohYP5Xm4xzICn612+NHvYrXWxBVLTGaJDfs7rJfxGVNUI+xtGAwEM7r2+fDWxMeY10ST9rrd9gROddXC11YevQ3XAPvTkVNzTOxMXzSIgr3RGd6DD1uGGyT3e0CfLSgeVA2bIR/BdDrwSu9kgNZQUqKx56ba5ulWgprmnMyZyOrO2VBtMHLUTKCq2VJakVyOi0YCnZmE4IL5xe1s+NTG/jtzWamXElIrk0WNf9+PWQwELw5+nBN1oUkmaaxZNClUwvWdgIXE47zcl2VTV+Cdr8rLeit/s4VPQvWSPxWoTWJnxxQlGPDdUcS+FifavKWKbXIDWgDFxrOK5B2sXW5PAIshnYR6K+Tf75Z0E1livW4sKw5PWRIP5VTEmGw+ZipUHB2RTMTig0HfxkFP85J6+kkn0wXeVtE4jVIAYO+4VQmYtjXyE2kwktGcKEoeG/WMFnSRLp5BNhORCMx1BAZSwCN/8KEp7Wk7d9fzWs+TyhVfBhcZYtpCfvrTLdiY5w15BMZsdq56DpOt8e6uu35hE7P+gXjnqPEwLaJ289x6eU17EoLDuUkV/K6qdRM0JxrMMZt5jWatp91w2Fx8EKv5J8OpPjVbi8xeq5PGle04bOH3JuKhv/b5P37oSDScK+i+CjvcafiTrC3QiDh2YzkWJ8gq56cDUhbkTjYxpexlOZUNmbA21xXVEnDlYLmDzM2UVGOzY7xcnAhNmbTNcatsLCJ+bNTJfd3aXRDvLFinOVbNSllumycem+jVOGKouvJdSk0zrb/8WoUHunkBQ3gzJCN+l0Lyt6MIFPXKh9qw7WEsrQ91YXngkOSWYmspPhMTjo7VJVgXRT+p3n9SB295xbc9sJPAaERTIaKj/OKuxVJZDbGNL6AfWnBK/2CPl88Uemq7UgcwJewN6V5ORvTr/SmiLxirLHUOzOa80uGpchOh9mJqJVjbjc207H5lyTHwkeQUqRYI+mkdv3ZyvoF2VWNM94lVv1hXFE42ByM/czka3c4JxjPSFYiw+1C88MTGbuAxsbw7oOIf7sa8rvJ5hUjrewOoxwbrjokmYvLmvmKPc6CY+Ga6LJ149rA+cWYL+ebr7Gr+ig2JNbtF2MbzX84HTFZ/OFkkGw5s+BGWfFhXnEvlBuWbRUw4sOr/ZKh4MkSOLQpiQOkpOFQEPNKbvMReWxgugLvz2nemzHcL2kqO5DJpdh+z+2Mgh87EqKtYIybfHPeWiUI2Ij1qoN892Vs4tMAFxOSf7cKhgfVWtOpkmHJsVuoXzCSfMqvVclUimRd/dSATRldXHYnge8WDdfyhk9mNF8v6sQg4Uh1F3Jx2V2XD1YrT9qdHO1RRNrWp//vg9hZCtnjCQ7nms/jwpJmtkEuMgb+607E2ZmYL+Y1/3k7cur9Ow3awEIEXy5LPsh7PNgEgUtgwNO8nI0YC2gLS+y2SWw2QmBNZg6mY5Tnc3YJ5sLWVSouGGAphu+qiYu/6oW9XfYXbXD9tw1vjipG08Ju51tstRdDt1dKjwdZz/phDAeCEwNqnVTwKEiqNnmuwQ3xar65lRnWyPdesXXSLl0NfVxRuAQO15G4K6kJdrcH9vkIFOBYDPpT9v+kRC3Y59EVGa9+jlgzHUsyGst5Vi75xBE1+8LuCN6bip2duDV8txTzDxM+V/LrT8QAXy3EvDG69qpfytsqjPq/mSyudaTuNNQSmPMVwxcLhvMrghVH8+DDIIA+ZaXefYHGl+Z72gNvDG1L4mAvWlrCc90CpQQfL2hmKhsncrB1oHdKhnciw3MZOOIL+pTB3yEmPp4UHO9XHHd0ZtagDbx9rYKrd+Zvd3vs2qJZUpIPy3MN/iQuycUTcDCX3F1Zw0ggVpt0Lrui+axYraiJtLvJB9Zkm28Wkmd7frtoie1BwjEyyjZ2tHoezwyr1Zr3pGail3rVqp7eiEM5STGG71osJGCtB/qrpmWN53wlr3lj1P4cG8Ons80r5DM7dASe7cKEyZLh03nDzaox20ZhCdxwMhNzIIgJ2uhytTWJQ5XIFRzpFvhS8uG8ZmoTmWSw5L8Qwbk83PZ8XkzHHEjF5NTOk1hcuFnQqy539ejzxZYJPKnapN8Xq5UZYOvZXQZQB7N22lCrKUNgpxKB9S9xJVDrF4z7JXeDmKrKT0uh4cMWtdZ/nI4528IL5if9iv6UXYBcOwuAmbLh0rLmZkE7F4ucB8f7ZaLUcrRHcilBzqnHYMpqsyMOEi/GsBIZsp7go5mYuYZVfLxLbJvbYbvAALG2RlaX8oYvlwyzoXsH+DAIoFcZfpKJOJyOCYShnfbxbU/iUIvIBc9kIZCSD+atHelmE+9lDfcrkqVIcCclOZaJGVGClGkPjev7wna32dfjWt44bREa3RBvFtzEWisJvF9KrrzIedatENzn4gk4VKcLJ0XhR7olaSn4/WTYsjIFkqPn4UBwrN9q3WeGFe9Oub/014vaOSQarPTzy10evhRcc3SMZhTszUguJxWQ1+F0tYomKclW1vDnudjpM/+yw92yU2EAYwzFCCbLmi8X4VZJb0o+gWoE7hlOZGKeDWK62tCfqSNIHKzkkVKC/RlBoAwfzdqtUUlv7uZoIK8Fl8uS6UhyJIIXPEOvBylp5wS2283aCiothz9sncSTpZT1x25MsoEl31oNuctHpYbTgwpPCgqRe/TcaFqsmx2a1JJ+YkDx0UzEbYde7kseSuxpab26ayWTh3OSD6bjDUV5EvjFmMdEtRV/xrFaHMhKpHB7BoElmKFA8Mqg4lDOdlUkJXLfn4644dgBHemWzpb+ToPB7oZCDWUDV8p2Ju9ilLxLehgE0F/txjzoVQjaaDhyPTqGxGFt2PDutODnw3BuUfJd3ibBNptbD41gJoLP83CxpJkIJIczhvGMLeDfKZr55eXmZhWwLeVJ1RmPiqRuxtFArKtvBvdAZClsbX+Au80e7DDeIz2K6bLmnfuxs4pDG1v5UtbWU/28IwJOKzi/EPMnh3Xt8X7Jj3oV/z0ZJS4AYJ+1Umzo9a108Yf70YaIoseHX+zy1lXsuKSUirbXK+nZPjEgeXVo7RX+Yi5mJuF7uwi824OfjnR2FK6NfXaKseB+KLlRUUxFgqV48wEeVKtQfDjdJzmSA8pg2rSAp6NIHKpELmA4JTg9AMO+5LNFzXS4+RXXYB+EcgXmQ83lAuxKCV7sFkx0CbIKOl02/3OClPL8NkThSZa2rgjf5W1d0fD2NVtVkXSZizH8y+VKy5fyXsnwr1fC1gMpYpwEfiAreG3Idkz+4z6f6yua2wU7Iel6AwFWNPz2li1OS/osJdYTs8DuFJ7vkbzQI5tGp/X7gnzDA3w5r7lyOVkP/3xOc2sltItJxbTcxTQio+CtCb/j5tRaucTeg7KG2Yrg8orH9bJgMZZUDERGbKlLWwkYTsFrfZLDOUFKGEq0r5V6x5F4DVJATgme74YcEZ8vSW6HgqLe/A2smeGEMRSKhsmKoccT7E/D3sDQra05ly8MXgftQJejBMdCsTXHwhpc+rSrJR3WpIdG9eBR7tl2/U0jdqUFfzO21vIuha0KOVSt2Pj9vYhLDrko6bME8Jtxj9FAkI+qk+E9Wg56eL5XctuRDHjY+Twom8TqmSQMpqyBWOMuqRNgjC2T/XrRcLMEs6GgGCtCs3HfExd8AWOB4LUBwf4uK8+ZNm/37lgSh6pOLmF3ynCmp8Klose3JclCJIi3qF7F2KHMhdgwV4HzEtL4DHua3X7MeMqwO7U95/F9Y6rk9o85sA2OhfnIcMexQEzUdU3Wo0sJXh9R/M/91iPcHgZf2MjW9dkbwUgg+M24t05Lb8Sbo4p8aFrWadcggTdG1artbPCIasXRbsXFZe2UPbYLSsBLvZJXh9S2DlF+nDBYb5+v85qFkKrj4PacS1raVvpXByS70wJP2iO3OYd3NonD2qDhXmV4KRMy7Cm+LCgeRIriFjSxGrQxFDTEkaGiNRfCEBNHHM8K3ury6dqOk/ieMRKIpq2/AE4NbD0KT+pmbJUsPdqjSCvBH6di50DnoGqfe7/k3kEczArODHv0+YKPZ2POLcTOZGTOsy6DM2XjtJs92iN5fUS1JHCwie6/3+PzxVzMVwuxs3pGAnsygr8eUoxuolxPCPi7MY8PZ2K+WWgeqpFR8Mqgbej6dDbmRuHRbSS6PbvjOt7XPDi6E6Grcsp22XsJ7PU9mpWc6hcMpqpDoLfp+N83Op7Ea7AdnrAniOnzDTcij+8KhqXI6qAbueHG2BckNoZQa5bDiOVKRCmOiLVtEMqn/bbVyBrR7Vu54P3piHxkuzPPDHubIptGuNwTlXh488iBrGT/fsm9kmaqbCjHdlc1FAjG0mI1UpwqWTfKioasgj0ZuW503KtDipMDkrsFqwlHxiYvRwJb+15LSr88aLhd0JS1JfextNyQnKAEnBpUnBiQTBYNM2Xb+RpIyHiCPRmx5V2NJwU/G/E4OWAnAeUju+MYDAQTXXJV7vn1uKQUG24VDLNlzXxop9KE2n7PlBT0eDAQCEYDyUi6U+jo8UNh6FbwYrfkZJ+1L+60TcqOIXFYS3oOeIahnODZbsHdop3D+aBiKMTJVSy1+tLYGCqxZimMyIcR5Sgm0hpt1iSJDXajtwWe7ZY8250i0mbbttKzFXdH5P6sXDcYOAlCWFvZ3S22MyNpwUi6tSYRSLHa7ZmEgZRgYBsGTiphCXtPZsuHSkTOEzzf0/q7ppV9vtlmz5wfCgSQFoYxX/NSVnO4NyDXgQQOO4zEaxDCRmNpTzKQgv0Zw7WC4dyyYS60JkO1yoEaeUfaUIgjFssh+UpE2EDcOwXbqYUmDW1orA1/iqdoJygMPQqOBDFHuyL6fEFGmY4kcNihJF6DFJASNgrL+YJ9GcOVvOHrZRuZayyBL4cRc6UK+TCsRt1P+pt3BlwNPr6EQ9kOfRueYsdDAsOe4VQ2YiKl6ZKm46d//T8fVSBjh2ILWQAAAABJRU5ErkJggg==;" vertex="1" parent="8">
                    <mxGeometry x="455" y="75" width="263.57" height="150" as="geometry"/>
                </mxCell>
                <mxCell id="26" value="" style="shape=image;imageAspect=0;aspect=fixed;verticalLabelPosition=bottom;verticalAlign=top;fontFamily=Lucida Console;fontColor=#9999FF;image=data:image/png,iVBORw0KGgoAAAANSUhEUgAAAScAAACrCAYAAAAkX1pWAAAACXBIWXMAAA7EAAAOxAGVKw4bAAAEZmlUWHRYTUw6Y29tLmFkb2JlLnhtcAAAAAAAPD94cGFja2V0IGJlZ2luPSfvu78nIGlkPSdXNU0wTXBDZWhpSHpyZVN6TlRjemtjOWQnPz4KPHg6eG1wbWV0YSB4bWxuczp4PSdhZG9iZTpuczptZXRhLyc+CjxyZGY6UkRGIHhtbG5zOnJkZj0naHR0cDovL3d3dy53My5vcmcvMTk5OS8wMi8yMi1yZGYtc3ludGF4LW5zIyc+CgogPHJkZjpEZXNjcmlwdGlvbiByZGY6YWJvdXQ9JycKICB4bWxuczpBdHRyaWI9J2h0dHA6Ly9ucy5hdHRyaWJ1dGlvbi5jb20vYWRzLzEuMC8nPgogIDxBdHRyaWI6QWRzPgogICA8cmRmOlNlcT4KICAgIDxyZGY6bGkgcmRmOnBhcnNlVHlwZT0nUmVzb3VyY2UnPgogICAgIDxBdHRyaWI6Q3JlYXRlZD4yMDIzLTA1LTAyPC9BdHRyaWI6Q3JlYXRlZD4KICAgICA8QXR0cmliOkV4dElkPmRlNzJlOWYwLWYwMGMtNDhkZS1hNzFlLWZhNzA4Mjk2NWMyNjwvQXR0cmliOkV4dElkPgogICAgIDxBdHRyaWI6RmJJZD41MjUyNjU5MTQxNzk1ODA8L0F0dHJpYjpGYklkPgogICAgIDxBdHRyaWI6VG91Y2hUeXBlPjI8L0F0dHJpYjpUb3VjaFR5cGU+CiAgICA8L3JkZjpsaT4KICAgPC9yZGY6U2VxPgogIDwvQXR0cmliOkFkcz4KIDwvcmRmOkRlc2NyaXB0aW9uPgoKIDxyZGY6RGVzY3JpcHRpb24gcmRmOmFib3V0PScnCiAgeG1sbnM6ZGM9J2h0dHA6Ly9wdXJsLm9yZy9kYy9lbGVtZW50cy8xLjEvJz4KICA8ZGM6dGl0bGU+CiAgIDxyZGY6QWx0PgogICAgPHJkZjpsaSB4bWw6bGFuZz0neC1kZWZhdWx0Jz5TaXplIC0gMTwvcmRmOmxpPgogICA8L3JkZjpBbHQ+CiAgPC9kYzp0aXRsZT4KIDwvcmRmOkRlc2NyaXB0aW9uPgoKIDxyZGY6RGVzY3JpcHRpb24gcmRmOmFib3V0PScnCiAgeG1sbnM6cGRmPSdodHRwOi8vbnMuYWRvYmUuY29tL3BkZi8xLjMvJz4KICA8cGRmOkF1dGhvcj5NYXJpIEthc2ltPC9wZGY6QXV0aG9yPgogPC9yZGY6RGVzY3JpcHRpb24+CgogPHJkZjpEZXNjcmlwdGlvbiByZGY6YWJvdXQ9JycKICB4bWxuczp4bXA9J2h0dHA6Ly9ucy5hZG9iZS5jb20veGFwLzEuMC8nPgogIDx4bXA6Q3JlYXRvclRvb2w+Q2FudmE8L3htcDpDcmVhdG9yVG9vbD4KIDwvcmRmOkRlc2NyaXB0aW9uPgo8L3JkZjpSREY+CjwveDp4bXBtZXRhPgo8P3hwYWNrZXQgZW5kPSdyJz8+s581+QAAIABJREFUeJzsnXeYHMW1t9+OEzbvKuccEEkiCgkhZDDYJhkMGAPGYIzTdcDp87Wvr3HCBpuMMbYxUWQQOUhCEgKECEooRyStpF1pc5rU8fujp3tnZmejVtIst9/nmWelme7q6uqqX586dapKGD9iiI2Pj49PjmDbNqqqIh7pjPj4+PhkwxcnHx+fnMQXJx8fn5zEFycfH5+cxBcnHx+fnMQXJx8fn5zEFycfH5+cxBcnHx+fnMQXJx8fn5zEFycfH5+cxBcnHx+fnMQXJx8fn5zEFycfH5+cxBcnHx+fnMQXJx8fn5zEFycfH5+cxBcnHx+fnMQXJx8fn5zEFycfH5+cxBcnHx+fnMQXJx8fn5zEFycfH5+cxBcnHx+fnMQXJx8fn5zEFyefdrFtZ79VURQRBCHtOx+fQ40vTp8BuiIY3RUV27YRRRHTNGlpaSERjyMIAoIg+ALlc1jwxamPkioQkiwjSZInHO4HHKtHkiQkScp6bntpi6JILBalsLCQ08+YzbjxE4jFoti27QuUz2FBPtIZ8Ok+rngIgoCmacSamjAti1AoiKKoiKKIbdvouk4ikcDQddRAgGAwiKwoWKbpiUy2tCVJIhKJcPIpp3LvPx9g8JAhmKbJPXfezh23/oVgKHQE7trn/xrC+BFD/FdgH8IVj0QiQTweY9jwEZw6/TSOOe54ho8YSUlpCaoawDQMIi0tHKg6wK5PP2X1qpWsWbWShoYG8vPzkWUZ0zSzChSArus8+dwLnHraDAzDQJad99h5n5/D2k8+IRQK+daTzyHBtm1UVfUtp76EK0zNzU0MGz6Cb3/3v7jw4kso69evS+dv37aVJ+c+xhOPPUKkpYVwXl5WgbIsi3A4zKBBg90Lo+s6iqIwdOhwVq1c6XftfA45vs+pj+AJU1MTZ37ubF558y2uu+HblPXrh2maHZ5rWRaGYTBu/AR+87s/8NzLrzH56KNpbGxElKQ0HxWAJMk0Njay/P1lAMiKgqIo1NXWsmbNKoLBoC9MPoccv1vXB3CFqaW5mZlnzOaJZ+chiiKJRIJAIADAju3b2Lh+PVVVB4jHYsiKQllZP8ZPmMDko6agJo9zz6mrq+P6a65k1YoVBAIBT2xcf5au6xQVFfHTX/6KU06dTnVVFXfd/lfef+89wuEwlmW12yX08TkY3G6dL045juu4Nk2TvLw8Xn5zIaNGj0FLJFADATasX8etN/+Rjz5YTiQSIRGPY1omoiCiBlRCoTAjRo7ikksv4xvX30A4HCYSiZCXl8dDD/yLX/3ipxQVFWNZVto1XYHSEgkKi4qIxWIYhk44nOcLk88hxRenPoQkSdTV1fLd//ohN/3xz571s2bVSq66/CvU1tSQX1CAKIqIogiCAMmummmazoheNMrUE07kjnvv46gpR7N54wYuv/hCWlpakGQZO0NwUkcEDcPw0u7IiX44aW+0sau/++QuvkO8D2GaJuFQmDM/dzaAN3L2p9/9ltraWkrLytB13ROjVARBIBgMkpeXx7q1a7j2qiv4819v5947b6e6uprCwsJ2BccVKFVVvXxkO0YQhLQ4qoO5z66KjiuWlm17oRHu/boxX5Zlef40X6j6Hr7l1AcwTZNwOMzrb73N8BEjANi1cydfPGs2uq53qeG5fitd0zAMA0mWURQlaxcttSvZ3NzsfGdZhMJhQqGQd457nGVZNDU1Ov9HoPsVykmnsLDIi9HqSCwB4vE4sVgUVQ0QCoWQZRkbMHSdaDTidYNVNeCJlC9QfQPfcupT2IiSRF5envdNQ319mp+oM1yxkRUFWVEA2vUdCYKAaRiUlpVx9Teu86yvDz9YzoqPPvRinARBwDJNwnl5fP3ab6KqqpOn7oiAbSOIIoauM+/Zp2lqampjhblWkSRJxGJRTMNkyjHHMGv2HI4+5liGDBtGfn4+tg2NjQ3s2b2L1StXsmTRW+zetZO8/HwkSfJ9ZX0MX5z6BI6wRCIRSsvKACgtK0WUpE7DCDLpSgiAIAjohsGAQYO46Y83e9/fd/edLF28iPz8fAzDcETMssjPz+d/f//H7t1SFhYtnE99fb1jBaWMHrrduKbGRo46+hhu/NkvOPvcL3jdzUymnzaDy664kvr6Oh598D/cd89daJqGGghg5YjPzKdz/DinPoAkScSiUfbuKQecbt6IkaOYNGky0WjU80F1Rmaj7KiRCoBlWsTjcTRNA5yulCBm67b1rLEbhoFhGFiWRaSlhfZ0UxRFmpoaueSyr/LK/Lf40gUXoiStPxe365b6/5KSUn7005/zyJPPUFxSgpZIeN1Gn9zHt5z6AJIk0djQwMcffcj0GTMdn5Ek8bNf/oorL7uE5uZm8vPzgfRGetB+FsG5tuvncf+6uD6gSDTCPXfeTiAQ6LSr6cZnDRs+nC9fcimWZTnObUlC0xJtRgxlWaahoYGvXHY599z/L8ARZ0mS2LB+PQveeI2tWzbT0NCALMsMGjyY02acznkXXuRcKx7n1Omncc/9/+YbX7u8jb/MJ3fxxSnHsW0by7IIhUK88Nyz3PCd7xEMhTAMg9Nmns5jTz3L737zazasX4dtWQSTzmFJlh3rpzfFKkveJEki0tLCH377P8nrdJy+LEnUN7Rw6+1/AxzrSVVV7v/7PewpLycvPx87mWdRFIlEIhxz7LHcesfd3jVFUeQPv/0Njzz4AE1NTciShJj0Uxm6zmMPP8RDD/yLu//xT0aNHkMikWDm6bP4xje/xd/vuoOi4hIsq3vdYZ/Dj1RWVHDTkc6ET/u4b3lVVdm3dy8AM2ed4YiWaTJqzBgu/9qVTD7qKPLy84m0tNDS0kJTYyPxWAxBAFGU0rp+nYmUG9vUf+BArrjq657P54P3l/HO0iXk5eV7cVGuWOTl5RMO5xEOh9v9FBYWEk8k+MZ11/LbP/wJwzBQFIUlixbyy5/9hGAwmJY/QRDQdZ2/3n4XEydNRtc0JFnmFzf+iH/cezd5eXnk5eUTCARQVRVVVQklr7V921aWv7+ML1/yFW8gYfSYsbzw/LNtLDSf3EOSJN/n1Bdwh+sLCgr4x71389jDDyJJErKikEgkUFWVCy66mDvv/Qfzl7zLcy+9yi233cGVX7+GMWPHA1BXV0c8FvPig3rb72KaZrsfwzCwbZvGxkYmTprM72++BXDitfZXVvLLn/4kKYBS2jpUkUiEk0+dzlnnnOsImary5uuvMffRhxkwcGBSRHUsy/I+rh+rrF8/1q5ZzWMPPwg4qywMHzGCU6afRjQa9X1PfQC/W9dHcK0JVVX59f/7Gdu2bOHHP/8FpaXO6J1pmliWSSgU4rip0zhu6jTAmUu3ZdNGlixexGsvv8T6dWtRVZVgMIRpGkDHjvHO6Oxc17IyDINAMMBtd91DQTLwU5Ikfv7jH7CnfDdFxcXeCKCbrmHofOn8C7x0AJ547BFEUcC2s4dCuP83DJNQOMz8N9/gez/8MaLofD912om8/MI8zzLzyV18y6mPkOrEDYXC/Pv++/jSWXO446+3sG3rFkRRRFFUr8GZhoGu66iqyrHHT+VHP/kZr85/i3v+8S+GjxhBU1Njr0R1dyXfgigSibTwq9/cxNQTTiSRiCNJErfd8mcWzn+zjTCB44sqKirmlFNPA0BRFPZXVrJu7Sfk5xcgiILjW0uu8pn5ESWRUCjEnt27qa6qQpKc9/DI0aMIBoPdihHzOTL4llMfInUNpaKSEvbvr+SWP/2Bf953L1OOPoYTTjqZ46c5VtOQIUORUjYl0DSNQCDAJZddzlmfP4cbf/B93nz91Q6nrxws7mhbfV0dl17xNa69/gZ0TSMQCLL4rYXcfcdtFBYVZZ1yo+s6gwYPZvTYsZ4or1m1kt07d6IG1GTYQfvdMgEBy7ZpbGigfPduBgwcCEBpWRmqqvpduj6AL059jFTLyOmeBdF1nY8+/IB3l75NMBSkqLiE8eMncMJJJzHj9DOYPmOmtyyKrusUFRfz4GOP8/WvXsqitxZSUFDQ6wKVutzvlGOO4eZbnNE5RVWprKjglz+7EVEQEAQRy0q/ttulGzZsuLd2lCAIlJaV8c1vf4dgMIRtd2b5CICNZdmUlJR43wYDQW8NK79bl9v44tRHSZ3YKooi4XAe+fn5WJZFNBLh448+5L133+Ff/7iP8eMncPW113HNddejqiq6pqGoKn+57Q7OO+csGurr251n1xNS/UzBYJC/3XVvGz/T3j3lFBW17c65WKZFcUmJ57i2bZuTT53OyadO71F+3CVm/O5c38H3OfVh0gMWLW9WvyRJhMNhysrKCAaDbNu2lZ/9+Adcd/XXiMdjKKqKpmkMGTqMy6+4kkgkkrY3XW/kSxCSfqb/vYmp007w/Ex/+8vNLFwwv0NhArBs2wstcJd/OZj8uIvtBZL+Jt9qyn18y+kzSuryKcFgkPz8fF58/jlGjhrNb//wJ69xnnXOufz7/vs6FIruXtf1M112xZV845vf8vxMixYu4J47bqMoi58pEwEwk1aOlRTc9evWsnrVSkLBEFan3br0tCzLJhQKsfz99zBNs020u0/u4YtTHyHTR9Idn4kb/1NSWsrLL8zjhzf+lJLSUgDGT5hAcXEJdXW1XZ6j11EeW/1Mx/KnW1P9TPv475/diCiJXpe0w0BQUSAei3n5lySJtxcv4hc/+Qn9+5diGCYdOcSzpOh1N0PJra18v1Nu44tTHyA1Yto0DERZpt1ZsllIjeRubm5i185PKSktxbZtgsEQJaWlVFdXoShKj7tPmX6m2+66x3O0S5LEz370A/bu3dNpd85NS5JkqquqnPOTVs7w4SPo37+MvLy8g/Id+es79Q1827aPIAgCuqYRDIcdgephhLM7YpfyTa/lL9XPdHyKn+mvf/4Tby1c0CVhcvMoyzIVFftoaW725s2NGz+eQCCArqdHhXf2SV0UzxU1X5hyH1+cchh3lEqSJOrr6vj8F77EkmUfMGr0GKKRSNq6R11FURT6D3BiftwdgxsbGpBEsTvGWJt8SpJEQ30dl331a3zjm99KxlUFeWvBfO698/Yu+ZlSkWWZhvp6Nm3c4F1jwqTJjBw1Gk3Turz6pyAIJBJx6uvqnK6kP22lz+CLUw7jTriNxWKcMv00brntDvr3H8Bf77yL/IICYtFom3WNsuGKRzweY/yEiYweM8azIMp37aaxsQFJlumJFZXqZzr62GP5UzKeSVVVKvbt479//hPE5Jre3elKSZJES0szy5e9B4CmaSiKwkWXfIVoNOpsytCByLjWV3NzM7Nmz+EXv/6NM1+vpSUtPMEnd/HFqY/w37/5LUXFxcRjMaadcBIPPDKXktJS6urqgNZ1lzKDGZ1pLQqapmEaJt//0Y0AXtfu/WXv0tjY0CNnuO0usev5me4lv6DAE76f3/gDKvbuTVvWtytpguMXCgZDvPbKS2n78117/Q2ceNJJ1NXUONsHZU1TQFEUYrEYRcXF3PTHm/nJz/8fL7+5kOkzZhKLxRBFye/a5Ti+OOU47trfTz7+GODE6ei6zozTZ/Hi6/O54KIvYxgGdbW1tLS0oCUS3sx8TdNoaWmhtqYGRVX565138/lzv4BpmgQCAQzD4PlnnkrbBKCreE56IBKJ8Ovf/o7jpk5D0zREUeTmP9zEgjfeIC8/n3g8nlyhwGj/k1y5wLWwbNsZ+t+wfj3PPPk4AIl4nHA4zP3/eYTjpk6j6sAB4vF42i4rzsikTm1tLaFQiLvv+ydjxo4jEY8zafJRTvfSMLq1zLnPkcEfrcth3MaWl5fHc08/xegxY/nJz/8fSnKplJGjRvOvhx5l1YqPWfDmG6z9ZA3lu3cRaWkBQSAcDjNixEimnnAiF196OePGj3cCNS0LJIn7772HNatXU1RU1O3ARNcqa25u4tKvXsE1113vLRy39pM1PPnYowwZNiy5G0sX1i0H4olEUjjSBeqOv93KrNlnMnLUaBLxOCNHjWLeK6/zn3//k1dfeoE9e/ZgJC1BWZYpLinhtJmn8+3v/RcTJ00mHo8TDAZ59qknef2VlylI3q8/Ypfb+OKUw6RO9C0oKOD2W/9CNBLhf276PYFAANMwsGybaSeexLQTTwIgFouhJ9f8VlSFUCjsped1jySJec8+w+1//Ys35SVrQ7VJ881ks6xM02LGzFkAXndu/PgJvP3+R2n57xgbWVH48fe/y4I336Ag2TW0LAtVVak+cIDvXH8tjz35LP3690fTNPLy8/nhjT/lu//1Q/aUl1NdXQW2TVFxMUOHDaegoABwfFXBYJBVK1fw+//9H4KhkBdx7gtTbuOLU46T6kjOy8vj73ffyeqVK/jZL3/F9BkzcRc9caOeg8GgF2QIreIiiiKBQIBYNMq9d93B3+++E1mWnY0ps+1dl7y2ewzgDOnb6QvxOt1OZ10o1zkfCocJhcN0l2Aw6Fh1aWmb5BUUsG7NGi696DxuvvU2ps+Y6d2boiiMGTuWMWPHZk1TVVXefP1VfvnTG2lubiIYDObMrsU+HeOLUx8gbamUoiI+/GA5V3zly5x+xhl86fyLmHH66QwZOqzDPeg+3bGDRQvm8/STj7Npw3oKCgs7jNR2tn0yaWpsRBRFCouKSLi7r6RYQwLOriwATY2ta0R11X+VtMlQFGe+nyC2XTzONAzyCwr4dMcOrrzsEr50wYV85bKvMu3EkzwLKZNoJMLqVSt5/NFHeO3lF5Fk2RemPoa/428fwx2697ZTAkpLSxk5ajSjx4yhrF9/b3QsFotRU13Npzu2s3vXTurr6wkEAt6uvR11bRxry5lADHjxQpkxRrZtEwgGUZXkGkkH0e7jsVi7QZqu9WfbNs3NTahqgKHDhjFh4iSGDHU21RQEgUgkwv7KCrZs3sye8t1oiQQFhYVA+5uI+uQW7pr5vjj1QVI3mgQnLMD9WKaZnBQrIAoCkiShKAqKqiIrCnbSl9PZ9BHXWksNnMy2/ri766/VCzFDkih6QZLtCVTrWuMWmqahJbdXd/1doiggSzJKcsMDt9vq+5j6Dr44fQZIbXDu3Ls2vqOkz6m720N1JhCdHddTupNeV+/Zp2/hipPvc+rDZIpEVxpjdxp+V77vbWukO+n5AvTZxg/C9PHxyUl8cfLx8clJfHHy8fHJSXxx8vHxyUl8cfLx8clJfHHy8fHJSXxx8vHxyUl8cfLx8clJfHHy8fHJSXxx8vHxyUl8cfLx8clJfHHy8fHJSXxx8vHxyUl8cfLx8clJfHHy8fHJSXxx8vHxyUl8cfLx8clJfHHy8fHJSXxx8vHxyUl8cfLx8clJfHHy8fHJSXxx8vHxyUl8cfLx8clJZHfXWB8fH59cwN16Xm5uajrSefHx8fHxsG0bNaAiPP3EXH/LVB8fn5zBtkGSRATb38/Zx8cnB5ENwzjSefDx8fFpg285+fj45CT+UJ2Pj09O4ouTj49PTiIf7gvato0gCHS1N+keKwjCIc5Z7uGXVdfpblnB/93y6iv16pD5nDoqAPc792ZTb9r9LfW8zEL5LFaq9sqrtawAMsvLxj08s0xT+ayVV7t1y/2vkCypzPu1beeQlONS+SyWU2e/5XIb7HVxylZx3O+y3YhlWViWhY2NgIAoCIiS1G7amQXSlytUd8vKBmzTxEqpWIIgkC3K//9CWWHjCFHG/TgCZIPp1CsAAQEkEQQhU5OcNJNpufTVsmqvOfdmG8S204T/UJVVr4hTe9ZRaqOxbZt4PE4sFiMRjxGPxaivr6e5uRktkcAwDWRZRlVVQqEQRUXFhPPyCARDhIIhgqEgiqK0e82+VJnae/On5l3XdWKxOIl4jGg0QlNjI5FIhEQijpbQMC2TQCCIJInk5+dTUlJKMBQmEAwSCoUIBoPpb0PLamtJkN3SyiXalFWGINnY2HENO6phRw3saAKzrhk7pmM1x537BgRRRCwIQlBBLM1HygsghBWEcAAhqOBKVl+tV6mWUHsWj2lZJOKxZL1y6lZX2mAwGCKYrFOHsw0etDi1bWg2guCIkmmaNDc10djYQGVFBTu2b2fz5k1s27KJ/RXlmIblvdeg1RKwLROwKCgsZeSYcUyYNImJEycyYuQo+vcfQFFREcFQyLt+2g2RrL85WJk6E6VYLEZjYyM11VWU797F1i1b2LJ5Ezu3b6W5qR5BlBFFybGKsBERsCwT27ZQFJlBQ0cxfuIkJk2azNhx4xg8ZCjFJcXk5xcgJd+Etm2RWt652vCyiZIgtgqI3RzDrI1g7K1F27IPY3MFxppKjPI6bE0HSwDTSk9UEkEEQZWRR5QiHz8Y5ZjhKGMHIw8tQ+qXh5DfKuq2ZXvWVJ8qq5Q2aBgGLS3NNNTXs3vXLrZv38a2LVvYvnUz1VUVWJaNUyWyt8HCkn6MHjOO8RMnMn78BKcNDhjotMFg0Lt+Ng62rHosTtkampuZeCxGXV0tmzdt5L1332XNqhXU1dZgGCamZaInNAzTQHTNTEFAQPDMcadLYiGIErIsI0sSkiSSl1/AqDFjmXXGmRx7/PEMHTqM4pKSrPnoyAdzuOnorWZZFg0N9ezbu5c1q1ax7L132PXpDiItzZimhWGaGLqeLA/RecOn+JywbaxkmcmSjKKqSLKELEn06z+AE086hVOmn8bEyZMpK+tHIBBIy1NqvnKlrNoTJUs3sKqb0bdWEl+ygfjCzZj7mrATOoIEdtzAThiuwymby8n7hxCQEYIytg2irCANKSVw/mSCsyahjBuE2C8fUZG9PAFOPU36rXKyrEh/0VVXV7Fpw3o+/GA5a1atpLa6CsM0MU0LXdcwTbNrbVBJtkFRJD+/gLETJnHazJkce9zxDBs+nKKi4kPSBrstTtkaWmqBVFbs4/1l77HkrYVs27KJeCKBYZgIgChJSJKEKIqOsguk1Ji0bCEIzrUsy8I0zaSFAKIkosoKJaWlnDJ9Bp87+/NMnDyZ0tKydgvoSFak9iqQZVnU1dayaeN6Fi1cwEcfLKexoQHdMDDNbOUlJIuqbXm5v9m21VpepgmCgCxLBAMBJh11NHPO+jwnn3oqg4cMbfPWywVBzywrz4LRDIzKBhIfbif6wgr0D3djNcSwTQvBskEUQJYcEetq3m3bsYwME6ykD0UREUvyUGeOIXT+VAInj0UeVISgyK3OdI58veromUWjESorKli+bBlvLXiDHdu2kNB0TMMEgWR96mEbNE1snDQUWaakrIyZs87gzDlnMX7iREpLy9Lyl5rHnpRVt8Qp9SKphWLoOpWVlSxZtJBXX36RfXv3oGs6pmUiyzKSJLc5rzvDmKl/LcvCMHRHqAQIhVRmnfl5zrvgIiYfNYXCoqI2+TtSFam9xlZXV8uG9et4/ZWXWfbOYmKxhONjFEVkWfZ8dQdbVrZtYxgGpmkgSRKyJDN8xEguvPgrzDrzTAYOHISiKG3F4DCXl23bThtxWoOXF9uyMA80El+6meijy9HW7cOOa6CZSTFJCpLr0Kb7ZYUACIIjVLrppBWQEUIK6gkjCF9xKsHTJyANLIaU/B0pK6q9NqjrOhUV+1j45hu8/upLHKjcj6brWL3WBlstUcsyMXTDESpRIBQKMOfsL3D+RRczbvwECgoK2uSvJ3Wqy+LUpqE5V6W2poYP3n+Pec89y6YN64knEkiSiCwriKLYYUG0l+n2fDPuOe7xhq5jGDqiKFJSWsIXzr+IL513IaPHjGnT6A5ng2vvzabrGju2b+e5p59k8cI3iURjGIaBLMnISUejO8qWSU/Lyq1UlmWh6zqWZREKBZly9DFcdMmlnHraDEpLy46Yxenl3/mPV6/M5hjaRzuIzH2f+JKt2I0xx8JRJARRxOnS9uwt3W53KNkdtE0LTBMkEaEoRODciRRcNQv1uBGIecFWK+owC1R7+a6prmbZe+8w79ln2LZlC/FEDEmUkJXD1wYlSaZf/3588fyL+NL5FzB8xEhkWT6oNtglcWqT0eRbbdfOT3li7qMseP1VItEooig53vzkG6a3vPntOpJFEQHH6WcYOoqiMm7ceK6+9jqmzzidwsLCw95tae96jQ0NvPfO2zzx2KNs374NQ9cd/5AkZRWkXi+rZIWyLDtpeVoU5Odz7nkXcPkVVzJi1CjHzD+Mgt5eXs2KOiLPfEjkgWWYVU2gWyCLjihllNXB5rN9oXLqOKYFqoQ0sIi8b59O3iUnIQ0qSesKHYmyEgQB0zTZvm0rTz0xl8UL3qQlEvFE6Ui1QVVRmTj5KL529deZPmMmBQU9b4PSTTfddFN3MiUIAvFYjPffe5d//P1u3l26hHgigaoGkOUMB2JKJjL/dod200gWviiKKIqCZZocOLCfNSs+wjANhg0fQUFBYZt0epqPzmjvIVTs28fTT87loX/fz569e5AkCTUQyN4ost1nN+goDfdZul3HWCzGtq1b2LljB2Vl/RgwcKD3DFPv41CVVZvKblokVu2i8fbXiTzyAVZVC4IkIsjOQEBmxT6YcnLJlpZtOwMNgiAgSCKYNlZtC/qK3Rg1jcij+yP1K2iTzuEqK0EQiEWjLHv3He696w4+WPYeiWQblI5UG5QkFEnGME32V1awesVHWNgMHz6S/Pz8Nul0JR8dilO2QmlpaebN11/htpt/z47tO5BkBVVVveOz3UxvPrB2by5ZQLIk09ISYeOGddRU1zJm7FhKSkqz5utQkNngdmzfzv1/v5tXX5xHJBolGAimmdqp5XO4ysp9rpKsYFkm5eW7WfXxhxSXlDB0+AhvRC/1fnozX22FSQDDJLZ4E42/eRFt2Q6IGwiqnPVt29vl5JJZXnbSlyWIjn/LjmoYa/dhbD6APLIMeWiJ4/jMOOdQlpUgCDQ1NvLGqy9z+y1/ZNeuXciKgqyoSWPpCLVB2xlUEEURWZJobmlmw9q1NDU1MXLUaIpLSrLmqyPaFadshdLY0MBL857ngfv/Tm1dHaFw+LA1tEzaVKSH4TlMAAAgAElEQVSUf8uKgp7Q+PTTHVTs3ceo0aPp339A+vGHvMHB2jVr+Pvdd7Ds3XcwTRNVDTjdhSxdp8NZVq35dKxOURSpr6tj7ZpVhEJhRo0Z643mZebzYMlqMekmsQUbaPz18xgbKx1rSRKTA0n2YatTLtlEyoswB8w99ehrKpCGFqGM6ud9D/RqnF22NlhXV8uzTz/BQw/8k/r6BoIZbZAj2QZT8inLCrqms33bFsp37WL02HH079+/zfEd5S+rOGUrlOamJuY99wwPP/BPGhobCefle8dmXuxwVCCXzOvaSaeqJMtYpsme3bvYt28f4ydMpKxfv6znHSzZymvb1i3cedutrPjww2S3U0079lB2A9rDvVbmdUVRRFFVmpua2LRhLfn5BYwZO+6QWFDeqJyLYRJbtJHGX89D31GVjNbOjdHW1Gt7z01ynp1ZUY++ejfSuAEoo/shCKJ3b65T/2DIVqcaGup59snHefyRB2lqbiacl+cd6x5DrrRBwXEfmIbB3j17qKmpZsLEiZSUlmY9Lxud+pwEQSAajfDGqy/zwP330tjYRCic5zlxheTDONxDqpl5hPQHKoD3Rtm3Zw8HDhxg8lFT2piXB1vxs1WiXTt3cu9dd/LR8veRJAlJlp05XvaRE/FU0u47pUKraoCWlha2bt5AaVkZo0aP9aYr9EZ32E6a/p4z2bCILd1M0x9ewdiyHyGgpFlLh7oL3hUyBcp9hsgiVk0LxtYDKJMHIw4raRWklDLtrTy0tDTz0rzneOhf99ESifaJNgi2U/ctiz17dtPY2MjESZO9cB/3vPbaYBtxyjSjDcNg6ZLF3H3bLdTXNxDOy08rlCPd0FJpU5GSfWDLttm3t5xoJMrko6akOejc83p8TUjrUh7Yv59/3ncvby9eiCAISWGijTAdabK97QAUVaWxqYktG9czesw4ho8c5Yn8weTfO892wwVwnN+/eQF93V7HvwQHfZ1DgdceSLcMBEnErGrC2FWDNHUYyoBib+5wr5RVMh1N01i0YD7/uOc2mppaCIfznTmFOd8Gne9EUcQ0TMp37UTTdCYfNYVwONzmvEzSprNn8wds37aVxx99hLq6RoKhcFZhyiXS8pVUb0VRMAyDBW+8wuuvvkwkEkl7+JnDo13FswSS6URaIrzx2iu8vWgBpmkhKQrJYJycLK9sbzvbtgkGQ1RV1fDwgw+wc8cO7/is/qJuXCvVL2Luq6P534vQN1U4I2J2bgpTGkJGGQiABYll24k+uBSzqsGrD6713l0yy9i2bTZuWM/cxx6hvqGZUDvClEu0MRJwXnrxeILXXn6BxYsWEo/FO22DbdbaSO2e1FRX8+Tjc9myaWPa0HeuFopLpnrbto2qBojF4jzz5FxWr1yBZVlZC7GrZJaDaZqs+PgDnpr7MNFoDDUQSA6z5pbFlI1sz1VRVTauX8dTjz9GbU1NmpB1F1f03GuZzTEiz3xI/LUNTrS3mF4+uVpOkDlCDMgiWDbx59YQfXElVjTRKlA9FPLUsqo6sJ8n5z7Kjm3bCARapxz1tTpl2zaBYJDm5hbmPvIQn6xZ1aYNZuKJUxtTMpFg6ZJFLFn4JoZhIEopIwLkbqG4ZBMeNRCkqqqKJx9/jP2VFd6xB20JAJUV+5j7yMNUVdekCFPuVyKX1PzZtu04M03H2nzv3aVomtZjazO1W2RbFtqKT4n8Zxl2UwJkqbVf3IdI9W0KqoxVG6XlvqVoG/aSMpemW889sw3G43EWLVzAe0uXYFuWtyJF8ug+UafatsEAFXv38vSTj1NVVeUdm/oCc2nTrXMpL9/NU4/PpbmlxYlj8izy1r5kT0k1Wdv7ZOanJ2QWjjvZcc2qFSx+ayGxWKxNo+xq/lPfbpFIhEULF7Bh3SdIktxlH01vl0Nn6XWWVmpeXWszEokx79ln2Ldvb5vrdDVPrd05MA800vLE+5hVTc7KABnX7SukPV8cgTL3NxJ55gOs2pa0cuxuebns2vkpzz/zFNFY0hKntc6lJnmwz72rabT3e0fpZ7YvSZKwgRUffcCyd95G0xLtWsyil3DKAS0tLcx/43X27Cl3hsAF0TvmYCpS5k2618v8tHdsT8gsHEVRiMVivPDcM+zZvbvH6aby6Y7tvDjvOeIJLW1OX+b1U8kUr/Y+Xe12diW9zp5dm+6dKCLJMtu2buat+W8STfHV0YU8pd6/IAjYukH83S0k3toCuoUgdv3+Or751jLI+tPBvk2z0KasJBHiBvGX15FYtRvbsrwF7LrSXjLrTFNTE2+89ir79u5NC0PJbIPdee7tlXEboW0njfau0dX03X8rikJLSwtPPzGXin37vO8zhTB1qUrvn3vKdzP/tVeT89WSTl3wMt4TMm9AEFqXl21dFsVZHMxdIiTbjfX02t5fQUCSZCr27eOdpUvSnOPdxRHyZpa+vYT9FRXIsrugW+dvq8yH6paB+7Esq03F61LlSt5LZnqZaXTlTYdto8gyiXiCV158noqKfd73XWnwXmVzIwf2NxJ98kPsprgTuJgiKgdlOQnJPLlpuPmzbW9irnud3iTtmdg2SCJWfZTIM8sxq5vBy073rCeAnTt2sGi+41JJXX0ysw1m8+3YKfec7ZhU2tSdDIsvU5Rs2+6wjnZWTu5xkiSxd88e3l26lHgs7mlBahpiZiKRSIR3l75NdU01oiCmJXgw4pB6A6IoYlkWibiz5GxqurquE4/HMQ3DmVSYodo9yUOqRUZSuXVdZ+H8N1obXEpeO7uXVCr2VbDkrYVouo4sp1Si1Gu2k07W+7GdEcZsx3X28L2ySjoa3fSEdo7tUt4EZz3pmupq3l+2zOkKZ1mzvL18AQiigKUbJD7egbZqDxjOwnmplf5gsG3bW27FtgFVgoCErYjYYusiaoei65hmPUgitmagvb0dfcPepPWUPK4b6TU1NbFkySJqaqq9tby7Ii7Q+lIyDANd15Mvh3RhyHZuqvDouo5hGmkGQ7Z2kc1666yc3OMVRUHTdea/+TrVVQe871OFXM5MsKa6iqVLFqMnZ81nKl53yda4NC2BKErk5+czcPAQBg8dRmFhIfFYjP2VFVRW7HXWNY7HUVS1jUD1hNT7EEVnofu95btZ9fHHDB8+gmAw2KX0U+8lFovx4fL32V+xDzH51rFTHmZX82rbMGToUCZPOZpgMIhlWVRXVbNm1Qp0XU9ZYrdtmpnPzzJNZEXh1NNmUlRcjCBANBpl9coVNNTXpyxc1/U3nSzLaLrOgjdeY/aZZzJi5Ki067eXjmc1CWDVR4jNX4Od0JJO8IOrV5n5BbAtEAtDqHPGIBSomBWN6Mt3Y0d1Rzh64VrZSLWeBEnCjiSIvr4aZepI5JJ8RzRpX6Ayn+GBA/t5d8lidEMnEAh2qQ269XrM2HHkJeP4mpubKN+1G8u22iydkq2rb1kWsiwxcvR48sL5WLZFXU0N+/dXeueWlJRy/LRphMJ5VB84wKqVH6fV0a6Uk9cGsdm9cwdr1qxi4ODBqEm9cfMju0GEguAsWLVh/Tr2lO8C20YUBE85e02YEnGCwSCnzjidc794HkdNmZIyFcZC13TKd+9mwfzXWTT/dRobm9MEKjXd7pCq2q3KbfDO0iXMnvM5goMGtVaiTqwK9/r19XUsfms+mq45y1TYdtq1ulpGoigycdJRfOs736OkpBRBgPLd5dz0P//Nrp2fIklSuwLd5s1nWUwYO44bvvt9Bg8ZAsD+ykr2lpdTW1OTdaeW9srLvZ5TsS12fbqdTRs3MGToMG+tng6FCZzYIMAsr0V7eyd2zEAMKOnWXW8hgjShjKKffBFpRCnxd7dS/9Hj2EYcIUUQe5s0C0ISsSMa8Tc3kf/NM5FK8j2Bbq+8Up+hpmlsXL+eAwcqvaDPTtugIGCZJpIoMP20GZx/0ZcpKCyiYt9ebr/1L6z7ZE2noUBO199i9pxzuea66yktK2V/ZSWPPPgAlRX7nJ1/bJsRI0dx3be+zeAhQ1mzaiWfrPqYqK4hy+FOex2ZbVCWFXTdYNm77zJ9xun0S04v83pYqck1NzexfNkydN1AzrJCYnfJZjEVFxdzw/d+wM9/+WvOPOtsSsv6EYtF2bdnD1UHqrCBo6ZM4fs/+DE//+//ZfSYsWia1qXuTWdkKrdlWWzZtIE95bu9Lkzqce2d7+ajfNcudu7Yhmm2fTN1F0VVKSkpoaioiMLCIsaMHcvsOZ9DEp2VRr0uUjuWk/tyCagKXzz/AkaPGUNhYSGFhYWUlBR7/rDukFqZZFlG13U+/GA5zc3Nba7f3rmCIGBH48SXb8Wqj7h7nHR47sEgBGXEfoVIhXmIBcko5EOjSWm03otjLVq1ERIfb8dOaN4a6J0KOdDY0MA7SxZ3rw3aNrKioGk6Sxa9RW1NDf369ePoY4/jiquupqioEE1LeOlk684Zus7Y8RP42tXXMGHiRAryC1izaiUrPnwfy2qt34qqUFJSSl5eHnl5eclpWSn+vi6Wk207I3eGofPJ6pVUpIwGu6S9Rmuqa1i9agW6rnmLoGUWXndoPc9pOKFgiKuvvZ6LLrmUgYMGcaCykgcf+Cc//t53uPEH3+VH37uBn/7w+zz5xGNEY1HmnHU2193wHcrKSjF0Pa1we0Kmf8Nd02jdurVtwgqynp+STjQaZd26tWi6gZxi0vbUh+IsP2wCzlssHA4z8/TTycsLYhi6d1xqnzxTLG3bZtjwkZw6fQaqqmIYhpdeT4ostZwlScYwLdauWU1dbW3Xzk2ebjXGSCzb5lRipTWu6VB0sbBsZxVLaLv7yiGk1cdH8h4t4su2YDXHvO+7Um/3V+5j1cfvo2uJLrXB1PYgyTJ79pQz99FH2Ld3L6IgcOr0GXz50q8SSKkPbnpunnVNo6xfGddcdz0TJ03CNE3eX/Yujz34bxoaGr1VWt3zDNNJRzeM5LMUuvwCyGwfAs4SMOvXriWe0gZt23bESRCcOXS7d31KY0N9WkEcrMPSKTwTURSYeuLJnH3OFygsLOTA/kr+ce+dzH3oP2zbtpW62lpqaqrZtHEDD9x/H3/7y81UVVVxxuwz+dKFX0ZVVcyUwu0pmb4UwzD5ZPUqopFI2u9Zz035PRqNsmH9OmeaSspypAdjDWRaRyNGjmbGrM8l82m0+T31rzOyKjPrzDn0H+AsD9Paheu55QupFdmmuuoAe/bs9jZh6DgBp8ysqmaMLTVtwgcOCc5wlnsDh+Ya7V1aEJyNKSUB4ibG6krMxniH7TbT8i0vL0fT9LRBh47aYKr1I0oSoiiw4sP3WTj/DaKRCEXFxVz45Us49vgT0kZtkwljGgZqIMAFX/4Kp502E1mW2bplC3MffZja+nqCoXAbg6A9K76rpFlPsoxpWXyyZjXRaNQ9wOnWuSfE4zG2btmKZVlIktxrw6+CIGDoBqqiMnvOHPr1749pmqz7ZA2LF7xBNBolFAoRCAYJBIIEAgG0hMby997lmaefYNeunRQXlyDKElZvOk+TXTtNS7Buzcc0NNR38Xznb11NDRvXrkHXtTZrWvU8c86feDyOaZoUFRcz56zPk59fgGkaaXlPtaAALNOipKSEmbNmkZ+f7w33pua5R1lKOVmSJHRdZ/OmjcTisU67wYIggG6g7diPVdXsWDVJDkWX7kjTai0K2KaFdaAZq7wu2diyn5NavrFYjK1btmALotMGu/DCS6tvST9OLBbjmSceY+OG9QAMGz6cq79xLYMGDkRLxL3zLNPEMA2mnnAiF3z5YgqLiqisrODxRx9m/dq1yLJy0K6UzvLstsHNG9fT0uK4C1wjQHRvPBaNsXH9OnTd2amjJ87d9rBsC1mRGTZsBKqqkkgk2Lt3LzZiMvK1dUtkgEAwiGXbvPT8c/zkB9/joX/fj67paQumHwxphSOIaJpBxb593lyfjs8VMU2TvXvKiUWjbZzTB4OYfHt+umM7lRUViJLIUVOO5ujjpiKKkmOttLGaRAxdR5JETp89h5GjxmBZFjU11VR70wN6nq90H4Fjaa775BNikaj3fUcjiFZMQ9+wx9k1Rey9sspFWu/JdizEuI62sRw7lmhXyFNfMrFYlE0bN2AYZtroV2dllWo9AShqgOqaGp6Y+ygV+/YhiiLHTzuBS6+4kmAw6LxQBRE9kaC4qIArrryKESNG0tzcxCsvzuPtRQuxLDN9EbtDQGrdaWyoZ39lZdJ95XznWU6xWIxdO3dgGsYhyJSAqqqEwyE3Wx1mGBxFjcfjVFdX09LSknXos6ek3pvT9RHYv78ybf5YR+iazoGqA9iQNvp1sGXmnl6d3E2juamJfv37M+esswkG1LSuXaul5iwuHwwGmDX7TIqLi2luamLZO0upr69zU+5xnjItTdN0lr6Ix2Ip+bbbnuN+FdMxtlSBJDiTZD97BlNbbJx99GQBY3e1s9Fnko7qVzQaZW/57m63wUzntju6+9HyZSx483UikQh5eXmc+6XzmP25zyMA8UScUDjMJZdfyXFTnS7fsnff4enHHyUWi3pR6YeKTAPBMAz279+Prre2QTFVuZobG7Bsy1P53nu72ZiGSSKRwAZUNcCw4cMRBZtEPA423nKxqc5dSZIIJrt7mQ/gYGhtcCCIIqZlU1lZia7rnZzpkNAS7C0vd0bphF7q0jk5QpZlZ532V1/hwP79SJLE1GnTGDNugjesnGo9maaJJMscN+0kxo2bAMD+ygqenvsoDfX1yfvsnfJy04pGWmhqamrzW+oxLlZEx9xUCwnX3/TZtJpc0ixb08asbMJyxakdp7h7Tl1NDc1N9Wkjx10tq8xnJMsK8XicZ596nE9WOysADBo0mCuuuppBgweTiMU5btoJnH/RxRQUFLB500Yee/hB6usbUQMdbzPeG6T5sJJrru3fn94GRXC6VPX19SA4Kua+wnsrc4IgEI/HKC8vR08kkGWZY4+fytlfOJ/8/HziiTjxeAw9GTKQKlJud683QgnakozhAWpqqjsUp1Tz29B1qqqqHB9YF+OGupSbZMM1DYPtm7ew8qOPMEyTgYMGM+esz6PIztBrmiNc1wkGVM4+51zK+vXDNE1WrlzJzr0VmFbvPL+0ioQz+tfS0tyl+mE1RzHrm5294JJO9c+iv8nFuzcBbM3E2tuMEYl3GITpPHMzaekKrRuF0r02mK17d+BAFU889giVFc4qHBMmTuJrV3+DMWPG8ZVLv8rw4SOo2LePRx96kK1btrSJhzpUpFvkzpZldbW1aSOKovs2TsTjTnn0og/FvbgsK+iGyXvvvE1dndPV6NevP9/+/g/47g9u5OhjjiUvHEaWHb9KPB7zTNvD8Za1LYtoSwTLMr08Z5KaD9OyiEYih+QB2rYTIJrQ47z68otU7a8kGAxy8imnUFJahmWlhA9YToMfOXosx02dhqIoVB04wII3XkUw46iq3MnVukbmPVqWRTwe96Lhs5+U/KubSUuAQxtCkCN4XVoBMG3sugRi1EiuL97+eaZlEovFEQQJQUgfqevOtdNG70QRURBYvfJjFs5/g0gkgqqqnPvF8/jVb2/i5FNPpbmpieeffYp3316ctrT14cS938aGhhRxSoYS2JZNPB53ugy9fGF3iNOyTD56/z0WzH+dhoYGRFFk0KDBXHzpZfzhz7fy+z//lauv+xbHT5tGSXGxZ22ldmN6q1uXiiAInthYHcTFpHVVLAtN03otD615ccvL2cN+25ZNrFv7CZZlMmTYcOacfQ6q4gRDCqKYDLpUOfucLzBgwEBM02TtJ6vZtH4tgg2S2P3Ay65k0rZttESiw9FTV4vshI7wGbaUspEy1Rjb1hG6YMHatk08FjvoNtime6coJBIJnn3qCdZ98gm2bVNUXMyJp5yCJEm8vfgt5j3zJIlEPC2eqbfbWWd5tm2b5uZmLNM1ENxunW2RSDqDD8mQoW0jKyqxeIKH//1Pnn5yLnvKd6NpGuFwmBEjRzJr9plc/fVv8Ls//oU//fUOLrz4KxQXFWIaRlKU0t8MvZpH2yaeiDv+ti5gmgaJRLxLo3vdz5DzslAUFd0weXvxImprayksLOT0WWcQDoedEAEbLNtm0JAhnDL9NILBILU1NSxauJCEpiMr6iGpXO5zSGha5+nbNrZhfaa7ce0jYFs2dkTDdoNCO8C2LXRD75WyatO9UwJUVVXx1OOPUllZgSA4qwKUl+/mkYf+Q0NDE4FgqM25h9PCtW3baVMp9y+DU9ncSXe9WZEyb1QJBGhubuGxB//Dio8+4vwLL+S446dRVFxMOJxHfkEB+QUFDBo8mIkTJ3H6GbN54rFHWLVypdc3ddN1891beXRHOLqCgIAkd/34bucJx9rUdZ2Plr/H1s2b6d9/AKPHjGXaSafw7tK30RJxVEVh5qwzvTl0W7dsZs2qjx0nuSSmvMF7NXPJkI+O03YDh3vdFO+LeC9p2i0PQRBRknFFB3+59HmooiRiaQbr165k755yBg0a7I0yi6K7zXv7eTtcKIqadv+eOMlKcnfVXrxYZh9YEJy1qTVNY82qlWzeuJ5hw0dy7PFTOfqYYxg3fgL9BwykuLiY4pISZs46g6LiEm798x/ZvHFDr4YTZOYzFAp5S8R0hizLBINh4BC+YWwbWZaIRKIsemshRx19DGX9+3POF77Iqo8/oqa6mpKSYmbMnElhYSF1tbUsnP8GTY1NiJLEoTJWHNERCKiBDu/b6dYJIB0ev2Hu4cQ6CWG1ddCkg2IQBIFAMIgoHnwbzGxzhmEgKypnnXMeo8eM9YRp+IiRXP61q7jrr38hGosTSK7McSSsJlGSKCgoQHLXdYLW6SuqLCcz1LtRvNlCAGRFQZZlYrEY27Zu4aV5z/KXP/yWH333W9x2y80sXbyI+qTjfNLkyVxy6WUEAyp6ShxSb1l4bt7C4TzH10P2iOq0YEtRRFUVz5I7FLgDCZZl8+Hy9yjftQtREJhy9LGMGTceSVE4afoMxowbD8DuXTtZ/t5STNN0glV78VWYXtbOahVqINCh89T1gYt5AdeZdsTfzIeD9IYtIMhK2o7A7SEIAlJyMnrqm6W79TxTmGzbRtc0Jh81ha9eeTUFBYWs+Phj6uvrCIVCzDrjTGbNOQtRFNPi6Hpy7YNBFARC4ZDXBhEEJ0JclmUKCouwbQvbaq3UvRnsmGpmugUXCAS97mQioVFbV89b89/kd7/6OY8/+hD1dXUoisK0E05k0JBhXlh7b6q6m5+CggIkyR3dyh67415XliSKiksO2ciGQLoQ1tXU8s7SJbS0tNB/wABmnnEmgbxCZs6aTb9+/ZzFyRYvorm5BUmWk57oXsxPannbIEoi+fn5XVp+RcwPIagypEwO/Sz7oLzehw0oIuLgPMSi5Nbu7dy2G9NXUFiAbVtJ32f322Abf5EgkIjHKC4u4OvXXseo0WPYtGkT//u/v+GlF+YRj8fpP2AAV1z1dcaOH4+h987qH93FnRlSXFyCLLWOMHvTV8r69UOShDSn8MFUovSbdAo5M9DSzZQkyQSCIYLBILKiUN/YxHNPz2XN6pUA5BcUMn7iJFRV9c45GFJ9Vs5cQonBQ4aipoxWZJL6oBRVZfCQId75rqnVGxHiAoIzyia0Wk8JTWPxwvns27sHWZaZefosvviFc5ky5WgA9u4pZ9GCN9F0o3UN816sV5kvGVUJeNtKdxZ2IQRlpGHFCKoE9M7Kl7mMbTsrj9qWDZKAOCQfIZg+CpbtHFEUGThwEMFAMGk5dT/OKXOEzdA0QuEwl1/5dU6Zfhp1tbW8+uI89u7czrxnnmbThg2AG/t0DYWFheiaBoKQtiX8oSC1Ddq2hSgK9O8/IG3E0Hv15eXlMXjoSGRJxrYPfhQq3bR0MqNpGpqWSI5ytWYyNdhSFEXC+QXEEwYbNmwgGo06ll1BgTP600tdTRfLshAFGDJ0MIratZB9VVUZNmw4kuBMnvSM+INtdILjDLdsZzTODTuTRJGqA/v5cPly4vE4I0eN4rrrb2DI0CHEYjGWL3uP+ro6L6D0UOA9T1Gk34CBhELhdo9NC9oMKkiT+zvL5pq9G9ybswg4y7UYFtLwUgjI3vcd3XtefgH9Bw1BlDpeyC8baWUuCN4SuzNOn80FX76UYDDI+++9w+KFb6LIMvsrK3jqiceorKxEURRmnD6Lc8+7wNkSzDCy+za6mI9sn2x5dLEsx1UwYODAtPXSvekrwVCISZOntLFOelqR3Le3bdvY2N78r379+nuC1d5bxDVznYAsZ03saDTa5aH+LuUtiWWZCNgMGDCozc4p7Z2rqCoDBw1EEOxeKavWBFotp5QoDCdWRXPWPK+uqkKWZQYOHowsKxzYX8libw1zOc1f0Ruk3pPrz5o4+ShCIWfoOZsl5HQpkv8OqyiTBzsrEhjmkfc72e197NbfewPLBkVCGTMQIdCx5eR+FwqFGDVmLLIid6uHkM3PpGkJRo4axRVXXsXgwYPZvWs3zz79FE3Nzd7mnMveXcqbr71MS0sLpaVlXHLpV5l01BSM5Nrj3XrZus9b6NrOP2ltxbYJhkIMHjIkbXK/ZzmFQmEmTZ6cnNzZdu2gnuD6TmzLWd7zO9//Eb+7+RaOOvoYL+hTFCVvIwOn6yc501Usk2FDhxEIBInFYuzZvctR2IOcLpJuTjr+tdJ+A+g/YGDa7x2dLwBDhgxlwOChXlBi73ZVUtNyp8jY7Pp0B6tWrsAwTORkqMGHy99n184dGffUizlJqQeWaaLIEpNTxAk6KDPbRgipKJNHIATUNH/mobOe2gqlIAog4v3N9vF25+3EuumI1vOSEdp5AZSJQxEC7b/0UutNKBxi/IQJjmM8ZQWKzvKT+twFQUDXNAry87jymm8w5djjaGpq5KUXnmfrls2OX1VwXnjRSIQnHn2QtWtWYdswavRorrjqakpKitGTK2d2OMKIG/fm/ruD0duM8Ab3O8tyRuoGDx1GWVpirfoAABpWSURBVFlZ2u/evnWBQIDRrmqbvWcNWJaFJIpMO/FEzvnCFznxpFO44sqrGDZsGIl4nEQ8hqHr3o4R8XgUXdMYNWYcx02diiRJVFZWsHfP7l5ZxiG1AE3TRFFkpp54MoVFhd7v7UY9p/yWX1DIUVOOQZFlb90kOLjyEpLdOsM00ge3kr4nTddZtHA+O7ZvpbGhgW1bt7Bg/htomp5iDveuaZJmZdoWwWCQsePGe8POTr7buabbLx1ajDiowNnbzTEPD6HfKaX8LRs7YWDHDOy42f5HsxB6wRHcWj9sBFVCHtUPeVCx80Q6cIa7f4PBEGPHjcO2zORqk50bCJldJcMwkGSZL11wMbPnnIWqKHyyejWvvfQ8mpZI6x2ogSD19U08+9RTVOzbiyzLnDp9Bhd95TLUQMDZAYn2jQHLskgkEsTj8eQnlvJv55OIx70pKW3KVxAwTQNZEjn2+Knk5ReklaPs3qAoigwZNoxBg4fS3LwlzUQ8mAcmSRKGrvPxB8s5c85ZnHraDGbOmo2iKDz8nwfYunmj45Mi2c21nR0kbvjufzF27HgaGupZtHA+kUgkuQBX64PoCakNyjAMQqEgJ5x4EuFwftox7XU5XcLhMMcedzyLFrxBQtM6XfC/a3kj6WuyM75vXfP8k9Wr+dstfyYUCtPS0sK2LVvSNkBIu7xX8Xuan4yBA1Fi5OgxDBk6xPu9w4aTfKOqZfmop4wktqfOEQJR6FzYDga3joQV5DEDsIvjEFTSFrtLPdaOxDEbmx1Lr4cClWaRGxZCnoIyYxSCO1LXjiCntjFRFBk1cjTFxSUcOHDAu5H2yipr2ICucdzx07j0q1+jtLSMin37mPfcM85GIUr6bkqiJCFaFh99sIzXX32Jr175dYqKi7ngoovZuH49Hyxf5mysKklke+kGQ0FGjx1Hc0skuWtQ22Ns2yYWjdLU2OBtHuLdD85si4ASZMqUo9P8mLZtI6fecElJKTNmzWLXzh0YKVtD9aQCpRaaJMvs3buXf/3jPvLyCzj6mGM5/YwzGTduAuvXr2Xr1i1EWiKEwiFGjxnLsccex/ARI4nFY7y9aCGvzHsGXdMIBENp+2gdVAVKKkH/AQOZNHkyqtr5YvKpFSkQCDDlmGPIy8sjnkhkvUZ3y0sUnRFNVVaSVlTbYxKJOGtXr3aWg02OgLZ3rdYo4J5bAm4567qOLEmcfOppFBYVe793VlYAUlGY4OzJxF9Yh63HHKHo9a6wd2XPeFSPHUG/J28A087u4BXAThhEXl1F8y1vQtxwnNc9EHPvfgUBDAtEmdAZUxALQikvifZ3X3Ep7dePM88+h3nPPO0sItjBSy9TSHVNY+CgQVxz3fWMHjOGWCzG4rcW8PGHy512KEnelCvbGaVClmXiiTjPP/M04ydO4ozZcxgxchRXXXMtO3dspbq6NmPbp9ZnPn7CRG6/5x/JNJNWcRJXiLREgrfmz+fh//yThKanbf/k/BUZOmIUkyYfhaLIae1HTlXSvLw8TjzxZOY9/SRNzc24HYWeNDj3QbkZURSFjRvWcdutf+bKq6/hpFNOYejw4QwdPpxZs+ckp1w46zcJgsCBAwdYOP915j78IC2RGGqgC92ITkhtMKZhIIkSU084if79B/QovQEDBzLtpFN5e/FCTLO1y9mT/FmmSTwWJxaIkUi0nVTspisIArbQdtSj9c3W2m3SNM3pKsfi3Q7BcP1xqfkL5oWYdsKJhPPy0t7AHVmZ/7+9M42N67ru+O++ZWbIGXK4j7hKtqyF1L4vlqzNsmVHtiVLsuIsXhLDS7wmbRA0KBC3aRsUAVqgn/qh6AIECBAESe2kTmobrrfYlvdVtiUvkiiJlEVKIsUhZ+Zt/fCWeTPzhpzhIlGBDkCRmnnvvHPPu+d/zz333nMs0wJVQV08E6W5Dm3wRE7n9LdhUsi0sAzTBu+QjNxRP+rllqYhNVbmZOkslwoHPVCa6+xguCTZOhhlKptvg6vXrOOp3z3B+cHzXgWWIF35vRld06isrGTf/m+wfMVKLMvi048P8t+/+TUjIyOEQuGcPuIHtlAozOnTp/nFf/0Hzc0ttLS20TFzFjt27uJXv/wFuq55ewAty/LCGIoSormldVTdpDMZquNxV2DfN8LhK7F85Srq6gvfk5LfSa6cfRWLl63g1ZdfmpDBeUbjyOQi98EPP+DnP/spGzdvZeu2a5k560oqo1FkSWLE0DnV28Nnhw/x7NNP8+rLL5IcTk7KoUS/sQkhMEyDqliMDddcQ1V1dVm8XKqujrNl2zYOvPIy54eGCIfDRTtSMXLbc+zoUX7/5BNEKiIc/OhDDNPKcaf97R7NvbfA2Q4iePGF5+k+doxz585ypr+/LN35r3UT2q1cs55ZV1zpz34ytufkODJKoprwzvlon50EzbCr8hZZsR03WWD2JRl55iPkxhiWU83G2yxf6IqCpqO9cwyhyli+EunlkL+tZAyIKET2L0VqckIFY8TYcrxMWWbuvHnM61zAm68fsFeTRXEbtO+1/47X1hIOh3nrjQOkMxovvfA8J7q7UWQlLyBtK8X/jhVF4eAHH/Av//xPNCUSCKD/zBkkSQYM71lnz/TzyksvUlNTm5N7qZBsryiTyXDw4IdYVm46FiHsAa+qKsrVGzYQi1UVTB2F5XziCqnrGs/88Q/8w9/+hJFUinA4kuMKlus9ZZUi7KmKZdkVQiVBOBQiXltHW8csorEoZ/r7OOHk5tZ0I6dO/ESAKV8ee0+VwTWbt/LDv/prEolEQWBxNB7+63p7TvJ3f/MTDrzyJ2RFyYK5fUGJunGndbZrbMvn85QCRmY/BV5jZatxWJaFrufmHx9Nj970xImDpFIjVETCPP73/8jmbdtRHNAc8z1Y2UM0lhBk3vic/jv+Df34WUQkhMCacAwRHOxxPXVJ2IH3UvkJ7BTCKR0ME0uIspYUcvQOkNGRO2cQ//e7qOzqQFjWmEDu5+V6vE/97kl+/rOfks5ohMNhx/N1gu0+bzn/3cuuByjslTB/Qc6gd5YfWwa8PGGyd0Yzt89LUjnLLgLTsoEIX/9zbXDrtdfxlz/6MQ2NjQW25QXE7d8miqKydPlKFi1ZxuuvvVrgPZUDDvnBOteDCoXCGIZGcniE5MhJTp065QV8dV1DEhKKqjp5jK1xPdtP/vtcAK6MhLl2+/Xe8qX7XSltcnkC1Dc0cv2NN/LBO28xnEohy+GCKW0pujFN095fgn3OSMoJcouc+8aSyzUUzd2vAkhO3KAUYPJf4w5Mi5YuZ8GixTYwOZ13rPfhm2ja3tOcGUR2LWHoX1+y9zyp8qTEnlwAEAC6iTWiQckukABFsoP0fl5l9nHPa1JlKnYtIdzeWJKH6ZLfBkOhEKvWrKFr4WLeffvNos5BUB/KpLN7lGRFKShl7+eR/5kQdgJDy/nefa7/eu8ZZZzdlGU5b9FGoGXSRCsjbL9+h3faIF9Piv8DF7gam5rYtWcvH33wLsnkMOFIhYes45ne+Q3Gfgl2JQ9FUT0lWJZdw8rvKVnW6KhfCuW/ABtsZdZu2MTylStzNn2V+gz/9aqqsnr1OtZcvZH/e7Yw9jRaTCa/Y/g7UtA15bZV8Q5zl84zfyTWMhlqamq4dd/+bGxOlHYERTjel+OaI9VUEt27hvRzh9A+6fWmdROOPYnscQshCYg4Z/lKJReQnEGlXM/Jm1pZFvK8BKGdy5B9gfBS+OXbYFNiBjft2s2nH3/EyEiKUDhc9B26n0uSRDgSyZHNa1sJ4CYE9upcQBvd64UQOc8oVUdZuSUny63M5muvZ8nS5QXFQ10ZpSAGiqKwYuVqNm29DjEJp5W9e/NQ2z2y4k5pBNkSUUGxlnIpyBAzmTS1NXF2772NxqZEgeJLbY+/HU2JBDfvupXKSIhMKlXU7c7nke9S+9s+OZ5qeTzz3Wpd1xGSYNPWa1mxYlUBkJdCud6TQJ3fTOU3ViEqQzk7xovpqVTKabdpnyoo+cfxLst5eo6sAjuOVhUmdvd6IrMT2baL0vnmD3pr113N+g2bEJLwyoIFAVOQTXnvnNFtKJcXXj/x/3heVV6fKvUn17Gx0HSN5pYWdu/dT71vOpdvg5JfSH8j6+rruXXfbbS1txets14u+adW/t9+RYx2XdnPI7dj6LpOOBzmpt17WLhwUZbvONqTP1VctGQpu/bdTjgSQdc0X9uKhz/89wf9+K8plcbLM6jTZ9Jp2js6uHnXrdTW1Y0fyH3PkKIRKm9ZSfjq2bbezWAvoFwaq91j/RTTSxAVAIMFhGQiW+ZSuWMJckU46zWVEfQvGPSaEuz7+u00NjTYNiiCvJ2x2z1W20rpMxPVrUualqGiooI9t32defM7c86l5r/7nO2f+Y3t7Ozim3fcTXVVFZl0OgdBJzrSjaYQ//fjJctFhTxZ1129kd179lFVXZ2VfxyemZ+nZVnE43H27r+d5atWY/iqxbg+w0R0NdUUNMXMZNLEq2N86867md/ZlfNeygZy8mIJHfXEHtiC3FqDldEDjW66UgGIA5amo85NUPXgduTWuiwwOd+Ph7/NALoWLuIbd9xNVVUVmrPFxO7Wl4auXBJCYBp2SqYN12zh+hu+RmVlZeB0zqUccMo3uHAkwtZt27nx5l0oimKnU3DWhqezcoJGtuFkkra2Nr515920trUXeGnjJf/9rW1tfPvOu2lra2NkOOl9f6noynbx7DhTOBTilr372bx1u7dFwn99OeTnb8eFJCJrryL28BakuihmSrd3k19CuhJCYAmw0hpSYxWxB7cQWjbTbiOUtGAQRPk2WFFRwXU3fI3tO76G7B2VGjtscLEpyLtLpUe4YvaVfOvOu5jR3DymDcqPP/744/kf+i+2CxDM4nh3N8eOHQHIycmUL8DFJDd2kO8FjCSTxKtifO/R77N+wzVe4HmisufrQJIkGhqbiMaivP/2GwwNDREKhbOyTSNdQSEwCfA22G3YtJnv3nt/zjaLiXi1QoicKixSSEXuqMccHkH78ARWSrdXzZh+/QqKAZOOFI8Qu28j0a+vQ47lBsEnIrv/3mg0SntHB8eOHqW7u9sr4eS/drroqpgNplIjNDbU8+CjP2D12nWe/KPJXgBOQRfX1NQwc9Ysjh49wvHuYwjh7MlxZi3TQTnZTpOdygkhGBkZprYmzj0PPMQNO2+mwudKwuR4Tn5+qqrS1t5BZWWMj95/l2Qy6eWJyg9eTgt9+YDHMHRMw2TNuvU8+Oj3ueKKK3O+n6jM+dM7ORpBmTsDc2AI/WAPVsaYlgAVCEwpHVGpEL1rHVX3bUNpjOfqignESgPaXVtXR8fMmRz65GNOneotOLY0HXRVzAZTI8M0NDRw7/ce5trrb/A88bFkLuo55d/U0NhIe8dMuo8epefECftm35b2i2l0QYYGMJJMUlsT547v3sste/ZR7YszTVZsyyU/n3A4TMesWSiKyqFPPiY5dB7FqSwxmcY+HspffXEHGkPXMU2TlavX8NBjP2D+/M5JlzWIjxyPos5vRu8fxDh0CitjIPIA6mJTMWCq3L+C6kd3oLbWXxBdNTY1MXPmLI4c+ZJTvT2eB5V/7XSyweHkEDXxau665z523rKbWCxWsg0GgpN7Q34jZySauWruXE719nLixHHnbIx80Ywu39D8gdXh5BDxqij3PPAQt+zZRzwenzIZg/hVVFQw+6o5RKNRPvnofc6fH0LJK/1zoTtTsQ6UyWQQAtau38AjP/ghnZ1dF1RXcm2M0MJWzOER9ENf2ZsolYvXryBYVxZOjKkmQvSudVQ/sgO1vWHKZfSMGMGM5hZmzbqC493d9Jw84aSZVrw48FTKEURBg537tx1OifLdBx7m5t17CpyDsWQsCk5+8hgI+7Dr/M4uzp45YxfGTGeQnc1+F6ozZfm6q2H28yTs/SCGodPa1s6Dj/0FN950c9lKGQ+NBlCJGS0c/vRjBgYGEaJws+VUyhUUNBVCOLXK7EKGIVVl+/U38uAjj3HVnDkFunL/niwqBlDqonZQLIzPTmMNpRGyvXNbcOFAKp+3rSvn/xkdubmaqoe3UnXPFtSWuimVK2ggE8IGqPmdXfT19XHiRDeZdDqw7uLFsEGwD9UbpklHRwcPPvqDcdvgqOAUpByAuro6uhYuIhyOcPTIlwwODtrMJDknV4//3slQUhAPd1piWSYpx9DWrtvA9x75Phs3bc5Zrpzqjh3EPxwOM+vK2cyZO58z/f309vaQTqWQZck5VDk2j/HQaLoS2Hu+NE2jrq6Ob955N9++6zu0d3RMOTD5ZcmXUYpXElrUjtxRh/5lH+aZIdBMu/bdFINUMCg5Odk1A6HKqF0tVP/oBqL71qDUT/2A5/L25PHxb2hopGvhIoSQOPLFYYaGkiCypwKmwgaDBjqXt3v8LJNOoaoh1q6/mgcefowNE7DBMT2nYgBVXV3NvPmdtHfMpLfnBGf7+73NmrLv2EQQv3KUVIpCNC2DaZrUxKvZvW8/37n3froWLLArOVxgVzfQK1AUWtvbWLhoMYZh0H3kC0ZGUhiGmeNJlcJrNBpNV8IpGKrrOlomQ0hV6Vq4mPsfepgbdt5EfX3h9MT9e6ooEKAqwyhzEqjzExgDQ5gnB+xpnmkFglQxPqVQca9SeId4LcNEqqkksmMB1T/eSWRzJ3I0ckGAyS9T0PuIx+PM6+xiRksLvT29DJw7SyadsjNTTIEN5vPIscFMBguL2tpadu29jXvue4CuBQty+na5z/WyEpQjpF9Ruq5zvPsYv3/yCf7nid9w7tw5dN3wUNz2agAmXjnFP3oYhu4dqwmrKstXrWXv/v0sWbYiJ77k3nehg4TFOv7ZM2d4840D/ObXv+KDd98hnbFrhSmKmjPdmwxdIYR3JEjXNa8MVn19Pbv37mfHjTtpaW3NOZYyPXQlwDQxes4y/Mf3SP7nq+ifnrIP1mKBKnt51bEKj9IUa8No4O2kkbAPNWuGXQhTlVHnzSB6/yYqtnYiJ2pAiAs+4Pnl9z/X/TuTydB97Ci/e+K3PPXkbxkcPJ8d+KbIBi3LcqZv9lnSsGqn1Nlz2+0sXrLEy+E0kX5VFji5DwtC8vPnz/P5Z4d5/rlnee6Zp+nr60PTsgZhI3k2W15JjxXu0Qd7XmvnGdcAG/gi4RBLltu5yZevWEVTIpGXM+biLtv7n5sD6IbOV729vPH6AZ754x/44L23SaU1O60E+E6T2+12O9ZYlG2jXX/Q0HU7Ub4koSoKTYkEm7dtZ8vWbcyeM5dYLFYg28XWVf67M1MZtGN9pJ56j5FfvoN+7DSWrkPaOZenKghZ4FWyLLU3C+8fD5AsC0RIQoRDqAtbiOxeSmTrAtRZDUgh2wv34HMa6mpwcJAvPjvMc889y3NP/y/9/f3ozirspNqgZmclkCWZaLSSFavXcu3261i6fGWgDY7XCy8bnKC40QEMDg5w9MgRXn/tVV564XmOfPk5mXSGjKZh6JqTY8jOMyREdq9G/ohmWf4DhrbRhkIhZEmirr6BZStXs3nLFhYsXER9Q6NdFonio8vFotHk0TIZ+vr6eP/dd3jh+ed4/913GDh3Dk3XvSmyrSup6L4W9xmWZTr5ewxMw0BWVFRVJRIJc8Xsq9iwcRPrN2ykta3drgGIv3Nmc21dbF0J7OV61zvB7WfDKbTjZ0m/8impP7yP9uZxzIERGzAyTu1ASThTv1ESDrmelm7YWTMFdsFPSUKKV6CuaKXihiVENnYit9QgIk4tQyebJUKUnVZlKqiYZw4wMDBgl6d/5U+88vKLHP3yC9LpNJqml26DloVp+Q/6GgjsMvSKbNcuXLZiFRuuuYYFCxdTX19f1AbHq6dxgVMpChoeHubsmX4OHz7Eu2+/zeuvvUr3kc8w7XMKmIbpNT6Hl8NDcVYfnPGTWKyKxctWsmr1GhYvXUpjU4LqeBzlAq58TYRG05WuawycG6Dn5EkOHvyIt944wHvODnOwRyEL0A3DMeBcIBFCODmgJAQWsiSYeeUclq9azdJly5kzZx61dXVUVlZ6svhlmO66EhYguUv5Gcz+IbTPTpF67RCZlz9H//QrrKE0lm4HrjFNLN0Ek2xRAwHIAqHYiegs3UQoMqIqjLq4mfDGeYRXz0HpqEOqjSI5oOSm2IXpp6uggc/9P0AymeTc2TMcPnyId956izcOvFaSDfr5KIqME+WjKh5n+co1rF67js6uBTQ2NlJVXV2w+jxZjsGEwMkvUAFjLzZkMDyc5PzgIH2nT3PixHF6Tvbw1Ve99J3uI5lMomkZO6e3oqAqKmpIpbaunkQiQVNTgrb2NmY0t1BVHScWjRbmrPE9czp1niAaDaQAUqkUyWSS84MD9PacpPtYNz09J+nr6+Pc2bNOXnAtqy81RDQapaGxgURiBm3t7bS3dxCvrSUWjdkpkAMA3E/TUV8eCGdXqu3TCFLWY7eSKczzKYxzw2iHezGOnsY4dQ7j9ADmuRQkdRgxbJCSQdSGEHUVSLVRlNZ65JlNqHNmINdGkaoiiGgkm0HBB0rgTmqmr66CyG+DyWSSofOl2aCiqIRCIeob6mlsaqKp0bbB5pZWqqvjRGMxQr7q2FNlgxMGJ5eCjM6y7DLD+ATVNZ2MlkbTNHTN3g9hmSa4GX+c1RJFVlBDdjbMUCiU09hSA6DTmUYNzvquyWTSZDIauqbZ9exMd6Rz9CVJyJKEotpAFQ6FkB332uPjZK7Mp0tBXx5I5XwI/rzcFoBuYGU0+wiMZmAZpu01mZZ3PYrkeE8yIqzYlXhlOSeliz/B46XWrybTBiVJ8pI/qqp6UWxw0sDJT8WU5F9tK5ffaG7ipdJ5gqiYroBx68ufN9qlS83QgigQ0N1Z2zirp1j+aZ9Df666mgwbLHbvVOhqSsDJT8U8BOfLoosrxUDoUu80Y9Fo+irqvkOwZ8T0nYpMlAI9Ku/LMW4OUMefva4uQRuccnC6TJfpMl2m8VDxQuiX6TJdpst0EekyOF2my3SZpiX9P1aB+tYlKB0kAAAAAElFTkSuQmCC;" vertex="1" parent="8">
                    <mxGeometry x="428.82" y="243.43" width="315.94" height="183.14" as="geometry"/>
                </mxCell>
                <mxCell id="25" value="Text" style="text;strokeColor=none;align=center;fillColor=none;html=1;verticalAlign=middle;whiteSpace=wrap;rounded=0;fontFamily=Lucida Console;fontColor=#9999FF;" vertex="1" parent="1">
                    <mxGeometry x="530" y="200" width="60" height="30" as="geometry"/>
                </mxCell>
            </root>
        </mxGraphModel>
    </diagram>
</mxfile>